<?xml version="1.0" standalone="no"?>
<!DOCTYPE svg PUBLIC "-//W3C//DTD SVG 1.1//EN" "http://www.w3.org/Graphics/SVG/1.1/DTD/svg11.dtd" >
<svg xmlns="http://www.w3.org/2000/svg">
<metadata>
This is a custom SVG webfont generated by Font Squirrel.
Copyright   : This font is inspired by PolishLithuanian Constitution of 3 Mai 1791 and is released to the Public DomainCreated by gluk glukszawppl with FontforgeUse two comma at end of your words for fina glyphsaaogonekccacutedeeogonekghikllslashmntuxyzzdotzacute
Foundry     : glukszawppl
</metadata>
<defs>
<font id="webfontxRsQs3pG" horiz-adv-x="851" >
<font-face units-per-em="2048" ascent="1190" descent="-858" />
<missing-glyph horiz-adv-x="749" />
<glyph unicode=" "  horiz-adv-x="749" />
<glyph unicode="&#x09;" horiz-adv-x="749" />
<glyph unicode="&#xa0;" horiz-adv-x="749" />
<glyph unicode="!" horiz-adv-x="532" d="M100 8q0 25 6 43q4 14 21 23q4 2 23 8q6 2 22 2q20 0 34.5 -12.5t14.5 -28.5q0 -55 -65 -55q-48 0 -56 20zM199 367l22 106l47 217q29 139 47 246q23 135 23 197q0 27 -6 57q39 0 59 -4q31 -6 41 -6q18 0 49 10q0 -8 -114.5 -405.5t-114.5 -434.5q0 -6 -10.5 -6 t-26.5 8.5t-16 14.5z" />
<glyph unicode="&#x22;" horiz-adv-x="681" d="M303 979l49 57q35 39 39 45q16 33 17 41q0 39 -60 47l29 25q25 23 27 23t10 5t12 9q12 10 20 12q12 4 15 4q35 0 55 -51v-12q0 -14 -8 -29q-14 -25 -16 -27q-12 -16 -25 -28l-25 -25q-4 -4 -24 -20q-4 -4 -8 -7.5t-8 -5.5l-3 -2l-20 -14t-27 -16zM524 979l49 57 q35 39 39 45q16 27 17 41q0 37 -62 47l29 25l29 23q12 8 20 14q12 10 21 12q12 4 14 4q35 0 55 -51v-12q0 -14 -8 -29q-14 -25 -16 -27q-12 -16 -25 -28q-6 -6 -13 -14.5t-9 -10.5q-4 -4 -25 -20q-4 -4 -8 -7.5t-7 -5.5l-3 -2l-20.5 -14t-27.5 -16z" />
<glyph unicode="#" horiz-adv-x="1642" d="M98 385q68 10 119 10q25 0 119 -4q-4 -39 -6 -53q-27 2 -70 2q-80 0 -129 -23l-8 11.5t-6 10.5t-4 7q-8 10 -11 23zM180 709q78 25 348 24q145 0 230 -8l-4 -55q-55 4 -205 6h-92h-64q-12 0 -26.5 -1t-16.5 -1q-16 0 -31 -2q-6 0 -11 -1t-8 -2l-3 -1q-2 0 -4 -1t-8 -2 t-14.5 -3.5t-18.5 -4.5t-12 -4q-8 0 -17 9l-6 6t-9 8t-9 10l-13 15q-5 7 -6 8zM358 61q0 66 13 136q16 98 18 135q14 106 33 299h67q-29 -295 -30 -307q-8 -63 -8 -107q0 -100 4 -117q-56 -27 -97 -39zM436 778q18 135 27 137l3 1q3 1 9 1.5t12 0.5q27 0 45 8 q-9 -46 -24 -148h-72zM522 319q3 25 6 56q168 -12 291 -13q104 0 168 11q80 12 96 22q37 -43 50 -71q-115 -16 -269 -17q-164 0 -342 12zM782 78q0 12 4.5 57t4.5 78v53l69 -2v-31q0 -14 4 -67q2 -33 8 -49q-61 -31 -90 -39zM799 410q10 217 18 311q23 195 45 197q31 2 70 8 q0 -2 -2 -9.5t-6 -18.5l-9 -24q-2 -4 -18 -63q-2 -8 -6 -29.5t-6 -33.5q-6 -27 -11 -89q0 -18 -2 -43q-2 -14 -3 -49t-1 -53q0 -16 -1 -50t-3 -48q-14 -2 -65 -6zM934 653q4 43 6 56q23 -2 88 -2q86 0 139 24q35 -45 45 -72q-68 -10 -125 -10q-51 0 -153 4z" />
<glyph unicode="$" horiz-adv-x="864" d="M109 279q0 33 30 47q33 16 70 16q39 0 76 -12q35 -12 57 -31q35 -31 41 -37q20 -23 25 -33q6 -12 6 -16q-10 -16 -41 -16q-15 0 -31 6l-4 14q-2 14 -10 33q-4 10 -21 35q-10 14 -37 28q-20 10 -57 11q-49 0 -49 -48q0 -49 29 -88q28 -37 73 -55q51 -20 92 -28.5t95 -8.5 l57 2q70 10 117 33q45 23 65 62q23 41 27 57q6 25 6 49q0 39 -23 61q-25 25 -94 74l15 76q46 -28 67 -43q35 -25 60 -49q34 -34 49 -74q14 -37 14 -86q0 -174 -305 -182h-57q-160 6 -250 69q-92 64 -92 134zM283 733q0 61 90 109q88 45 223 45q88 0 152 -19q68 -18 96 -45 q31 -29 47 -53q12 -20 12 -45q0 -27 -16 -41q-20 -16 -39 -16q-39 0 -43 16l14 14q16 16 17 37q0 49 -39 80q-41 33 -90 41q-55 10 -111 10q-88 0 -164 -41q-74 -39 -74 -80q0 -59 150 -159l-14 -70l-103 76q-31 23 -74 70q-34 36 -34 71zM418 -92l26 135h56l-27 -133z M459 129l84 434l51 271h16q25 0 37 -3q-43 -193 -76 -374l-55 -328h-57zM608 918l13 67l61 6l-14 -76q-14 2 -39 3h-21z" />
<glyph unicode="%" horiz-adv-x="1148" d="M90 47l141 123q231 199 297 266q63 68 330 375l103 119l83 -53l-868 -883zM147 800.5q0 55.5 47.5 92.5t114.5 37q72 0 117 -37t45 -92.5t-45 -91.5q-49 -39 -117 -39q-66 0 -114 39q-48 36 -48 91.5zM209 797q0 -41 32.5 -65.5t77.5 -24.5q46 0 80 24q33 25 33 66 q0 33 -35 61.5t-78 28.5t-77 -29q-33 -26 -33 -61zM639 127q0 55 49 92q51 39 115 39q66 0 115 -39q47 -37 47 -92q0 -53 -47 -90q-49 -39 -115 -39q-63 0 -115 39q-49 37 -49 90zM698 125q0 -37 33 -63.5t80 -26.5q45 0 78 26.5t33 63.5q0 39 -33 63.5t-78 24.5 q-46 0 -80 -25q-33 -24 -33 -63z" />
<glyph unicode="&#x26;" horiz-adv-x="1118" d="M135 213q0 33 23 72q22 37 49 67q20 23 77.5 66t80.5 57q14 8 24 14.5t25.5 15.5l36.5 21l67 41l47 -61l-102 -70l-92 -61l-66 -49q-35 -29 -49 -51.5t-14 -49.5q0 -72 75 -135q74 -61 150 -61h2q57 0 113 18q51 16 108 57q51 37 78 60l68 61l182 187l31 -25l-189 -190 q-109 -109 -188 -150q-90 -47 -211 -47q-117 0 -219 70q-107 71 -107 143zM479 766q0 74 56 119q53 45 174 45q72 0 121 -43t49 -88q0 -41 -43 -84q-57 -55 -150 -123l-49 57q55 37 72 51q33 29 53 52q27 29 26 55q0 29 -20 61.5t-59 32.5q-82 0 -117 -35q-37 -37 -37 -92 q0 -82 49 -145l254 -330l-47 -43q-215 279 -262 332q-70 94 -70 178zM885 166l45 47l168 -213h-80z" />
<glyph unicode="'" horiz-adv-x="462" d="M356 979q23 31 47 57q35 39 39 45q16 33 17 41q0 37 -62 47l29 25l29 23q12 8 20 14q12 10 21 12q12 4 14 4q35 0 53 -51v-12q0 -12 -6 -29q-4 -10 -16.5 -26.5t-24.5 -28.5q-6 -6 -13 -14.5t-9 -10.5q-4 -4 -25 -20q-4 -4 -8 -7.5t-7 -5.5l-3 -2q-4 -4 -20.5 -14 l-27 -16t-27 -16.5t-20.5 -14.5z" />
<glyph unicode="(" horiz-adv-x="604" d="M68 182q0 190 67.5 411.5t126.5 299.5q86 113 232 172q147 61 276 61l92 -10q-18 0 -39 -2q-8 0 -17 -1t-13.5 -2t-6.5 -1q-14 0 -30 -2q-6 0 -11.5 -1t-9.5 -1t-7 -1t-5 -1t-13.5 -3l-19.5 -5q-25 -6 -37 -15q-8 -4 -39 -16l-49 -25q-12 -6 -53 -30q-104 -59 -188 -219 q-82 -154 -123 -326q-39 -162 -39 -305q0 -242 235 -322q59 -18 178 -33h-16q-72 0 -137 11q-55 8 -84 18q-25 8 -66 29q-204 108 -204 319z" />
<glyph unicode=")" horiz-adv-x="1001" d="M43 -195q114 15 197 37q156 43 254 125q92 78 161 223q70 143 109 297q41 158 47 224q6 68 6 116q0 74 -22 121q-27 57 -58 82q-29 25 -82 47q-45 18 -84 27q-43 8 -75 10q-45 4 -47 6q55 6 96 6q92 0 178 -30q84 -31 149 -99q63 -66 64 -159q0 -109 -37 -275 q-37 -164 -129 -358q-121 -246 -385 -352q-6 -2 -15.5 -6.5t-17.5 -7.5t-16 -5t-27.5 -5t-27.5 -5q-14 -4 -50 -8q-25 -4 -53 -6q-23 -2 -45 -3h-47h-20.5t-15.5 -1t-7 -1z" />
<glyph unicode="*" horiz-adv-x="884" d="M199 387l186 82l-174 96q6 6 16.5 14.5t30.5 20.5l162 -94q0 70 -21 166q10 -2 39 -6q6 0 13.5 -1t11.5 -2t6 -1l6 -84q0 -10 1 -34t3 -32q141 66 185 96l26 -53q-57 -31 -198 -92q94 -55 192 -94q-4 -4 -27 -21q-12 -8 -17 -12t-7 -6l-58 26q-12 6 -18 10.5t-8 4.5t-7 3 t-14 7q-20 8 -47 27v-138h-12q-6 0 -23 4q-4 2 -12 3.5t-12 1.5v40q0 82 2 109l-207 -84z" />
<glyph unicode="+" horiz-adv-x="903" d="M125 494q51 -2 313 -2h133q184 0 273 14q18 -16 41 -66q-115 -8 -189 -8h-80q-23 0 -62.5 1t-55.5 1q-82 0 -168 2t-180 2q-2 0 -7 11q-4 12 -6 22q-2 13 -12 23zM373 164q0 4 4 38t8 52q8 45 10 57q10 51 15 70l77 -4q-2 -4 -8 -58l-1 -4q-1 -4 -2 -11t-1 -15 q-4 -43 -8 -62q-4 -23 -4 -45q-43 -18 -90 -18zM451 545q0 4 2 16l5 31.5t7 40.5q8 45 22 108q0 4 17 9l15 5t22 5q8 2 18 4t12 4l-49 -223h-71z" />
<glyph unicode="," horiz-adv-x="430" d="M39 -164q6 8 15 18.5l22 24.5q14 16 35 37q12 12 20 28.5t8 30.5q0 41 -59 50q102 78 117 77q16 0 34.5 -20.5t18.5 -42.5q0 -35 -51 -88q-45 -51 -158 -119z" />
<glyph unicode="-" horiz-adv-x="958" d="M184 438q0 20 15 56q76 -2 432 -2q178 0 272 14q-6 -29 -10 -45.5t-4 -20.5q-115 -8 -190.5 -8t-192.5 2q-234 4 -322 4z" />
<glyph unicode="." horiz-adv-x="430" d="M125 8q0 31 6 43q8 14 23 23q8 4 20 8q6 2 24.5 2t32.5 -12q16 -12 17 -29q0 -55 -68 -55q-47 0 -55 20z" />
<glyph unicode="/" horiz-adv-x="1079" d="M49 -25l209 179l197 170l155 143q133 123 185 178l180 195l233 262l84 -53l-1161 -1127z" />
<glyph unicode="0" horiz-adv-x="1107" d="M145 309q0 264 156 455q154 186 371 186q115 0 194.5 -55t79.5 -109q0 -12 -8 -57q-6 -31 -23 -41q-16 16 -22 25q-12 16 -16 24l-5.5 10.5t-3.5 8.5q-4 6 -6 20q-2 10 -2 19q0 125 -160 125q-133 0 -245 -97q-109 -92 -168 -248q-59 -154 -60 -323q0 -61 35 -108.5 t90 -71.5q47 -20 107 -35q53 -12 98 -12q102 0 205 86q98 84 166 227q63 135 63 278q0 49 -12 70q-8 10 -8 25q0 8 2 18q4 20 4 25v10q2 0 20 -16q20 -18 27 -27q2 -4 7 -12.5t13 -18.5q10 -14 19 -49q4 -18 4 -68q0 -74 -12 -127q-16 -72 -51 -147q-39 -86 -89 -145 q-55 -68 -143 -111q-89 -43 -197 -43q-76 0 -139 16.5t-137 53.5q-68 34 -111 98q-43 65 -43 141z" />
<glyph unicode="1" horiz-adv-x="559" d="M143 350l123 139l103 121q35 35 141 299q12 43 49 43q14 0 29 -10q10 -8 10 -22v-2q0 -23 -16 -82q-23 -84 -60 -162q-45 -96 -90 -125q-70 -47 -131 -94q-64 -50 -158 -105zM211 4q6 147 111 432l98 68q-84 -313 -84 -424q0 -43 12 -74q-29 -4 -57 -4h-33q-6 0 -22.5 1 t-24.5 1z" />
<glyph unicode="2" horiz-adv-x="1282" d="M127 164q0 82 82 135q78 51 233 51q125 0 308 -88q76 -43 104 -69q37 -35 43 -52q6 -18 12 -30q4 -10 23 -11q39 0 127 58q84 55 121 55q20 0 32 -10q16 -12 19 -23l6 -12q0 -8 -6 -8q-74 -12 -180 -80q-109 -68 -136 -68q-35 0 -63.5 22.5t-28.5 51.5q0 82 -98 147 q-47 33 -125 62q-83 31 -147 31q-143 0 -203 -41q-57 -39 -57 -123q0 -55 32.5 -94t108.5 -39q121 0 305 215q23 -10 61 -35q-137 -131 -211 -166q-86 -41 -149 -41q-59 0 -109 16q-41 14 -65 41q-20 23 -31 52q-8 22 -8 53zM469 667.5q0 16.5 2 28.5q2 14 31 64 q23 41 65 69q3 3 25 19l31 20q12 8 32 19q14 6 47 16q35 10 60 15q43 8 78 10q29 2 98 2q123 0 199 -41q74 -41 73 -90q0 -16 -12 -41q-14 -29 -33 -56l-19 -27.5t-24 -31.5q-16 -20 -59 -68l-62 -65l-65 -70q-41 -41 -62 -59l-57 -53q-37 -35 -41 -41q-51 27 -74 35 l158 161q25 25 121 131q76 84 106 131q31 46 31 74q0 25 -22 43q-20 18 -60 25q-57 10 -63 10q-18 2 -58 2q-221 0 -305 -92q-25 -27 -30 -72q-6 -39 -17 -63q-20 -20 -31 -21q-63 0 -63 16.5z" />
<glyph unicode="3" horiz-adv-x="1159" d="M143 299q0 53 29 82q27 27 57 27q16 0 33 -5q10 -2 17 -8q4 -4 4 -8t-15 -12q-12 -6 -26 -37q-12 -25 -13 -66q0 -90 95 -168q90 -76 251 -75q172 0 313.5 92t141.5 205q0 111 -139 172q10 23 14 24q236 -74 236 -221q0 -109 -133 -205q-131 -94 -369 -94q-219 0 -356 82 q-140 84 -140 215zM461 782q0 61 104.5 104.5t212.5 43.5q123 0 201 -61.5t78 -143.5q0 -47 -19 -78q-18 -33 -55 -53q-53 -31 -57 -33q-8 -4 -31 -11t-35 -11q-10 -10 -10 -11q-4 -6 -8 -10q-23 -16 -60 -16q-45 0 -61 14q-18 16 -19 35v4q2 18 43 27q57 12 91 16 q47 6 88 41t41 96q0 66 -58 119q-53 51 -151 51q-104 0 -164 -41q-61 -43 -62 -86q0 -20 23 -33q25 -14 43 -16q23 -4 22 -8q0 -16 -30 -16q-53 0 -92 22q-35 20 -35 55z" />
<glyph unicode="4" horiz-adv-x="1150" d="M143 342q0 10 13 14q184 94 444 283q244 176 340 238q20 12 27 32q6 22 18 37q12 16 47 25q14 0 39 -10q20 -8 21 -33q-39 -100 -72 -205q-31 -96 -49 -168l-45 -184h-105q102 387 125 444q-31 -18 -305 -205q-256 -174 -412 -254q27 -8 207 -14q238 -8 375 -8h186 q43 0 76 12q35 12 35 31q0 14 -29 14q-16 0 -26.5 -2t-28.5 -2q-16 0 -16 10q0 12 14 29q14 18 35 18q39 0 59 -20q25 -25 25 -45q0 -94 -154 -94q-449 0 -784 14q-29 4 -41 14q-19 15 -19 29zM713 0q25 49 82 250h104q-27 -113 -63 -238q-3 -12 -25 -12h-88h-10z" />
<glyph unicode="5" horiz-adv-x="1251" d="M143 272v2q0 12 2 16.5t17 14.5q10 8 39 8q49 0 49 -16q0 -6 -8 -23q-10 -20 -11 -41q0 -66 56 -114q53 -47 133 -70q74 -20 168 -20q92 0 172 22q77 22 123 55q45 33 75 76q31 45 43 76q10 29 11 66q0 123 -117 217q-119 96 -264 96q-141 0 -279 -84q2 18 10 47 q106 66 277 66q113 0 225 -48q115 -47 185 -126q72 -82 71 -173q0 -47 -28.5 -100t-85.5 -102q-61 -51 -158 -84q-98 -33 -230 -33q-201 0 -338 75.5t-137 196.5zM225 512q25 74 47 125q45 104 58 137q23 63 22 88v15l72 -29l-41 -109l-45 -112q-20 -51 -21 -60 q-8 -47 -16 -49q-23 -6 -76 -6zM348 911q0 23 12 41q14 20 37 21q16 0 28.5 -6t19 -12.5t6.5 -8.5q-20 -2 -21 -12q0 -4 12 -14q6 -4 16.5 -9.5t24.5 -15.5q27 -16 88 -43q68 -29 115 -29q88 0 182 25q84 23 158 53l121 53q58 25 80 25q20 0 20 -29q0 -23 -16 -41 q-23 -25 -62 -45q-41 -20 -102 -39q-51 -14 -152 -28q-92 -12 -198 -13q-53 0 -114.5 16.5t-84.5 28.5l-86 45l-29 13q-6 2 -19 6t-19 8q-17 8 -17 10z" />
<glyph unicode="6" horiz-adv-x="1265" d="M143 262q0 119 54 283q49 150 98 217q23 33 35 47q14 16 55 49q45 35 92 53q45 16 137 33q94 16 197 17q66 0 133 -13q66 -12 131 -37q63 -25 103 -65q41 -45 41 -98q0 -39 -33 -66t-62 -27q-18 0 -36.5 6.5t-18.5 16.5q0 2 16 12q15 9 31 31q14 20 14 57q0 72 -96 113 q-98 41 -215 41q-90 0 -184 -25q-96 -25 -152 -67q-121 -94 -198 -373q-31 -108 -31 -184q0 -126 86 -191q84 -63 209 -63q45 0 96 6q49 6 121 28q59 18 119 58q53 35 90 96q35 57 35 139q0 111 -80 181q-78 70 -215 69q-94 0 -207 -45q-111 -45 -178 -115l18 64 q152 131 371 131q162 0 278.5 -86t116.5 -219q0 -74 -39 -139q-37 -63 -94 -99q-63 -39 -133 -59q-78 -23 -143 -31q-59 -8 -134 -8q-78 0 -145 12q-72 12 -135 39q-68 27 -107 82q-41 57 -41 129z" />
<glyph unicode="7" horiz-adv-x="888" d="M143 813q0 51 47 92q45 39 125 39q84 0 148 -20q72 -23 110.5 -45.5t100.5 -44.5q55 -20 114 -21q33 0 74 10l-12 -12q-2 -4 -10.5 -8t-10.5 -8l-10 -7q-35 -8 -51 -8q-76 0 -143 33l-144 66q-72 33 -151 32q-121 0 -121 -108q0 -39 10 -62q12 -27 33 -26q12 0 12 14 l-1 5q-1 5 -1 9v19q0 14 10 14q6 0 29 -12q20 -12 21 -25q0 -2 -5 -14q-2 -6 -18 -16q-14 -8 -39 -9q-37 0 -78 35q-39 33 -39 78zM270 0q29 88 68 176t70 143q31 57 84 123l86 101q47 49 96 90l94 76l98 73l23 17q20 20 41 53q31 47 37 55q20 23 43 29q10 0 37 -10 q23 -8 22 -21q-4 -12 -10 -18q-14 -14 -25 -23q-4 -4 -8 -7t-7 -5l-3 -2q-4 -2 -33 -35q-33 -37 -45 -49q-274 -215 -401 -404q-129 -190 -129 -311v-24v-9q0 -14 -7 -16q-4 -2 -39 -2h-2h-90z" />
<glyph unicode="8" horiz-adv-x="1142" d="M145 291q0 63 50 112q51 51 129 78q86 29 155 47q68 16 154 31q72 12 96 19q248 68 248 170q0 68 -76 121t-164 53q-82 0 -147.5 -53.5t-65.5 -104.5q0 -84 156 -164q-29 -8 -47 -12q-70 31 -127 78q-53 45 -53 100q0 61 98 125q96 63 199 63q115 0 211 -65.5t96 -151.5 q0 -66 -94.5 -123t-200.5 -75q-143 -23 -244 -50q-88 -25 -158 -53q-61 -27 -90 -57q-33 -35 -41 -62q-10 -31 -10 -65q0 -104 96 -164q94 -57 230 -57q104 0 190 30q82 29 142 82q53 47 84 101q29 49 28 98q0 106 -166 174l19.5 5t15.5 3q15 3 19 6l6 2q217 -70 217 -204 q0 -55 -33 -109q-35 -57 -94 -104q-68 -53 -164 -82q-111 -33 -231 -33q-197 0 -316 84q-117 84 -117 207z" />
<glyph unicode="9" horiz-adv-x="1189" d="M143 266q0 53 31 76q35 25 55 25q55 0 56 -37l-13 -11q-8 -6 -22 -34q-12 -25 -12 -72q0 -53 45 -98q39 -39 102 -60q51 -16 119 -16q76 0 125 10q63 12 100 27q47 16 82 42.5t63 51.5q27 23 50 66q29 53 34 65q2 4 25 72l21 67q10 33 16 68q29 139 29 205q0 53 -23 98 q-20 41 -47 61q-20 16 -72 31q-37 10 -71 15q-18 2 -66 2q-205 0 -301 -70t-96 -195q0 -100 57 -166q59 -70 191 -69q92 0 196 33q111 35 170 102l-14 -76q-158 -86 -340 -86q-90 0 -164 29q-70 27 -111 72q-37 41 -57 90q-18 46 -18 92q0 125 133 205t342 80q205 0 303 -76 q94 -74 94 -180q0 -63 -4 -99q-6 -49 -25 -121q-18 -71 -43 -135q-27 -68 -73 -131q-53 -70 -113 -113q-63 -45 -158 -75q-95 -31 -209 -31q-43 0 -69 4q-53 8 -99 23q-61 20 -104 45q-49 29 -80 78q-35 53 -35 116z" />
<glyph unicode=":" horiz-adv-x="430" d="M125 8q0 31 6 43q8 14 23 23q8 4 20 8q6 2 24.5 2t32.5 -12q16 -12 17 -29q0 -55 -68 -55q-47 0 -55 20zM127 498q0 18 8 43q4 14 21 22q8 4 20 8q6 2 25 2q16 0 32.5 -12t16.5 -29q0 -55 -68 -55q-47 1 -55 21z" />
<glyph unicode=";" horiz-adv-x="430" d="M39 -164q6 8 15 18.5l22 24.5q14 16 35 37q12 12 20 28.5t8 30.5q0 41 -59 50q102 78 117 77q16 0 34.5 -20.5t18.5 -42.5q0 -35 -51 -88q-45 -51 -158 -119zM127 498q0 18 8 43q4 14 21 22q8 4 20 8q6 2 25 2q16 0 32.5 -12t16.5 -29q0 -55 -68 -55q-47 1 -55 21z" />
<glyph unicode="&#x3c;" horiz-adv-x="661" d="M53 584l502 247l55 -75q-262 -102 -520 -217zM125 489zM127 489l53 27l369 -475l-92 -47q-178 284 -330 495z" />
<glyph unicode="=" horiz-adv-x="933" d="M55 408q299 -4 467 -5q156 0 275 17q16 -16 39 -68q-98 -6 -193 -6q-80 0 -207 2t-336 2q-6 0 -12 10q-2 4 -7 12.5t-7 12.5q-7 11 -19 23zM90 580h248q74 0 146 -1l73 -1q154 0 274 16q31 -35 39 -68q-115 -8 -190 -8q-82 0 -209 2q-254 4 -336 4q-4 0 -10 10.5 t-16 24.5q-9 15 -19 21z" />
<glyph unicode="&#x3e;" horiz-adv-x="718" d="M55 59l588 478l41 -33q-233 -197 -553 -504zM190 772l50 62l358 -263l-49 -41z" />
<glyph unicode="?" horiz-adv-x="921" d="M129 1008q25 178 309 178q434 0 434 -309q0 -169 -276 -265q-8 -4 -26.5 -9t-28.5 -9q-18 -6 -31.5 -11t-20.5 -8l-43 -14q-12 -4 -22 -8t-16 -6q-10 -4 -31 -15l-29 -14q-6 -4 -16 -14q-9 -9 -13 -19q-4 -12 -4 -16q0 -14 15 -61q12 -39 12 -58q0 -6 -20 -6q-29 0 -68 8 q-41 8 -41 15v10q2 6 2 12q0 2 4 14q2 14 4 19q4 8 6 16l5.5 11.5t3.5 9.5q2 4 6 9t6 9q8 16 12 23q2 4 9.5 10t9.5 10q12 16 20 23q23 23 229 102q98 39 164 110.5t66 121.5q0 72 -21 124q-20 51 -53 84q-31 31 -74 50q-35 14 -80 22q-25 4 -77 4q-111 0 -179 -43 q-66 -41 -65 -110q0 -27 27 -41q35 -20 57 -25q27 -6 27 -12q0 -4 -15 -10q-16 -6 -26 -7q-16 0 -66 13q-86 21 -86 82zM178 8q0 25 6 43q4 14 21 23q4 2 22 8q6 2 23 2q20 0 34.5 -12.5t14.5 -28.5q0 -55 -68 -55q-45 0 -53 20z" />
<glyph unicode="@" horiz-adv-x="1191" d="M63 336q0 188 150 315q145 125 375 125q150 0 270 -45q125 -47 197 -139q76 -98 75 -223q0 -80 -88 -158t-249 -78q-35 0 -70 21q-31 18 -31 59v4q-2 -2 -6 -5t-8 -7t-7 -8l-5 -6.5t-8.5 -5.5t-8.5 -5q-12 -8 -20 -12q-68 -29 -117 -29q-53 0 -92 19q-41 18 -58 43 q-18 27 -24 51q-8 29 -8 47q0 88 94 172t225 84q43 0 90 -20q43 -18 43 -33q23 27 49 26q8 0 21 -8q10 -6 10 -22l-86 -189q-2 -2 -10 -18q-4 -6 -8 -16.5t-6 -14.5l-11 -31q-6 -18 -6 -30q0 -45 70 -45q31 0 72 12q47 14 86 37q47 27 71 67q31 51 31 105q0 63 -25 137 q-20 61 -73 121q-49 55 -150 90q-96 33 -227 33q-211 0 -340 -113q-125 -111 -125 -309q0 -180 133 -288.5t340 -108.5q172 0 278.5 55t192.5 149h6l-14 -24q-8 -14 -47 -53t-88 -70q-41 -27 -138 -53q-86 -25 -190 -25q-225 0 -379 117q-156 119 -156 303zM408 285 q0 -70 26.5 -102.5t57.5 -32.5q55 2 108 32q61 37 111 125q18 39 28 148q0 41 -22 61q-29 25 -60 25q-84 0 -168 -90q-81 -88 -81 -166z" />
<glyph unicode="A" horiz-adv-x="2088" d="M109 254q0 47 41 84q40 37 122 37q70 0 131 -33q57 -31 89 -98q18 -37 18 -58q-14 -20 -55 -20q-31 0 -43 12v58q0 55 -33 86q-35 31 -90 30q-51 0 -76 -41t-25 -94q0 -57 39 -96q40 -40 105 -62q53 -18 119 -28q49 -8 104 -8t109 4q33 2 98 26q58 22 104 56 q61 45 133 106t177 166l237 246q113 121 240 288q-29 -119 -35 -180l-150 -168q-164 -182 -288 -297q-117 -109 -219 -172q-98 -61 -172 -79.5t-171 -18.5q-123 0 -217 18.5t-149 42.5q-51 23 -88 64q-33 37 -45 65q-10 27 -10 64zM594 735q0 72 59 103q61 33 150 32 q20 0 78 -8q33 -4 75 -16q33 -8 82 -29q27 -10 46.5 -19.5t31.5 -13.5q20 -8 78 -36q25 -12 42 -22.5t28 -14.5l65 -37q12 -6 24.5 -14.5t19.5 -12.5t9 -4l-20 -20q-127 76 -289 149q-152 70 -223 70q-70 -4 -119 -35q-51 -33 -51 -86q0 -66 20 -109q23 -47 45.5 -67.5 t63.5 -32.5q33 -10 61 -14q14 -2 52 -2q12 2 18 8t6 16q0 14 2 17q8 4 27 4q14 0 47 -16.5t33 -26.5q0 -18 -25 -29q-18 -8 -55 -8q-168 0 -274.5 86t-106.5 188zM1430 119q0 49 36.5 86t120.5 37q51 0 84 -13l2 -32q-27 10 -61 14q-66 0 -90 -37q-27 -39 -27 -70 q0 -33 29 -57q25 -23 84 -22q18 0 32 6q23 8 27 12q8 6 19 23q10 18 12 24q0 4 3 12.5l5 14.5q2 10 2 24q0 2 1 9.5t1 11.5l2 12q0 125 -39 281q49 -16 78 -19l10 -33q10 -35 11 -36q0 -6 6 -33l8 -41q4 -16 6 -39q4 -33 4 -49q0 -6 1 -22.5t1 -24.5q-2 -14 -6 -35 q-10 -37 -14 -45q-4 -10 -27 -37q-18 -20 -53 -31q-37 -10 -86 -10q-90 0 -137 35q-45 33 -45 84zM1501 551l19 20q55 -27 141 -57q88 -31 147 -31q47 0 72 18.5t29 41t14 39.5q12 18 41 18q23 0 35 -14q12 -15 12 -37q0 -35 -41 -66q-37 -29 -110 -28q-86 0 -197 30 q-62 19 -162 66zM1653 608q0 104 14 164q29 174 57 244q8 14 9 18l32 80q14 29 37 51q33 25 70 25q41 0 70 -21q31 -23 30 -47q0 -18 -39 -80q-31 -47 -75 -108l-37 -49q-82 -109 -82 -297q0 -43 2 -60q-57 10 -86 23q-2 16 -2 57zM1823 76q0 2 2 10l4 15.5t2 15.5l14 -27 q2 -6 6 -12t6.5 -10.5t4.5 -6.5q8 -12 16 -20q14 -14 22.5 -18.5t26.5 -4.5q35 0 62 21q29 23 73 88l2 -2q-59 -125 -143 -125q-59 0 -98 76z" />
<glyph unicode="B" horiz-adv-x="2398" d="M217 1251q0 72 61.5 115t190.5 43q109 0 262 -41q166 -43 279 -88q117 -45 270 -88q147 -41 240 -41q90 0 184 20.5t164 20.5q98 0 180 -41q78 -39 125 -102q45 -59 70 -125q23 -59 22 -119q-4 -51 -31 -107q-28 -55 -67 -92q-41 23 -101 45q82 80 82 172q0 63 -34 146 q-33 80 -103 125q-76 47 -180 47h-29q-197 -23 -262 -23q-127 0 -280 39q-160 41 -281 86q-127 47 -260 86q-135 39 -231.5 39t-143.5 -35q-45 -33 -45 -88q0 -92 70 -162q72 -72 217 -141q158 -63 270 -63q57 0 121 30q61 29 94 39q131 0 199 -49q-20 -20 -113 -37 q-84 -14 -207 -14q-256 0 -465 104q-77 37 -135 86q-57 47 -84 90q-20 31 -37 74q-12 31 -12 49zM358 268q0 45 33 78q37 37 119 37q59 0 112.5 -16.5t73.5 -34.5q23 -20 39.5 -49t18.5 -45q4 -25 4 -33q0 -29 -51 -29q-47 0 -48 27v43q0 45 -34 80q-39 39 -99 39 q-94 0 -94 -103q0 -61 33 -102q35 -45 78 -68q51 -27 100 -41q55 -14 96 -18q53 -4 68 -4q111 0 203 39q106 45 227 153q10 10 59 66q55 59 60 65l55 72q33 43 47 63l43 62q28 40 31 43q37 51 74 115q31 55 61 120q29 61 45 101q6 16 17.5 40.5t25.5 57.5q29 72 31 78l88 -2 q14 -12 22 -35l-65 -143q-18 -43 -53 -113q-25 -47 -39 -78q-20 -41 -33 -61q-4 -8 -10 -17.5t-10.5 -15.5t-6.5 -10q-10 -20 -24 -39q-20 -29 -25 -35q-45 -70 -164 -213q-125 -150 -217 -215q-125 -82 -209 -107q-70 -20 -202 -20q-231 0 -357 84q-123 83 -123 184z M1663 532q39 51 78 123q45 12 100 13q106 0 199 -39q55 -23 100 -45q100 -49 154 -146q55 -98 55 -205q0 -37 -4 -55q-4 -23 -29 -59q-20 -33 -57 -60q-34 -25 -98 -43q-57 -16 -152 -16q-106 0 -199 53q-34 22 -67 56q-37 37 -53 61q-18 28 -19 37q0 16 29 16q35 0 61 -12 q12 -8 27 -33l24 -47q8 -16 35 -47q23 -27 64 -41q45 -16 104 -16q35 0 49 2q33 4 56 12q39 12 59 33q25 25 41 63q20 45 23 103q0 187 -166 301q-18 10 -92 34q-63 20 -97 21q-98 0 -108 -29q29 -12 57 -12q35 0 59 10q59 -10 140 -45q-88 -41 -199 -41q-92 0 -174 53z" />
<glyph unicode="C" horiz-adv-x="1341" d="M143 633v4q121 10 197 25q63 12 190 57l-38 -51q-167 -29 -349 -35zM383 313q0 100 53 195q57 100 117 170q10 10 41 47l41 49q12 16 37 41l39 41q2 4 14 16.5t23 22.5q6 6 43 37l43 35q10 8 28.5 20t24.5 17l55 34q262 152 408 152q72 0 71 -41v-10q0 -9 -6 -19 q-2 -2 -39 -28q-31 -22 -92 -56l-168 -92l-301 -158q31 37 82 80l170 99q236 129 256 151q-168 -33 -328 -127q-96 -53 -309 -282q-55 -59 -121 -175q-68 -120 -67 -196q0 -127 114 -213q113 -86 353 -86q120 0 172 43q51 43 51 102q0 49 -27 86q-25 35 -65 35h-21 q-4 0 -7 -1l-3 -1q-2 0 -2 4q0 6 4 10q6 8 23 11q20 4 34 4q66 0 119 -45q57 -47 57 -113q0 -31 -14 -53q-20 -35 -47 -56q-35 -29 -104 -47q-63 -16 -170 -16q-133 0 -248 31q-114 31 -185 80q-74 51 -110 102q-39 53 -39 100z" />
<glyph unicode="D" horiz-adv-x="2054" d="M252 1255q0 31 12 70q14 45 37 94q25 51 82 103q55 49 129 80q111 41 272 40q57 0 136 -4q51 -2 159 -22q86 -16 195 -55q90 -33 213 -103q113 -63 235 -164q176 -145 293 -348q92 -164 92 -428q0 -53 -16 -108q-23 -74 -55 -136q-37 -68 -92 -133q-53 -61 -140 -102 q-88 -41 -182 -41q-131 0 -338 121l16 24q195 -113 322 -112q59 0 121 41q65 43 123 110q53 61 96 174q41 106 41 213q0 164 -64 320q-63 160 -231 325q-96 98 -221 185q-117 80 -207 119q-76 33 -186 61q-95 25 -142 31q-31 4 -82 4q-121 0 -182 -12q-59 -12 -135 -46 q-72 -31 -131 -133q-57 -100 -57 -178t53 -162q53 -86 127 -143q70 -55 157 -94q84 -37 139.5 -37t84.5 22q27 20 26 62q0 25 -24.5 57.5t-36.5 71.5q0 29 18 47q20 20 35 23q10 2 35 2q52 0 74 -37q20 -35 20 -80q0 -68 -51 -143q-37 -55 -141 -56q-113 0 -263 72 q-143 70 -256 184q-110 113 -110 221zM838 252q0 37 22 70q20 31 64 30q35 0 47 -2q18 -2 41 -14q29 -14 35 -19q29 -18 49 -34q51 -39 63 -47l-10 -29q-104 74 -139 94q-23 12 -33 12q-27 0 -37 -18q-12 -22 -12 -49q0 -14 6 -45q8 -43 20 -74q16 -41 43 -72q27 -29 66 -28 q10 0 22.5 6t22.5 16q6 6 18 23q2 4 5.5 8t7.5 11t6 13q10 18 16 33q2 6 7.5 15.5t11.5 23.5q10 20 14 37q84 164 221 496q127 307 144 424q98 -2 98 -60q0 -8 -66 -180q-92 -240 -159 -395q-98 -224 -166 -332q-63 -90 -103 -125q-45 -39 -100 -39q-72 0 -127 49 q-53 47 -75.5 104.5t-22.5 96.5z" />
<glyph unicode="E" horiz-adv-x="1259" d="M109 408q0 98 71 178q74 82 211 131q4 -20 10 -31q-74 -45 -114 -113q-45 -74 -45 -141q0 -55 12 -104q14 -55 41 -107q31 -58 80 -98q49 -39 133 -68q80 -27 194 -26q41 0 66 4q41 6 90 20q57 16 107 53q55 41 88 97q0 -4 3 -17.5t5 -23.5q2 -8 3 -16.5t2 -12.5t1 -6 q-63 -57 -133 -86q-72 -31 -123 -37q-31 -4 -111 -4q-156 0 -286 43q-135 43 -219 137q-86 96 -86 228zM418 858q0 20 8 70q6 37 31 86q25 47 65 86q37 33 113 63q68 27 166 27q80 0 139 -21q63 -23 94 -47q34 -28 56 -61q20 -31 26 -55q6 -23 6 -35q0 -55 -39 -76 q-41 -23 -84 -23q-86 0 -86 21q0 8 13 10q8 2 28 2q23 0 29 2q41 10 51 29q10 20 10 43q0 51 -40 88q-41 39 -91 53q-45 14 -96 15q-66 0 -133 -25q-57 -20 -88 -55q-31 -34 -49 -80q-18 -45 -25 -82q-4 -23 -4 -74q0 -49 4 -90q12 -66 39 -113q37 -59 78 -88q37 -25 94 -24 q74 0 107 49q35 51 34 96q0 113 -159 113q-76 0 -150 -19l-2 31q74 18 152 19q111 0 180 -48q68 -46 68 -110q0 -61 -37 -103q-35 -39 -84 -51q-47 -12 -105 -12q-49 0 -90 14q-45 16 -53 23l-43 33q-70 55 -111 166q-22 85 -22 153zM1061 381q0 6 2 8q0 6 41 12q29 4 67 5 q10 0 11 -29q-12 -94 -19 -115q-10 35 -12 35q-10 0 -10 -70q0 -80 10 -102q12 -29 33 -29q29 0 45 25q4 4 4 6l2 -2h2q0 -2 -6 -14q-4 -8 -19 -23q-10 -10 -22 -10q-80 0 -88 86q-2 8 -5 27.5t-5 27.5q-2 10 -6.5 24.5t-4.5 18.5q-20 68 -20 119z" />
<glyph unicode="F" horiz-adv-x="2033" d="M217 1260q0 68 68 106q74 43 186 43q80 0 221 -43q143 -43 250 -88q121 -51 268 -90q154 -41 269 -41q135 0 268 8q70 6 268 41q193 35 252 35q51 0 105 -6q70 -8 106 -17q59 -12 90 -32q35 -23 35 -50q0 -12 -12 -32q-12 -23 -39 -23q-31 0 -59.5 16.5t-51.5 32.5 q-27 20 -98.5 34.5t-194.5 14.5q-59 0 -186 -26q-132 -28 -215 -31q-181 -6 -197 -6q-150 0 -315 43q-182 47 -283 92q-84 37 -247 92q-129 43 -218 43q-80 0 -139 -35q-55 -33 -55 -90q0 -102 78 -186q80 -86 207 -135q121 -47 264 -47q55 0 119 32q49 25 90 41l3 -1 q3 -1 7 -1h10h31q2 0 31 -4q23 -4 37 -8t36 -14q6 -2 12.5 -6t14.5 -9.5t12 -7.5q-25 -23 -110 -37q-94 -16 -205 -16q-126 0 -234 18q-100 16 -178 52q-82 35 -129 69q-55 40 -86 80q-27 35 -51 80q-23 43 -29 66q-6 25 -6 43zM451 268q0 51 36 82q39 33 66 35q18 2 57 2 q63 0 113 -25q47 -23 70 -59q23 -35 34 -63q10 -23 11 -45q-2 0 -9 -7q-4 -4 -12 -8t-16 -6t-23 -2q-34 0 -49 12q2 10 2 45q0 121 -115 121q-39 0 -67 -33q-27 -29 -27 -86q0 -74 115 -139q113 -63 244 -63q135 0 229 37q96 37 207 159q37 43 65 92l48 82q18 37 43 95 l16 35.5t12 25.5t4 10q86 168 224 508q14 0 43.5 1t42.5 3q12 -12 20 -33q-78 -195 -201 -477q-20 -45 -36.5 -78.5t-26.5 -56.5q-18 -39 -86 -139q-70 -102 -129 -162q-133 -131 -473 -131q-180 0 -308 84q-124 82 -124 184zM1298 494q16 47 45 79q31 33 66 37q18 0 64 -4 l-21 -39q-23 -6 -41 -20q-14 -12 -22 -35q-4 -12 -17 -29q-10 -14 -16 -14q-12 0 -33 12zM1665 526l14 29q123 -37 176 -37q49 0 74 10q27 10 41 25q4 4 29 37q6 8 13 19.5t11 15.5q45 -31 60 -56q-41 -43 -90 -63q-51 -20 -121 -21q-66 0 -207 41z" />
<glyph unicode="G" horiz-adv-x="1499" d="M109 -592q0 117 133 117q115 0 200 -70l21 -18q6 -8 18 -29l17 -24q18 -25 20 -52q-2 0 -2 -1q-2 -3 -4 -3t-6 -4t-6 -4q-4 -2 -20.5 -6t-22.5 -4q-31 0 -45 14q0 4 4 33q2 14 2 27q0 31 -31 71q-12 18 -45 31q-35 12 -63 12q-37 0 -61.5 -43t-24.5 -92q0 -47 22 -78 q27 -37 100 -71q121 -59 246 -60q86 0 162 37q43 20 94 86q49 61 98 160q55 109 91 188l98 230l96 225q18 39 141 334q10 20 27 65q10 27 21 43q16 23 40.5 23t47.5 -19q20 -18 20 -51q-4 -25 -8 -43q-6 -25 -10 -31q-2 -4 -19 -32q-12 -22 -18 -37q-25 -41 -62 -92 q-53 -98 -211 -449q-145 -326 -186 -401q-76 -147 -168 -207q-41 -20 -114.5 -38.5t-139.5 -18.5q-113 0 -260 65q-84 37 -139 96q-53 58 -53 121zM381 420q0 188 41 297q43 111 127 221q31 39 59 63q27 23 111 80q70 47 166 78q98 31 198 31q109 0 193 -25q86 -25 123 -59 q39 -35 59 -74q20 -37 21 -63q0 -25 -39 -119q-41 -88 -88 -150q-55 -72 -99 -108q-74 -63 -84 -72q-43 -33 -63 -41l-25 -10q-2 6 -4 11t-3 8.5t-3 5.5t-2 4v2q0 9 6 12l21 14l53 41q27 20 76 70q35 35 78 96q41 59 69 125q25 55 25 111q0 74 -58 125q-59 53 -190 53 q-100 0 -193 -29q-96 -31 -151 -65q-61 -41 -115 -97q-51 -53 -82 -100q-35 -53 -53 -94l-12 -35q-2 -6 -4 -11t-3 -9.5t-3.5 -7.5t-2.5 -5l-3 -11q-3 -11 -7 -21q-2 -4 -10 -39q0 -4 -3 -16.5t-5 -22.5q-8 -33 -10 -47q0 -4 -2.5 -22.5t-4.5 -31.5q-4 -23 -8 -63 q-3 -34 -6 -74q0 -71 31 -129q29 -55 76 -90q53 -39 102 -57q57 -20 108 -31q43 -8 95 -8q154 0 274 100l-39 -92q-100 -39 -235 -39q-68 0 -133 12q-74 14 -134 41q-68 31 -118 76q-47 41 -84 123q-33 72 -33 168z" />
<glyph unicode="H" horiz-adv-x="2158" d="M217 262q0 52 43 92q41 39 113 39q111 0 172 -59q66 -61 65 -127q-20 -20 -55 -21q-31 0 -45 15q0 20 6 39q8 25 8 30q0 29 -24 60q-18 18 -45 28.5t-58 14.5q-45 0 -75 -45q-29 -43 -29 -111q0 -53 92 -121q90 -66 240 -65q104 0 161 24q63 27 138 119q25 27 67 100 q59 100 119 218q68 133 115 210l135 263q-2 0 -9.5 -4.5t-20.5 -10.5l-27 -12q-47 -20 -84 -30.5t-76 -10.5q-109 0 -195 23q-83 22 -129 49q-41 25 -86 59q-37 29 -96 51q-53 20 -127 21q-55 0 -100 -22.5t-66 -57.5q-25 -41 -33 -76q-10 -41 -10 -78q0 -43 16 -80 q14 -33 41 -36q16 0 23 16q2 6 6 63q0 20 12 21q16 0 39 -14q27 -16 27 -27q0 -31 -31 -51q-33 -23 -69 -23q-53 0 -100.5 53.5t-47.5 116.5q0 76 78 154t207 78q74 0 141 -23q74 -25 113 -49l96 -61q47 -29 113 -52q61 -20 143 -20q39 0 92 16q51 16 82 33l100 55 q23 16 45 56q18 31 46 65q20 27 51 33q39 -4 49 -14q8 -8 8 -29q0 -33 -61 -88q-18 -16 -41 -58l-64 -127q-53 -106 -110 -204l-15 -25l-110 -190l-115 -203q-39 -70 -64 -98q-43 -55 -90 -88q-53 -37 -102 -48q-63 -14 -86 -16q-20 -2 -80 -2q-174 0 -301 84 q-125 82 -125 178zM668 606q0 31 16 76q25 41 86 63q65 25 129 25q129 0 281 -51l-15 -25q-129 47 -237 47q-88 0 -137.5 -43t-49.5 -80q0 -45 37 -100q35 -53 82 -53h10q2 0 7 1l4 1q20 2 20 33v6q0 12 2 14q14 8 35 8q8 0 25 -8q12 -6 12 -14q0 -12 -37 -35 q-35 -23 -66 -22q-72 0 -137 51q-67 53 -67 106zM1343 625l15 20q35 -12 115 -47q72 -33 133 -57l118 -47q123 -47 213 -48q94 0 103 35q4 10 6 27q0 4 1 8t1 6t1 5t1 5l10 21q4 8 21 16q8 4 33 4q23 0 35 -18t12 -37q0 -100 -211 -100q-111 0 -240 51zM1550 274 q0 49 66 191l76 -31q-68 -132 -68 -172q0 -113 84 -174q80 -59 205 -59q8 0 29 4q14 2 24 8q12 6 23 16l18 19q10 10 16 18q12 16 15 21q4 8 10 18q8 14 10 16.5t10 2.5q10 0 24.5 -14.5t27.5 -14.5q8 0 12 4l4 -2q-25 -45 -84 -86q-57 -39 -139 -39q-150 0 -256.5 69.5 t-106.5 204.5zM1663 555q108 187 344 516q25 35 47 57q18 18 43 35q12 8 37 17l25 8h12q55 0 90 -53q37 -55 37 -131q0 -20 -27 -21q-33 0 -33 43v27q0 66 -43 82q-27 0 -43 -9q-6 -2 -30 -34q-6 -8 -19 -21q-227 -322 -358 -545z" />
<glyph unicode="I" horiz-adv-x="1280" d="M217 928q0 80 74 143q76 66 190 66q74 0 148 -23q72 -23 114 -49q31 -20 99 -59q53 -31 88 -43q84 -27 166 -27q86 0 192 53q0 -15 -6 -31q-8 -23 -10 -24l-6 -10q-55 -16 -117 -17q-119 0 -199 21q-88 23 -133 51l-29.5 18.5t-19.5 11.5t-17.5 10t-25.5 17 q-41 27 -102 49q-55 20 -134 21q-58 0 -98 -25q-41 -25 -55 -63q-12 -31 -21 -66q-6 -25 -6 -45q0 -39 18.5 -90t51.5 -51q10 0 14 6q4 8 4 27v22q0 6 -1 13.5t-1 9.5q0 23 11 22q14 0 45 -18q29 -16 28 -37q0 -25 -22 -47q-27 -27 -70 -27q-51 0 -110.5 59.5t-59.5 131.5z M291 285q0 49 55 77.5t123 28.5q68 -4 111 -26.5t69 -59.5q23 -31 35 -59.5t12 -44.5q-20 -25 -57 -25q-29 0 -43 14q-4 12 -4 29q0 23 -4 51q-4 27 -15 45q-12 23 -36 35q-29 14 -68 15q-43 0 -70 -31q-27 -29 -26 -76q0 -57 33 -102q37 -49 79 -70q45 -20 103 -37 q43 -12 92 -16q45 -4 57 -4q113 0 160 34q82 61 170 236q86 170 174 389q78 195 119 273q16 27 35 90q16 57 41 94q20 33 71 45q22 0 43 -12q23 -12 23 -31q-10 -57 -31 -88q-53 -90 -137 -273l-145 -317q-68 -147 -138 -264q-74 -121 -131 -148q-121 -57 -250 -57 q-176 0 -313 88t-137 197z" />
<glyph unicode="J" horiz-adv-x="1439" d="M109 -573q0 47 57 77q55 29 123 29q61 -4 108 -27q49 -25 72 -59q27 -43 33 -59q10 -31 10 -45q-18 -25 -55 -25q-29 0 -45 14q-2 6 -2 29t-4 51q-4 23 -16.5 45.5t-37.5 34.5q-29 14 -63 14q-43 0 -72 -30q-27 -29 -27 -76q0 -57 33 -102q34 -46 80 -68q59 -27 103 -39 q47 -12 92 -16t57 -4q113 0 162 36q78 59 188 295q135 287 307 721q197 494 306 738l10 25q10 26 16 44q20 61 27 74q14 29 37 51q27 27 57 35q22 0 43 -12q23 -12 23 -31q-12 -59 -31 -88q-55 -95 -191 -406l-262 -612q-127 -305 -256 -561q-131 -258 -180 -281l-72 -30 q-25 -10 -67.5 -18.5t-114.5 -8.5q-164 0 -307 90q-141 89 -141 195zM379 928q0 80 72 143q76 66 190 66q74 0 147 -23q72 -23 115 -49q31 -20 98 -59q53 -31 89 -43q84 -27 165 -27q86 0 193 53q0 -20 -4 -31q-6 -15 -12 -24l-7 -10q-55 -16 -116 -17q-119 0 -199 21 q-88 23 -133 51l-29.5 18.5t-19.5 11.5t-17.5 10t-25.5 17q-41 27 -103 49q-55 20 -133 21q-55 0 -96 -25q-43 -27 -57 -63q-12 -31 -21 -66q-6 -25 -6 -45q0 -39 18.5 -90t51.5 -51q14 0 16 6q2 4 2 27v22q0 6 -1 13.5t-1 9.5q0 23 10 22q14 0 45 -18q29 -16 29 -37 q0 -25 -23 -47q-27 -27 -67 -27q-53 0 -113 60q-57 57 -57 131z" />
<glyph unicode="K" horiz-adv-x="2072" d="M217 862q0 29 14 58q18 35 43 63q29 31 84 53q57 23 121 23q90 0 176 -31q88 -31 146 -67q45 -29 137 -66q77 -31 147 -31q33 0 68 15q47 18 61 30l72 49l74 50q0 -4 -2 -14.5t-4 -14.5t-8 -27l-5 -10q-4 -2 -69 -43q-41 -25 -101 -51q-43 -18 -90 -19q-68 0 -147 31 q-76 29 -143 68q-70 39 -148 67q-86 31 -164 31q-55 0 -88 -16.5t-51 -47t-25 -61.5q-8 -41 -8 -63q0 -51 18.5 -94.5t53.5 -43.5q20 0 20 27q0 4 -4 29q0 4 -1 10t-2 9t-1 5q0 8 8 15q23 0 43.5 -10.5t26.5 -18.5q4 -6 8 -14q0 -35 -18.5 -51.5t-38.5 -22.5q-18 -6 -39 -6 q-53 0 -108.5 61t-55.5 129zM856 86q0 16 6 29q16 29 115 127q123 123 133 131q66 72 96 96l80 70q20 18 33.5 28.5t15.5 12.5l27 22q8 6 22 21q8 -2 21 -15q4 -4 8 -13t6 -13q6 -10 13 -23q-80 -92 -156 -149l-33 -23q-10 -6 -37 -29q-12 -10 -26 -30q-102 -162 -152 -285 q-14 -39 -61 -39q-37 0 -74 24.5t-37 57.5zM1229 524q37 61 80 211q43 154 80 226l2 4q2 4 4 11t4 13q4 8 7 22.5t5 18.5q10 16 22.5 47t39.5 70q18 27 57 37q29 -2 45 -17q12 -10 12 -24q0 -39 -57 -90q-43 -43 -74 -154q-2 -4 -4 -9t-9 -26.5t-20 -56.5q-20 -61 -32 -105 q23 0 65 -18q16 -10 60 -45q12 -8 18 -16q8 -10 16 -25q6 -10 15 -31q6 -15 12 -37q2 -4 5 -18t5 -20q0 -2 10 -46l5.5 -26.5t3.5 -18.5q2 -10 8 -47q2 -12 5 -27.5t3 -19.5q14 -78 23 -104q16 -57 28 -86q23 -51 41 -68q23 -20 55 -20q63 0 107 30l6 8q6 7 10 11 q14 14 23 18q12 6 27 6h36q27 0 43 4q8 2 27 21l2 -2q-49 -84 -102.5 -104.5t-165.5 -20.5q-61 0 -105 25q-45 25 -71 67q-27 41 -43.5 90t-28.5 111l-16 88q-4 29 -17 88q-8 41 -16 63q-16 43 -23 56q-23 39 -49 57q-18 14 -31 17l-4 -9q-4 -8 -4 -10q-18 -19 -145 -119z M1485 711l512 485q207 213 442 213q63 0 125 -10q53 -8 84 -25q27 -12 49 -33q20 -16 27 -30q6 -12 6 -25q0 -31 -29 -59q-27 -27 -104 -27q-80 0 -156 27q25 -4 72 -4q51 0 90 16q43 18 43 61q0 82 -176 82t-313 -127l-615 -591q-30 33 -57 47z" />
<glyph unicode="L" horiz-adv-x="1699" d="M109 213q0 37 8 61q10 33 39 64q27 31 77 55q51 27 134 41q88 16 194 17q266 0 506 -103q80 -41 145 -92q51 -41 84 -86q29 -41 41 -64q12 -25 33 -45q16 -16 41 -16q35 0 49 6q25 10 41 25l4 3q4 3 6 5q25 18 54 18h34q49 0 68 21l4 4l2 -2q-49 -84 -98 -104.5 t-166 -20.5q-49 0 -78 16q-25 14 -45 47q-8 16 -18.5 33t-18.5 33q-25 43 -73 86q-55 49 -142 92q-117 61 -229 86q-114 25 -191 25q-29 0 -86 -4q-31 -2 -100 -21q-55 -14 -98 -39q-49 -29 -74 -69q-29 -47 -29 -105q0 -61 58 -106q53 -41 153 -41q78 0 156 33 q88 37 145 84q65 52 105 92t74 80q57 -25 94 -43q-39 -51 -76 -84q-39 -35 -111 -89q-70 -51 -166 -77q-102 -29 -204 -29q-141 0 -242 59q-104 62 -104 154zM963 580l120 67l-18 -29q-94 -38 -102 -38zM981 416l149 227q88 154 127 201q68 90 152 174q88 88 162 127 q92 45 162 45q27 0 39 -21q12 -23 12 -43t-12 -41q-14 -25 -39 -47l-56 -47q-8 -8 -69 -51q-16 -12 -70 -45l-76 -47l-63 -39l45 61q188 121 252 174q53 43 53 86q0 16 -20 17q-57 -10 -107 -41q-52 -34 -80 -62q-27 -27 -69 -81q-4 -4 -9 -10l-4 -5q-35 -41 -84 -112 q-53 -78 -63 -91q-15 -22 -99 -159q-90 -150 -131 -209q-47 25 -102 39z" />
<glyph unicode="M" horiz-adv-x="3174" d="M217 1206q0 72 57 140q55 63 156 63q55 0 129 -25q68 -23 109 -49l147 -98q139 -96 176 -119q190 -119 287 -119q31 0 106 33l172 74q92 39 187 59q111 25 213 25q51 0 92 -6t90 -25q47 -18 90 -63q37 -39 64 -113q-28 -12 -80 -55q4 29 4 41q0 86 -55.5 141t-184.5 55 q-109 0 -250 -51q-111 -41 -163 -63l-113 -45q-57 -20 -74 -25q-35 -8 -80 -8q-39 0 -59 4q-8 2 -26.5 5t-29 5t-55.5 21q-31 12 -49 20q-16 8 -47 27l-41 24q-2 2 -15 10.5t-24 14.5l-14 9t-12 8l-4 3l-62 43l-127 88q-72 45 -151.5 84t-139.5 39q-37 0 -69 -22 q-31 -20 -43 -58q-18 -49 -21 -61q-6 -29 -6 -47q0 -76 41 -135.5t98 -59.5q28 0 37 19l72 -17l-8 -16q-6 -12 -13 -23q-4 -10 -14 -22q-2 -4 -7 -11l-7 -10q-8 -8 -17 -8q-117 0 -190 97q-76 98 -76 202zM248 307q0 33 39 72q35 35 121 35q61 0 118 -27q51 -25 76 -61 q16 -27 35 -66q10 -23 10 -45q-18 -16 -55 -16q-31 0 -41 12q-6 25 -6 45q0 33 -6 57q-6 27 -33 47q-31 25 -84 27q-45 0 -71.5 -45t-26.5 -94q0 -84 122.5 -151.5t245.5 -67.5q117 0 205 45q94 49 227 170q117 111 215 233q88 111 150 215q43 74 90 182.5t51 122.5 q2 10 8.5 27.5t8.5 26.5q121 41 133 41q2 -6 2 -25q0 -8 -21 -61q-37 -92 -69 -160q-57 -113 -121 -221q-68 -114 -185 -246q-113 -129 -247 -232q-147 -96 -228 -122q-74 -25 -215 -25q-129 0 -231 51q-106 53 -174 133q-43 49 -43 123zM1667 37q0 59 53 170 q49 100 127 211q100 137 150 200l127 154l53 59q41 53 125 121q6 4 22.5 13.5t28.5 17.5q119 74 160 96q72 37 133 62q84 33 166 41q76 8 213 8q49 0 123 -12q86 -14 151 -15q68 0 72 -30q-20 0 -88 -13q-96 -16 -113 -20q-53 -12 -116 -37q-80 -31 -146 -78l-12 -10 q-4 -4 -14.5 -13.5t-18.5 -17.5l-45 -47q-2 -4 -23.5 -26.5t-31.5 -34.5l-58 -76q-41 -59 -55 -86q-29 -51 -47 -96q-16 -37 -31 -103q-12 -55 -12 -104q0 -104 18 -172q18 -70 60 -107q39 -35 94 -51q51 -14 137 -14q43 0 70 12q33 14 41 24q12 16 29 27q18 12 34 12h35 q27 0 37 2q12 2 16 7l4 3q4 3 7 5q6 6 6 8l4 -2q-37 -70 -94.5 -98.5t-135.5 -28.5q-2 0 -9 1t-11 1h-20q-219 0 -319.5 88t-100.5 301q0 90 37 189q39 102 86 170q61 88 102 135q59 70 86 92l37 31q82 61 176 92q98 33 221 53q-41 6 -178 6q-163 0 -313 -55 q-147 -55 -254 -129q-111 -78 -193 -166q-27 -27 -127 -141q-43 -49 -98 -123l-78 -105l-45 -61q-20 -31 -70 -129q-47 -92 -55 -131q111 139 152 196q6 14 28 43q43 57 52 72q29 49 36 66q88 123 187 213q-45 -109 -115 -244q-76 -143 -164 -268q-98 -139 -182 -195 q-72 0 -96 6q-27 6 -27 31z" />
<glyph unicode="N" horiz-adv-x="2217" d="M109 264q0 39 18 65.5t45 39.5q31 14 51 16q14 2 37 2q199 0 238 -180q0 -27 -49 -27q-31 0 -52 13q4 37 4 49q0 111 -118 110q-31 0 -56 -10q-18 -8 -28.5 -30.5t-12.5 -39.5q-2 -12 -2 -45q0 -55 68 -100q72 -49 151.5 -71.5t153.5 -22.5q61 0 84 2q41 4 96 20 q57 16 115 51q51 31 127 96.5t141 155.5q86 119 156 232q86 141 168 317q25 61 29 66q4 8 22 51q4 10 8 18.5t6 14.5q2 2 7 22q4 16 4 18.5t1 7.5t1 11v23q6 20 26 35q23 16 41 16q27 0 47.5 -10.5t22.5 -18.5q4 -12 4 -14q0 -4 -4 -16.5t-8 -18.5q-2 -2 -5 -8l-4 -6 q-18 -57 -63 -160q-2 -2 -20 -49l-48 -113q-29 -68 -75 -149q-57 -102 -105 -170q-61 -90 -139 -168q-90 -90 -172 -148q-88 -61 -211 -102q-117 -39 -248 -39q-188 0 -321 86q-131 86 -131 178zM324 932q0 55 30 94q27 35 82 59q41 18 99 29q43 8 102 8q94 -2 168 -24 q68 -20 113 -58q35 -29 71 -69q35 -39 60 -72q27 -37 61 -55q41 -23 90 -23q25 0 94 33q53 25 121 72l-24 -54q-117 -80 -189 -79q-61 0 -112.5 22.5t-77.5 54.5l-66 74q-34 40 -67 74q-33 33 -96.5 55.5t-141.5 22.5q-115 0 -166 -45q-53 -47 -53 -115t37 -129.5t80 -61.5 t71 15q25 12 29 28q0 4 1 14.5t3 14.5q4 12 8 12q16 0 35 -16q23 -18 23 -37q0 -10 -11 -24q-10 -12 -45 -23q-31 -8 -92 -8q-102 0 -168 63q-69 66 -69 148zM1606 897q35 76 51 127q8 -27 47 -96l111 -195q86 -150 163 -307q63 -102 82 -152q29 -115 29 -120 q0 -61 -35 -109q-33 -45 -65 -45q-31 0 -72 27q-37 25 -37 77q0 12 22.5 80t26.5 74q9 -18 19 -18q12 0 12 24q0 18 -12 41zM1991 479q96 434 272 678q180 250 360 252q131 0 203 -20q70 -20 111 -70l4 -5l11 -13.5t16 -16.5q-4 -10 -27 -16q-25 -6 -39 -6q-18 0 -27 6 q-12 8 -26 24q-25 29 -33 37q-51 51 -147 51q-74 0 -166 -69q-86 -66 -172 -197q-84 -127 -154 -328q-66 -188 -104 -444q-41 76 -82 137z" />
<glyph unicode="O" horiz-adv-x="1333" d="M162 393q0 227 92 412q88 178 248 282q152 100 340 101q154 0 264 -74q113 -76 113 -160q0 -53 -66 -190t-141 -219q-31 -31 -70 -49q-46 -22 -80 -31l-35 -10h-6v14q0 10 25 20q8 4 28.5 11.5t32.5 11.5q31 12 70 43q61 55 108.5 178t47.5 246q0 45 -33 84 q-27 33 -78 53q-41 16 -86 27q-35 8 -64 8q-145 0 -262 -68q-115 -68 -190 -182q-78 -121 -117 -262q-41 -152 -41 -315q0 -74 47 -133.5t117 -90.5q76 -33 141.5 -47t132.5 -14q115 0 213 53q102 55 166 137q61 80 113 179q47 90 70 172q20 74 20 125q0 90 -35 153 q-6 10 -6 21q0 4 4 24q4 31 6 33q2 8 2 29q4 -4 11 -7q47 -39 57 -51q23 -27 39 -71q18 -53 18 -125q0 -74 -18 -160q-16 -78 -68 -186q-46 -98 -116 -179q-74 -82 -187 -133q-119 -53 -260 -53q-68 0 -141 12q-76 12 -152 43q-74 31 -137 74q-51 37 -98 115q-39 65 -39 149 z" />
<glyph unicode="P" horiz-adv-x="2170" d="M217 1260q0 63 72 106q71 43 160 43q98 0 208 -33q100 -29 248 -86q150 -57 277 -86q162 -39 317 -39q70 0 180 13q92 10 168 10q184 0 303 -119q117 -117 117 -299q0 -55 -14 -100q-16 -51 -49 -97q-35 -49 -103 -75q-70 -29 -162 -29q-123 0 -282 61l18 35q2 0 6.5 -2 t10.5 -3t10 -3l24 -8l7 -3q6 -3 16 -5q6 -2 13 -4t10 -2q4 -2 20 -7q12 -2 20 -4q12 -4 23 -4q6 0 12 -1t11 -1h22q41 0 62 2q31 3 73 19q39 14 78 39q33 20 55 69q25 53 25 109q0 23 -8 80q-6 43 -31 98q-25 53 -63 96q-39 41 -109 72t-162 31l-155 -5q-203 0 -402 31 q-115 23 -285 82l-274 96q-115 39 -192 39q-76 0 -135.5 -32.5t-59.5 -92.5q0 -80 59 -147q57 -66 151.5 -115t182.5 -71q96 -25 168 -25q63 0 127 32.5t105 32.5q106 0 180 -49q-25 -23 -121 -37q-92 -14 -201 -14q-158 0 -295 39q-141 39 -231 100q-98 66 -150 131 q-55 73 -55 132zM348 225q0 31 25 74q33 55 131 96q100 41 250 41q143 0 247 -16q117 -18 166 -31q14 -4 35 -9t49.5 -14.5t51.5 -15.5l-25 -28q-106 33 -160 47q-47 14 -139 26q-90 12 -188 13q-139 0 -211 -17q-66 -14 -123 -59q-49 -37 -49 -86q0 -197 374 -217 q23 0 45.5 2t44.5 2q12 0 43 6q43 8 48 10q6 2 17 6l30 11q47 18 55 24l53 35q45 29 62 45q14 12 29.5 28.5l33.5 34.5q51 47 76 76q6 12 10 17l12 12q68 80 86 104q37 49 74 109q59 90 62 94q33 51 55 96l41 84l37 84l28 72q2 2 6.5 13.5l9.5 24.5l11 28q18 49 21 51 q14 2 40 2q31 0 46 -2q14 -14 22 -31q0 -2 -4 -11t-12.5 -26.5t-16.5 -36.5l-39 -90q-2 -4 -39 -86l-49 -98q-10 -20 -47 -86q-10 -18 -53 -88l-16 -25l-17 -24q-2 -2 -4 -7.5t-8 -13.5l-9 -13t-7 -9l-19 -25l-18 -25q-2 -4 -9.5 -10t-13.5 -16q-25 -31 -26 -33l-31 -35 l-27 -30q-78 -78 -170 -152q-78 -61 -143 -86q-63 -23 -113 -33q-41 -8 -104 -8h-58q-119 0 -219 23q-92 20 -141 53q-53 35 -78 65q-29 33 -35 58q-6 22 -6 26zM1430 72v4q14 -4 30 -15q25 -14 53 -22q35 -10 66 -10q113 0 113 59q0 23 -4 31q-6 12 -27 33q-16 16 -74 47 q-51 27 -133 63l27 31q2 0 4 -2t10 -6l72 -31q12 -6 61 -35q45 -27 58 -39q18 -18 32 -41q16 -27 17 -49q0 -53 -41 -72q-39 -18 -115 -18q-29 0 -66 18q-45 23 -61 35z" />
<glyph unicode="Q" horiz-adv-x="1318" d="M162 393q0 227 92 412q88 178 248 282q152 100 340 101q150 0 262 -80q115 -80 115 -154q0 -53 -64 -192q-61 -135 -137 -217q-33 -37 -103 -64q-68 -27 -94 -26v14q0 10 23 20l61 23q35 12 68 43q61 53 102 178q39 119 39 252q0 51 -45 92q-47 43 -92 58q-53 16 -82 16 q-150 0 -274 -66q-121 -63 -199 -178q-80 -119 -119 -258q-41 -147 -41 -311q0 -63 47 -127q43 -57 117 -96q68 -35 143 -58q70 -20 131 -20q111 0 213 49q100 49 166 127t115 170q47 90 70 174q20 80 20 148q0 94 -33 153l-4 8q0 6 6.5 37t6.5 53q2 -2 8 -6q4 -4 12 -8 l12 -12q12 -12 17 -19q2 -4 8 -10t8 -10q10 -12 16 -27l15 -28q2 -6 5 -18.5t5 -18.5q4 -12 8 -41t4 -47q0 -74 -18 -160q-16 -78 -68 -186q-46 -98 -116 -179q-74 -82 -187 -133q-119 -53 -260 -53q-82 2 -137 12q-80 15 -154 43q-72 27 -137 74q-63 45 -100 113 q-39 71 -39 151zM569 -147q0 18 33 57q35 43 37 47q-41 25 -43 27l109 -15q-66 -61 -72 -71q8 -4 12 -4q6 0 27 10q12 6 57 16q35 8 98 8q201 0 330 -67l78 -45q27 -16 68 -37q0 -12 -13 -23q-16 -12 -24 -14l-11 -4q-10 0 -41 18l-35.5 19.5t-48.5 27.5q-61 37 -100 54 q-94 41 -215 41q-74 0 -119 -13q-47 -12 -78 -30q-29 -16 -43 -21q-6 13 -6 19z" />
<glyph unicode="R" horiz-adv-x="2502" d="M217 1262q0 61 67.5 104t166.5 43q76 0 217 -43q129 -39 276 -96q150 -57 293 -96q160 -43 266 -44q80 0 178 13q82 10 160 10q182 0 309 -100.5t127 -266.5q0 -80 -65.5 -143t-165.5 -100q-8 12 -55 57q182 86 182 217q0 20 -10 57q-9 34 -37 74q-31 45 -68 76t-102 53 q-68 23 -146 23h-28l-271 -10q-106 0 -346 71q-174 51 -440 144q-209 72 -238 71q-86 0 -139 -35q-51 -33 -51 -90q0 -72 47 -133t119 -102q78 -45 149 -72q80 -31 143.5 -43t96.5 -12q59 0 123 33q57 31 94 41q76 0 111 -9q39 -8 90 -41q-25 -25 -121 -39q-92 -14 -207 -14 q-102 0 -180 14q-135 27 -238 70q-100 43 -172 105q-65 55 -98 110q-37 60 -37 103zM375 268q0 37 39 76q41 41 108 41q89 0 142 -37q51 -37 94 -100q20 -39 20 -47v-2q-20 -20 -55 -21q-34 0 -43 12q-2 6 -2 21q0 2 1 7t1 9v19q0 39 -27 69q-25 28 -49 37q-16 6 -49 10 q-37 0 -61 -28q-23 -25 -33 -58q-8 -25 -8 -49q0 -61 71 -110q72 -51 158 -72q82 -20 158 -20q303 0 546 331q139 186 359 658q12 29 24 53q5 1 11 1q3 0 11 -0.5t13 -0.5q2 0 7.5 0.5t9.5 0.5q6 0 12 -1q12 -2 22 -2q16 -16 23 -33q-29 -57 -51 -108q-14 -35 -41 -88 l-33 -66q-14 -31 -24.5 -49.5t-18.5 -34.5l-12 -24q0 -2 -2 -5.5t-4 -5.5t-2 -4l-4 -8l-2 -2q-1 -2 -1 -4t-1 -3l-1 -3q45 27 88 26q113 0 183 -69q31 -27 51 -56q29 -35 51 -125q16 -72 29 -170q8 -72 39 -143q27 -61 78 -61q61 0 102 30l16 17q10 12 27 20q12 6 27 6h36 q25 0 35 2q14 2 21 7q4 2 8 10q3 6 6 6l2 -2q-53 -84 -108 -102q-63 -23 -160 -23q-102 0 -168 86t-80 244q-16 164 -94 233q-18 18 -64 19q-63 0 -63 -21q33 -8 74 -8h18q41 -63 41 -66q-53 -4 -74 -4q-39 0 -84 17q-31 10 -61 32l-23 17q-223 -342 -350 -445 q-109 -88 -276 -100q-74 -4 -189 -4q-169 0 -307 86q-137 86 -137 182z" />
<glyph unicode="S" horiz-adv-x="1069" d="M109 254q0 35 12 59q10 20 34.5 34.5t37.5 17.5q25 4 34 4q59 0 106.5 -18.5t72.5 -43.5q33 -33 45 -51q18 -29 24 -45q6 -18 6 -25q-18 -18 -49 -18q-35 0 -45 10q-2 2 -2 19l1 2q1 2 1 4v28q0 43 -37 78q-39 35 -92 35q-78 0 -78 -135q0 -66 103 -119q101 -52 239 -61 h33q23 0 68 8q37 6 77.5 18.5t85.5 41t76 71.5q57 72 58 151q0 41 -19 95q-16 49 -41 96l-69 129l-78 149q-66 131 -66 240q0 88 43 125q45 39 107 39q47 0 80 -37q33 -35 32 -82q0 -35 -20 -74q-10 -18 -47 -55t-45 -47l-27 74q47 53 47 96q0 23 -14 39q-16 18 -27 18 q-23 0 -39 -34q-12 -27 -12 -66q0 -51 43 -162q16 -47 84 -162q74 -125 119 -225q49 -111 49 -192q-4 -102 -51 -156q-63 -82 -152 -104q-90 -23 -221 -23q-180 0 -291 49q-115 51 -155 105q-41 41 -41 100zM317 575q100 90 195 158q90 63 127 111l18 -49l-73 -47 q-4 -2 -40 -24l-59 -36l-166 -115z" />
<glyph unicode="T" horiz-adv-x="1679" d="M217 1260q0 61 65.5 104t149.5 43q121 0 268 -41q139 -39 252 -90q100 -45 250 -88q145 -41 266 -41q123 0 361 51q248 53 412 53q76 0 139 -8q78 -10 137 -33q66 -25 66 -61q0 -27 -15 -41q-16 -16 -33 -16q-31 0 -59 16q-25 14 -53 33q-31 20 -109 34.5t-207 14.5 q-53 -4 -190 -39q-135 -35 -180 -39q-4 0 -15.5 -1t-33 -2t-39.5 -1q-94 -4 -109 -4q-162 0 -328 43q-176 45 -276 90q-106 47 -238 92q-126 43 -215 43q-35 0 -45 -2q-41 -6 -96 -35q-49 -27 -49 -80q0 -174 268 -299q63 -27 144 -43q82 -16 124 -16q41 0 76 10 q31 10 70 29q41 20 67 29h15h6q100 0 174 -50q-18 -16 -139 -38q-86 -10 -174 -11q-92 0 -181 17q-150 25 -268 88q-94 43 -155.5 106.5t-81.5 108.5q-21 43 -21 74zM420 258q0 74 45 96.5t131 22.5q51 0 88 -19q41 -20 59.5 -38.5t32.5 -51.5q16 -39 19 -47q4 -25 4 -31v-2 q-20 -20 -56 -20q-27 0 -41 12q0 4 -2 11q-2 8 -2 10v35q0 47 -38.5 81.5t-81.5 34.5q-94 0 -95 -141q0 -53 119 -119q115 -63 236 -63q150 0 235 34q82 33 209 148q70 78 150 235q90 180 184 398q100 231 102 233q39 0 82 8q16 -16 25 -36q-49 -90 -139 -291 q-92 -205 -179 -367q-90 -168 -186 -264q-98 -84 -193 -104q-100 -23 -237 -23h-49q-260 0 -389 154q-33 38 -33 104z" />
<glyph unicode="U" horiz-adv-x="2199" d="M205 856q0 33 12 57q18 35 43 64q29 31 84 53q57 23 123 23q74 0 131 -19q51 -16 98 -45l78 -51q41 -25 88 -43q43 -16 111 -16q23 0 35 2q25 4 39 10q6 2 17 6t15 6q20 10 39 21l37 20q2 0 43 27q8 4 15.5 9t11.5 8l8 6t6 3l-16 -63l-6 -3l-16.5 -8t-20.5 -12 q-33 -20 -52 -26l-15 -7.5t-30 -13.5q-35 -14 -59 -16q-37 -4 -55 -4q-70 0 -135.5 26.5t-112.5 61.5q-37 29 -119 59q-74 29 -147 29q-52 0 -86 -19q-35 -18 -49.5 -46.5t-20.5 -57.5q-4 -18 -4 -66q0 -57 16 -96q18 -41 54 -41q20 0 20 29q0 12 -2 25q-4 25 -4 26 q0 10 6 14q23 0 43 -10q23 -10 27 -18l10 -15q0 -31 -21 -51q-23 -23 -38 -24q-25 -4 -39 -4q-53 0 -109 61q-53 59 -53 129zM981 313q0 41 25 115q23 68 49 121l20 39t27.5 52l46.5 87l106 207q6 27 23 72q15 40 49 92q31 47 74 57q61 -9 61 -43q-2 -35 -43 -88 q-18 -27 -26.5 -37t-18.5 -24.5t-12 -16.5q-10 -12 -21 -37q-20 -47 -90 -168q-74 -129 -129 -260q-53 -125 -53 -213q0 -240 211 -239q71 0 184 73q113 74 242 193q29 27 86 106q70 98 125 197q66 115 115 254t49 248q0 20 -4 24q-84 -90 -203 -333q-125 -256 -125 -381 q-35 -53 -57 -72q-6 25 -6 47q0 78 63 244q61 162 154 323q90 158 153 195q18 8 43 8q61 0 62 -108q0 -100 -58 -250q-51 -135 -131 -265q-80 -131 -141 -210q-66 -88 -100 -115q-121 -98 -195 -144q-63 -39 -115 -51q-53 -12 -151 -12q-45 0 -92 12q-41 10 -93 45 q-49 33 -75 97q-29 67 -29 159zM1743 170q18 14 51 51q6 -25 16 -55q6 -18 22.5 -51t31.5 -47q12 -12 41 -27q25 -12 53 -12q45 0 76 30q27 27 47 62q18 31 26 31q12 0 26.5 -14.5t27.5 -14.5q4 0 12 4l2 -2q-25 -47 -82 -86t-141 -39q-49 0 -88 16.5t-61.5 45t-37.5 53.5 q-2 2 -22 55z" />
<glyph unicode="V" horiz-adv-x="944" d="M109 621q2 2 6 5t10 10t18 19q14 14 39 45q45 51 84 123q2 -12 23 -43q-29 -35 -99 -96q-4 -4 -40 -33zM262 1018q0 29 10.5 59.5t22.5 55.5q29 53 78 59q61 0 98 -37t37 -76q0 -40 -12 -67t-45 -70q-10 -14 -25.5 -30.5t-17.5 -20.5q-8 6 -17 22q-2 4 -8 29l-4 12 q39 51 39 97q0 66 -31 65.5t-43 -33.5q-12 -34 -12 -61q0 -35 16 -111q20 -53 47 -92l148 -211q33 -45 90 -207q-29 -55 -78 -129q0 10 -1 24.5t-2 23t-1 12.5q-4 33 -27 110q-18 65 -43 105l-86 131l-62.5 96.5t-19.5 32.5l-12 18q-10 16 -16 37q-4 14 -15 60q-8 39 -8 96z M440 39q0 6 6 8q2 2 7.5 5t7.5 5t6 3t4 3q35 23 84 119l94 170q125 201 242 312q193 186 192 344q0 57 -16 90q-18 39 -55 39q-18 0 -35 -15q-18 -16 -25 -26q-2 -4 -7 -17.5l-9 -23.5q-12 -27 -14 -29q6 133 90 164q90 -6 137 -43q45 -37 51 -156q-4 -158 -217 -344 q-129 -117 -264 -338q-18 -31 -35 -69q-16 -41 -25 -58q0 -8 -16 -57q-20 -63 -35 -82q-31 -43 -63.5 -43t-69.5 12q-35 13 -35 27z" />
<glyph unicode="W" horiz-adv-x="2551" d="M217 893q0 88 82 147.5t178 59.5q82 0 133 -17q61 -20 95 -41q49 -33 71 -49q34 -25 80 -43q41 -16 111 -16q121 0 252 70q-10 -23 -45 -76q-76 -20 -164 -21q-43 0 -97 4q-33 2 -67 15q-33 10 -45 18q-27 16 -43 29q-23 16 -45 28q-74 45 -117 60q-37 12 -96.5 12 t-98.5 -20.5t-57 -55.5q-18 -33 -25 -65q-8 -41 -8 -64q0 -57 21 -98q16 -37 49 -37q18 0 18 31q0 12 -2 24.5t-2 24.5v10q0 8 13 8q14 0 34 -12q18 -10 37 -28q2 -2 2 -13q0 -23 -26.5 -43t-67.5 -20q-59 0 -115 57q-55 60 -55 121zM897 254q0 74 35 178q35 102 82 186 q61 106 96 160q63 96 82 119l33 45q25 33 37 66q12 31 18 55l10 31q25 53 80 69h16q9 0 25 -12t16 -31q-10 -57 -36 -88q-20 -14 -45 -61q-6 -10 -11.5 -20.5t-8.5 -15.5l-6 -10t-3 -7l-37 -50l-82 -120q-45 -68 -102 -173q-43 -78 -82 -184q-35 -96 -35 -176 q0 -186 227 -186q129 0 385 243q15 -55 31 -86q-29 -23 -37 -26q-133 -98 -196 -127q-72 -33 -172 -33q-166 10 -242 76q-78 67 -78 178zM1616 385q0 152 98 346q98 193 232 275q20 12 41 12q51 0 51 -86q0 -170 -307 -625q-12 31 -25 92q281 410 281 557q0 12 -11 23 q-100 -66 -202 -248q-102 -180 -103 -309q0 -43 31 -154q66 -238 176 -237q76 0 188 80q139 94 287 272q143 174 238 352q92 175 92 277q-2 57 -43 104q-39 45 -90 45q-68 0 -99 -33q-31 -35 -30 -108q0 -37 12 -57q14 -23 33 -35q29 -18 33 -23q14 -12 14 -18 q0 -14 -14 -29q-12 -12 -29 -12q-29 0 -80 57q-53 59 -53 113q0 16 10 47q8 27 31 57q18 27 65 49q43 20 105 21q78 0 149.5 -55.5t71.5 -112.5q0 -31 -19 -98q-16 -61 -65 -172q-43 -98 -114.5 -215t-180.5 -238q-117 -131 -250 -227q-109 -72 -264 -72q-27 0 -51 6 q-20 4 -43 21q-4 2 -16.5 10l-18.5 12q-23 18 -31 30.5l-20.5 33t-16.5 32.5q-2 6 -7 15.5t-5 11.5q-3 9 -6 25l-4 14q-41 119 -41 174z" />
<glyph unicode="X" horiz-adv-x="1251" d="M109 199q0 6 4 22q15 -52 43 -86q31 -37 63 -49l57 -16q22 -6 43 -7q57 0 125 52q61 47 121 131q51 74 101 164q53 98 82 165l79 -20q-86 -190 -106 -229q-12 -23 -49 -76t-86 -109q-47 -51 -113 -98q-61 -43 -113 -43q-70 0 -127 23q-53 20 -77.5 55t-36.5 63 q-10 27 -10 58zM246 928q82 123 166 192q82 66 211 70q88 0 159 -53q70 -51 88 -162q-18 -31 -28 -57q-6 -16 -13.5 -31t-13.5 -29l-8 -27q-2 98 -23 170q-18 68 -49 99q-27 27 -55 41q-20 10 -53 10q-74 0 -138 -31q-66 -31 -96 -61q-39 -39 -69 -80q-37 -49 -41 -53z M606 596q31 37 74 37q25 0 98 -19q68 -16 109 -20q22 0 37 6q10 4 39 25q25 16 26 18q2 0 10 -8l8 -8l3 -4q-10 -4 -29 -19q-16 -10 -39 -20q-15 -6 -31 -6q-29 0 -116 20q-80 18 -95 18q-27 0 -47 -16q-16 -14 -20 -14zM725 264q18 23 35 49q12 20 31 58l12 24 q-2 -29 -2 -51q0 -301 188 -301q31 0 55 6q20 4 35 12q10 4 35 21q16 10 37 20q51 4 76 25l2 -2q-25 -45 -92 -84q-70 -41 -150 -41q-63 0 -121 27q-53 25 -80 69q-31 51 -41 84q-16 51 -20 84zM778 649q59 160 105 256q164 285 354 285q123 0 211 -62q37 -33 43 -43 q9 -15 18 -49q-10 -18 -18 -18q-20 0 -51 49q-76 82 -170 82q-70 0 -129 -59q-100 -90 -152 -177q-53 -90 -131 -284q-19 6 -80 20z" />
<glyph unicode="Y" horiz-adv-x="2095" d="M217 922q0 88 82 145q84 59 178 59q88 0 152 -20q72 -23 119 -49l96 -58q41 -23 112 -47q61 -20 140 -20q59 0 102 18q41 16 107 62q-10 -37 -27 -68q-98 -43 -158 -43q-104 0 -178 21q-76 20 -125 49q-43 25 -92 59q-35 25 -100 49q-55 20 -127 21q-59 0 -101 -25 q-43 -27 -57 -59q-16 -41 -23 -66q-6 -29 -6 -53q0 -53 21 -94q22 -43 49 -43q18 0 18 28v27q0 4 -1 15.5t-1 19.5t13 8q14 0 45 -18q29 -16 28 -35q0 -31 -18 -43q-29 -33 -78 -33q-63 0 -116.5 66t-53.5 127zM651 -578q0 37 29 72t94 35q121 0 207 -70q22 -18 49 -55 q31 -41 31 -63q-16 -23 -60 -23q-33 0 -49 14q2 8 2 58q0 31 -22 71q-18 15 -49 31q-29 14 -52 14q-37 0 -65 -43q-29 -45 -29 -90q0 -98 123 -153q51 -23 125 -39q76 -16 115 -17q115 0 182 48q74 51 107 104q12 20 88 176q94 193 186 406q106 246 147 401q188 616 218 692 q61 162 126 191q18 8 48 8q59 0 59 -129q0 -5 0.5 -16t0.5 -16q0 -10 -1 -17q-4 -35 -20 -94q-25 -88 -48 -144q-41 -98 -92 -188q-72 -127 -149 -238q47 168 53 193q70 111 129 280q53 152 53 301q0 18 -8 25q-23 -29 -49 -84q-27 -57 -55 -145l-52 -164l-65 -234l-72 -258 q-31 -111 -166 -436q-133 -322 -276 -580q-20 -35 -98 -65q-76 -29 -238 -39q-138 3 -264 55q-96 47 -146 105q-47 52 -47 120zM1083 362q0 27 11 72q10 43 22 78q10 27 41 96l47 101l64 127l67 135q27 59 33 86q6 31 35 76q27 43 76 55q16 0 28 -6q12 -2 35 -29t23 -37v-2 q0 -6 -11 -16q-12 -12 -18 -15l-8 -4q-4 23 -12.5 23t-88.5 -160l-106 -205q-76 -141 -92 -176q-29 -61 -47 -127q-25 -88 -25 -145q0 -72 27 -131q27 -57 61.5 -82t71.5 -37q29 -10 63 -10q135 0 373 215l-47 -138q-84 -59 -141 -81q-61 -25 -156 -25q-86 0 -149 31 q-66 31 -96.5 73.5t-51.5 98.5q-22 58 -25 92q-4 44 -4 67z" />
<glyph unicode="Z" horiz-adv-x="1734" d="M109 215q0 37 8 61q10 33 39 64q33 35 77 55q59 25 134 39q92 16 196 17q188 0 402 -66q45 -10 102 -39q95 -58 147 -104q49 -43 86 -90l43 -56q37 -37 107 -37q20 0 35 7q23 8 24 10q10 6 29 22q6 6 41 29q35 0 59 -4q37 -6 43 -6q18 0 29 10l2 -2q-16 -35 -55 -59 q-39 -23 -121 -56q-27 -10 -125 -10q-61 0 -98 16q-33 14 -56 47q-4 8 -36 66q-18 33 -66 84q-53 57 -115 94q-49 29 -98 47q-53 20 -143 41q-57 12 -123 23q-29 4 -60 4q-78 0 -131 -10q-63 -12 -125 -37q-57 -23 -96 -76q-37 -49 -37 -117q0 -16 9 -32q10 -20 30.5 -47 t69.5 -46q43 -16 117 -16q109 0 245 94q135 94 222 189q20 -8 41 -19q16 -8 36 -20l17 -11q-98 -113 -269 -194q-166 -80 -288 -80q-133 0 -242 61q-106 62 -106 154zM559 938l191 225q25 29 47 29q28 0 67 -25l90 -55q45 -29 152 -65q104 -37 240 -56l-23 -24 q-113 18 -236 53q-113 33 -186 59l-74 27q-6 0 -96 -119q-88 -117 -110 -117q-25 0 -62 68zM985 418l82 137l88 145q35 55 88 123q78 98 117 138q23 23 26 24q70 72 177 135q104 61 206 62q63 0 64 -80q0 -45 -31 -78q-29 -31 -80 -47q-49 -15 -98 -25q-43 -8 -102 -8h-19 l21 33h16q223 0 223 137q0 39 -18 39q-25 0 -41 -6q-41 -14 -66 -29q-37 -20 -86 -65q-45 -43 -90 -107q-131 -172 -186 -256q-43 -66 -96 -160q-47 -84 -95 -151q-57 25 -100 39z" />
<glyph unicode="[" horiz-adv-x="612" d="M29 -270l2 11q2 11 7 36.5t11 52.5l62 285q43 207 82 366l34 148l68 280l55 238l2 1q2 1 8.5 3l12.5 4q6 6 8 16q94 -2 227 -2q12 0 150 11q-6 -20 -15 -31q-12 -16 -16 -20.5t-4 -8.5v-2q-86 -6 -162 -6q-35 0 -63.5 2t-85.5 2l-123 -549q-152 -690 -164 -780 q68 -2 192 -2q27 0 115 14q-2 -16 -12 -32l-9 -13.5t-8 -9.5q-6 -10 -6 -14q-89 -6 -159 -6q-4 0 -12.5 1t-25 2t-30.5 1q-37 2 -141 2z" />
<glyph unicode="\" horiz-adv-x="1148" d="M258 1120l98 35l713 -1198l-96 -39l-127 256q-78 158 -111 219q-33 66 -100 180q-61 104 -158 242z" />
<glyph unicode="]" horiz-adv-x="561" d="M-139 -201q20 -6 53 -12q12 -2 84 -2q94 0 162 2q39 127 102 391l94 389l121 549q-59 0 -85.5 -2t-63.5 -2q-72 0 -158 6q-2 0 -8 62q8 0 23.5 -1t23.5 -3q29 -4 41 -5q4 0 23.5 -1t33.5 -1q133 0 232 2l-1 -3q-1 -3 -1 -5v-8q18 -6 18 -8q-33 -141 -145 -666 q-10 -41 -21.5 -94l-23.5 -106l-39 -162l-29 -125q-6 -31 -12 -53.5t-11 -38.5q-4 -18 -9 -35t-7 -31q-6 -29 -10 -45t-6 -27q-2 -8 -6 -16q-2 -4 -2.5 -10t-2.5 -8q-104 0 -141 -2q-14 0 -30.5 -1t-25.5 -2t-14 -1q-57 0 -157 8q2 2 2 4q-4 16 -4 63z" />
<glyph unicode="^" horiz-adv-x="563" d="M82 770q12 29 43 53q37 29 65.5 45.5t75.5 59.5q43 39 70 88h100q37 -70 76 -109q53 -53 74 -71q29 -25 45 -66q-119 63 -166 96q-43 29 -84 80q-18 -20 -49 -45q-10 -8 -30.5 -20.5t-22.5 -12.5q-25 -15 -86 -43q-78 -37 -111 -55z" />
<glyph unicode="_" horiz-adv-x="1261" d="M61 -285q23 41 29 58q307 -4 467 -4q403 0 524 16q-4 -18 -12 -33q-6 -10 -14 -22q-6 -9 -6 -13v-2q-147 -6 -441 -6q-4 0 -28.5 1t-74.5 2t-106 1q-127 2 -338 2z" />
<glyph unicode="`" horiz-adv-x="421" d="M330 979q6 8 22.5 26.5t24.5 28.5q6 6 13 14.5t11.5 13.5t8.5 10t6 9q14 23 14 41q0 39 -59 47l12 11.5t16 13.5l27 20l25 19q10 8 18 10q12 4 14 4q20 0 34.5 -14t21.5 -37v-12q0 -51 -117 -144q-9 -9 -25 -18q-14 -10 -34.5 -22.5t-32.5 -20.5z" />
<glyph unicode="a" d="M76 219q0 68 22 135q18 57 72 117q47 53 123 84t176 31q8 0 25.5 -1t25.5 -3q20 -2 39 -11q20 -8 29 -12q14 -8 18 -12q6 -8 15 -17q2 -2 8 -14q2 -4 2 -10q0 -2 1 -5l1 -3v-6l-74 -150q18 55 19 98q0 117 -103 117q-115 0 -203 -90q-113 -113 -112 -301q0 -61 39 -100 q37 -37 82 -37q49 0 61 4q16 6 57 28q45 29 68 56q33 35 39 47q10 18 29 59l8 19.5t7 14.5t5 10t2 7q88 172 115 238q20 37 55 37q4 0 21 -8q10 -4 10 -19q0 -22 -13 -49l-77 -149l-72 -123q-51 -86 -59 -95q-109 -106 -254 -106q-76 0 -141.5 59.5t-65.5 159.5zM539 66 q31 29 86 124q-14 -43 -15 -73q0 -88 60 -88q33 0 45 2q14 2 30.5 12t22.5 16q14 14 27 29q4 4 15 18.5t17 20.5l2 -2l-22 -35q-20 -31 -27 -37l-28 -24q-18 -16 -41 -22.5t-52 -6.5q-33 0 -71 16q-33 15 -49 50z" />
<glyph unicode="b" horiz-adv-x="733" d="M23 166q8 8 28 45q16 29 29 39l-2 -37q-12 -8 -25 -20q-4 -4 -9 -10.5t-10 -10.5t-9 -8zM109 197q0 139 114 393q111 248 162 317q8 20 35 33q33 14 53.5 14t44.5 -14q23 -12 23 -33q0 -74 -82 -268q-82 -193 -168 -258l35 94q49 66 100 205q49 132 61 215 q-35 -47 -149 -268q-61 -111 -109 -271l-12 -37q-4 -12 -10 -34q-6 -25 -8 -31q-2 -8 -4 -19.5t-2 -13.5q-2 -10 -3 -26q0 -84 39 -125t111 -41q80 6 147 71q72 68 109 156q39 90 39 164v3q0 3 -1 8t-1 11q0 23 -2 27q-3 6 -6 25q-4 18 -9 26q-2 4 -6 9.5t-6 9.5 q-6 14 -16 16q-8 2 -27 2q-39 0 -51 -14q-14 -18 -14 -45v-17v-12q0 -33 -25 -33q-39 0 -39 37q0 34 31 74q31 39 94 39q16 0 27 -2q20 -4 43 -15q33 -14 51 -32q20 -20 39 -62q16 -35 16 -94q0 -154 -119 -266q-121 -115 -270 -115q-23 0 -53 6q-29 6 -76 24.5t-76 59.5 q-30 44 -30 107z" />
<glyph unicode="c" horiz-adv-x="659" d="M61 195q0 57 29 127q25 61 78 127q45 57 131 98q80 39 180 39q70 0 117 -17q55 -20 78 -39q25 -23 24 -34q0 -18 -22.5 -35t-42.5 -17q-35 0 -35 27q0 18 2 29q0 4 2 10q2 8 2 10q0 37 -121 37q-102 0 -212.5 -119t-110.5 -286q0 -37 18 -66q16 -25 45 -37q14 -6 49 -16 q14 -4 45 -4q92 0 127 32q6 4 19 17q2 2 5 6t5 6t4 2l19 8q16 4 26 4q66 0 76 2q12 2 29 15l6 6l4 -2q-31 -43 -72 -72q-39 -27 -90 -37q-76 -14 -78 -14q-20 -2 -78 -2q-29 0 -61 6q-20 4 -82 27q-49 18 -82 59.5t-33 102.5z" />
<glyph unicode="d" d="M74 219q0 71 24 135q25 63 72 116.5t123 84.5t176 31q8 0 25.5 -1t25.5 -3q20 -2 39 -11q20 -8 29 -12q14 -8 18 -12q6 -8 15 -17q2 -2 8 -14q2 -4 2 -10q0 -2 1 -5l1 -3v-6l-74 -150q18 55 19 98q0 117 -105 117q-106 0 -199 -98q-115 -111 -114 -293q0 -61 39 -100 q37 -37 82 -37q49 0 61 4q16 6 57 28q45 29 68 56q33 35 39 47q10 18 29 59l8 19.5t7 14.5t5 10t2 7q86 164 92 181q31 49 119 213q80 152 80 200q0 14 -8 17q-55 -34 -178 -344q-6 16 -23 26q41 127 80 217q37 86 67 123q31 35 54 49q20 12 51 13q14 0 27 -19 q10 -16 10 -41q0 -76 -54 -194q-51 -115 -126 -246q-70 -121 -80 -145q-14 -31 -67.5 -119t-63.5 -99q-109 -106 -254 -106q-78 0 -143.5 59.5t-65.5 159.5zM539 66q31 29 86 124q-14 -43 -15 -73q0 -88 60 -88q33 0 45 2q14 2 30.5 12t22.5 16q14 14 27 29q4 4 15 18.5 t17 20.5l2 -2l-22 -35q-20 -31 -27 -37l-28 -24q-18 -16 -41 -22.5t-52 -6.5q-33 0 -71 16q-33 15 -49 50z" />
<glyph unicode="e" horiz-adv-x="659" d="M63 190q0 104 72 213q25 39 47 66q25 29 60 57q37 31 90 45q51 14 124.5 14.5t145.5 -26.5q74 -27 74 -76q0 -12 -2 -22t-21 -43q-16 -31 -42.5 -51.5t-82 -39t-129.5 -18.5q-29 0 -139 17l10 22q25 -8 103 -8q96 4 151 61q57 59 58 101q0 28 -37 43q-29 12 -84 12 q-92 0 -166 -76q-76 -78 -115 -196q-16 -53 -16 -121q0 -135 168 -135q86 0 125 30q6 6 14 17q10 14 25 20q12 6 28 6h35q39 0 45 2q12 4 21 13l10 10l2 -2q-29 -45 -62 -72q-35 -29 -75 -37q-61 -12 -72 -14q-18 -2 -78 -2q-47 0 -86 8q-45 10 -90 27q-51 18 -80 57 q-31 39 -31 98z" />
<glyph unicode="f" horiz-adv-x="464" d="M-412 -848q14 53 43 53q23 0 55.5 -4t34.5 -4q41 0 74 29q33 31 70 115q74 170 244 729q25 -14 75 -27l-243 -709q-31 -90 -111 -139t-186 -49q-25 0 -56 6zM41 246q0 33 33 57q41 29 73 37l-16 -70q-6 -2 -20 -8q-6 -3 -13 -12q-4 -6 -4 -27q0 -55 62 -98 q63 -45 145 -45q33 0 57 8l23.5 9t15.5 5q9 3 43 25l2 -2q-31 -31 -69 -47q-47 -20 -76 -21q-256 13 -256 189zM141 180q2 8 17 56q98 315 121 374q43 115 106 254q4 10 12.5 27.5t12.5 26.5q8 20 45 34q39 16 63.5 16.5t40.5 -22t16 -90.5q0 -108 -86 -283 q-84 -172 -172 -256l33 82q68 94 119 219q53 131 53 224q0 23 -2 32q0 6 -2 12.5t-2 10.5v10q-35 -53 -86 -170q-55 -129 -78 -192l-92 -264l-47 -150q-27 6 -72 49z" />
<glyph unicode="g" horiz-adv-x="751" d="M-242 -743q0 74 119 206q117 131 270 254q150 119 254 174l-26 -57l-4 -2q-4 -2 -10.5 -5t-12.5 -7q-10 -6 -19.5 -12.5t-19.5 -12.5l-55 -37q-25 -16 -74 -57q-20 -16 -44.5 -38.5l-49.5 -43.5q-82 -70 -123 -108q-29 -29 -86 -115q-53 -80 -53 -135q0 -47 41 -70 q39 -20 94 -20q217 0 358 391l64 159l45 113q4 8 29 78l28 84q16 6 23 10q25 18 49 41q47 43 70 80q-121 -358 -306 -758q-66 -113 -155 -170q-94 -59 -207 -59q-31 0 -63 4q-41 4 -62 10q-37 8 -55 35q-19 25 -19 68zM70 223q0 80 43 162q47 82 118 135q88 66 234 66 q76 0 145 -39l-5 -15.5l-7 -21.5l-12 -43q-4 -14 -13 -35q-4 53 -28 88q-29 37 -70 37q-127 0 -244 -166q-59 -98 -59 -217q0 -145 137 -145q84 0 178 100q39 45 97 184q57 137 63 199q4 8 8 14q6 10 27 25q16 12 45 12q18 0 25 -10q4 -8 4 -41q0 -82 -68 -199l-6 -14 q-4 -8 -8 -14t-8 -15q-8 -16 -21 -39l-10 -19q-10 -19 -17 -28q-29 -41 -32 -45q-37 -43 -41 -47q-25 -23 -45 -39q-74 -53 -172 -53q-61 0 -115 20q-55 22 -98 74q-45 55 -45 129z" />
<glyph unicode="h" horiz-adv-x="792" d="M23 166l20 43q18 41 27 49q6 6 16 25q6 10 14.5 20t16.5 23q6 8 12 20t8 14l-35 -98q-16 -12 -26 -24q-12 -14 -28.5 -41t-22.5 -33zM39 29l74 188l143 215q61 98 131 127q61 27 164 27q227 0 227 -117q0 -47 -33 -100q-41 -68 -71 -103q-43 -49 -74 -94q-33 -47 -33 -80 q0 -35 12.5 -49t38.5 -14q39 0 70 18q33 20 84 80l4 -2l-2 -3q-2 -3 -5 -8t-7 -10l-14 -20q0 -2 -3.5 -5t-6.5 -6t-5 -7q-4 -4 -8 -13l-4 -6l-5 -4q-5 -4 -9 -8q-8 -8 -17 -12l-16 -9q-8 -4 -21 -8q-4 -2 -11 -3t-11 -1q-8 -2 -27 -2q-39 0 -63 12q-27 12 -39 35 q-14 25 -17 39q-4 25 -4 33q0 35 56 108l106 152q53 76 57 115q0 63 -151 63q-74 0 -131 -55q-55 -53 -203 -262q-10 -20 -37 -97q-25 -68 -35 -90q-29 -53 -65 -53q-18 0 -28.5 8.5t-10.5 20.5zM158 334l45 117q111 292 159 393q49 100 101 100q18 0 37 -22q16 -18 16 -52 q0 -25 -55 -110q-47 -72 -103 -139l41 104q28 40 56 86q27 45 26 55q0 14 -10 15q-16 0 -47 -47q0 -2 -4 -9.5l-10.5 -20.5l-12.5 -26q-27 -57 -53 -121q-37 -88 -53 -133q-47 -53 -133 -190z" />
<glyph unicode="i" horiz-adv-x="462" d="M23 166q2 4 5 11t5 11q2 6 5 11.5t3 7.5q4 8 8 14l17 17l-9 -31q-6 -6 -12 -19q-6 -14 -20 -24zM70 154q0 39 12 84q16 68 45 135q31 74 78 139.5t92 65.5q23 0 39 -14.5t16 -31.5q0 -41 -33 -106q-35 -70 -90 -119l19 55q53 63 63 156q-23 -16 -55 -76q-37 -68 -53 -118 q-18 -55 -33 -111q-8 -31 -8 -86q0 -98 69 -98q29 0 41 6q10 4 47 39q6 6 9 10q18 18 41 18h22q27 0 41 19l6 6l2 -2q-2 -2 -6 -10.5t-8 -12.5l-20 -30q-10 -16 -37 -39q-55 -33 -109 -33q-94 0 -141 45q-49 46 -49 109zM420 922q0 12 29 24q27 12 26 33q0 4 -8 12l-4 4 q47 20 78 21q27 0 26 -21q0 -33 -35 -63q-34 -31 -73 -31q-39 1 -39 21z" />
<glyph unicode="j" horiz-adv-x="403" d="M-557 -856q14 53 45 53q33 0 67.5 -14t45.5 -14q35 0 61 8q49 14 53 16q29 12 45 29l39 35q14 14 35 45l15.5 22.5l15.5 22.5q4 8 24 53q4 10 13.5 27.5t11.5 23.5q6 16 23 57q6 14 13 33t7 21q51 127 147 395q100 281 109 315q66 229 94 265q35 53 74 53q23 0 22 -53 q0 -37 -2 -54q-4 -27 -12 -47q-4 -8 -8 -21.5t-6 -15.5q-2 -4 -21 -39l-22 -41q-4 -4 -17 -43q-176 -496 -352 -907q-37 -92 -145 -162q-109 -68 -219 -67q-127 0 -156 4zM23 166q37 55 67 90q25 27 57 45l15.5 8t11.5 7t8 5.5t6 2.5l-16 -39q-6 -2 -14 -5l-8 -4 q-4 -2 -21 -12q-6 -4 -14 -8l-17 -16l-18 -19q-2 -2 -5 -4t-7.5 -7t-12.5 -13l-30 -33zM432 922q0 10 28.5 22t28.5 33q0 4 -8 12l-4 4q57 23 78 23q27 0 27 -21q0 -37 -37 -65q-41 -31 -76 -31q-37 0 -37 23z" />
<glyph unicode="k" horiz-adv-x="765" d="M23 166q0 2 5 10l9 14.5t7 12.5t5 9t6 11q2 4 7.5 12.5t7.5 12.5q25 31 47 41l-15 -31l-3 -2q-3 -2 -8 -5t-9 -7q-10 -8 -31 -41q-18 -31 -26 -39zM57 23q0 29 49 157q61 162 97 240l47 112q4 14 10 31t10 27t6 18q4 12 12.5 33l20.5 51q18 53 41 94l15.5 31t25.5 47 q23 41 49 64q23 20 47 20q18 0 41 -22q25 -25 25 -52q0 -16 -16 -53q-18 -43 -29 -57l-39 -59q-23 -35 -23 -37q-18 -18 -40 -54q10 29 28 111q74 111 74 143q0 14 -12 15q-23 0 -54 -49q-15 -25 -30 -68l-25 -72q-6 -18 -6 -35q-12 -65 -43 -141l-62 -156q72 41 101 56 q45 23 108 61l148 94q35 10 45 11q23 0 22 -21q0 -111 -67 -110q2 2 4 6t2 8q8 2 10 18q0 31 2 41l-12 -14l-12 -15.5l-13 -15.5q-8 -12 -16 -20q-72 -41 -117 -64l-123 -61q-49 -25 -49 -31q0 -35 45 -98q49 -70 115 -123q68 -55 123 -55q23 0 47 10q22 9 31 18l14 13.5 l23 21.5q16 16 23 24.5t9 10.5l2 -2q-43 -57 -47 -62q-22 -22 -55 -43q-33 -20 -72 -20q-59 0 -118 39q-63 41 -105 88q-29 33 -70 92q-29 41 -28 49q-20 -20 -27 -32q-8 -16 -20 -48l-11 -30q-8 -16 -16 -41q-2 -8 -7 -23.5l-7 -21.5t-8.5 -16.5t-8.5 -18.5 q-10 -23 -22 -31q-14 -8 -31 -8q-31 0 -31 25zM434 725z" />
<glyph unicode="l" horiz-adv-x="643" d="M23 166q31 43 73 76l-10 -35q-20 -10 -61 -43zM113 150q0 45 16 86q119 344 287 657q8 18 45 33q34 12 61 12q47 0 47 -53q0 -127 -106 -310l-35 -59l-23.5 -40.5t-15.5 -24.5q-6 -10 -15 -23.5l-20 -30.5q-31 -47 -37 -55q-12 -14 -32 -35l24 76q18 25 37 55 q16 27 39 76l35 70q92 164 100 299q-74 -104 -108 -191l-160 -370l-14 -41q-29 -94 -29 -154q0 -55 29 -78q27 -20 94 -20h41q8 0 33 8q20 8 34 20l19 19q14 14 22 18q16 8 29 8l4 -1q4 -1 8 -1h23q41 0 47 2q10 4 18 15q2 4 8 10l3 -2q-72 -125 -246 -125h-19h-16 q-227 0 -227 150z" />
<glyph unicode="m" horiz-adv-x="1232" d="M23 166l8 12l24 35q29 39 54 76q10 14 43 71l-7 -38q-49 -76 -120 -158zM102 27q0 10 11 26q6 22 116 191l101 176q16 29 61 84q27 33 88.5 57.5t112.5 24.5q55 0 96 -27q33 -23 43 -65q-47 -47 -76 -95q12 43 13 72q0 31 -2 41q-3 15 -19 31q-14 14 -45 14 q-86 0 -174 -127q-51 -68 -139 -225l-101 -180q-16 -25 -41 -25q-45 0 -45 27zM133 145l70 306l18 65l4 8q25 61 72 62q20 0 33 -13q10 -10 10 -28q0 -29 -21 -64q-23 -37 -34 -45q-12 -33 -35 -108q-2 -4 -35 -60q-10 -16 -55 -82zM510 25q0 18 18 55q121 268 201 364 q2 4 12 15q2 2 7.5 8t12.5 12t15 15q31 27 58 43q33 20 77 34q43 14 97 15q92 0 133 -21q43 -22 43 -86q0 -53 -27 -112q-31 -68 -59 -105q-33 -41 -64 -94q-29 -51 -33 -88q0 -27 11 -41q8 -10 45 -10q39 0 51 6q29 14 39 22l22 19q6 9 19 24q2 4 9 13.5t11 13.5l2 -2 q-25 -49 -39 -66q-18 -23 -59 -45q-27 -14 -72 -14q-49 0 -88 27q-37 25 -37 67q0 33 48 109q41 66 92 157q45 82 45 142q0 55 -64 55q-61 0 -133 -43q-68 -41 -98 -88q-53 -76 -213 -406q-12 -20 -37 -20q-45 0 -45 25z" />
<glyph unicode="n" horiz-adv-x="878" d="M23 166l8 12l24 35q29 39 54 76q10 14 43 71l-7 -38q-49 -76 -120 -158zM113 25q0 31 16 55l244 403l3 5q3 5 5 7.5t12 9.5l19 13q14 12 51 33q18 10 72 24q39 10 96 11q90 0 145 -23q53 -23 53 -84q0 -53 -26 -112q-28 -61 -62 -105q-35 -45 -61 -94q-31 -57 -33 -88 q0 -27 10 -41q8 -10 43 -10q39 0 52 6q35 16 41 22q18 14 20 19l18 24l21 27l4 -2q-27 -49 -39 -64q-23 -27 -59 -47q-29 -14 -74 -14q-49 0 -88 27q-37 25 -37 67q0 33 47 109q41 66 92 157q45 82 45 142q0 55 -86 55q-61 0 -126.5 -35t-92.5 -76q-35 -45 -127 -208 q-68 -119 -114 -218q-14 -20 -39 -20q-45 0 -45 25zM133 145l70 306l18 65l4 8q25 61 72 62q20 0 33 -13q10 -10 10 -28q0 -29 -21 -64q-23 -37 -34 -45q-10 -18 -35 -102q-2 -4 -35 -60l-55 -88z" />
<glyph unicode="o" horiz-adv-x="749" d="M76 195q0 80 35 155q35 74 88 125q55 53 110 80q61 31 111 31q53 0 84 -31v-63l-17 4q-10 2 -22 2q-14 59 -45 59q-16 0 -39 -10q-25 -12 -64 -43q-39 -33 -69 -76q-37 -51 -55 -113q-23 -74 -23 -155q0 -47 39 -90q37 -41 104 -41q92 0 156 61q70 66 96 141 q29 80 29 146q0 20 -27 121q0 -10 -4 -19q0 -8 -10 -28q-12 -25 -25 -62q-10 -31 -10 -72q0 -20 19 -63l-21 -37q0 2 -3 10.5t-7 16.5q-10 23 -12 35q-4 20 -5 26q0 37 15 90q14 55 26 74l13 25q-2 8 -2 41q0 47 30 47q18 0 41 -15q27 -16 35 -39q41 -100 41 -168 q0 -98 -74 -227q-82 -133 -258 -133q-78 0 -133 18q-57 18 -82 41q-23 20 -45 58q-14 23 -18 47q-2 11 -2 31zM629 88l10 16q8 -8 25 -8h20q4 0 16 8q10 6 23 23l2 -2q-2 -18 -23 -31q-14 -10 -38 -10q-19 0 -35 4z" />
<glyph unicode="p" horiz-adv-x="841" d="M-252 -774l10 51q6 29 45 154q31 98 86.5 231t149.5 307q113 207 219 365q53 80 111 133q51 49 112 78q49 23 88 33q33 8 68 8q37 0 55 -4q29 -6 58 -21q31 -15 49 -43q16 -25 16 -69q0 -72 -33 -162q-31 -82 -100 -166q-37 3 -61 24q92 174 92 306q0 47 -15 79 q-12 27 -51 27q-49 0 -94 -29q-57 -37 -107 -90q-59 -66 -88 -102l-41.5 -57t-46.5 -62q-53 -76 -59 -84q-106 -160 -193 -356q-89 -206 -129 -344q-41 -141 -41 -172l13 -4q65 0 319 774q41 68 66 96q-39 -197 -150 -502q-113 -311 -184 -407q-49 -70 -92 -70q-29 0 -51 23 q-21 20 -21 55zM23 166q52 71 98 178l74 172q29 66 47 66q12 2 26 2q23 0 23 -47q0 -39 -15 -123q-8 -6 -20 -21q-10 -14 -16 -24l-9 -11q29 139 29 185q0 10 -12 10q-12 -2 -29 -41l-33 -88q-20 -59 -59 -125q-45 -78 -102 -135zM379 63q0 43 24.5 72t77.5 29q59 0 121 -47 q41 -27 74 -27q88 0 137 37l4 -2q-51 -61 -164 -62q-37 0 -69 27q-18 15 -49 31q-29 14 -46 14q-70 0 -69 -72q0 -10 18 -20q12 -6 39 -10q51 0 84 33q25 -16 43 -23q-63 -43 -125 -43q-43 0 -71.5 22.5t-28.5 40.5z" />
<glyph unicode="q" horiz-adv-x="741" d="M70 223q0 80 43 162q47 82 118 135q88 66 234 66q78 0 147 -39l-41 -105q-4 55 -28 84q-28 31 -68 31q-127 0 -244 -166q-59 -98 -59 -217q0 -57 8 -84q8 -29 33 -43t41 -16q12 -2 55 -2t76 16q41 20 53 33l49 51q39 45 97 184q57 137 63 199q4 8 8 14q6 10 27 25 q16 12 45 12q18 0 25 -10q4 -8 4 -41q0 -82 -68 -199l-6 -14q-4 -8 -8 -14t-8 -15q-8 -16 -21 -39l-10 -19q-10 -19 -17 -28q-29 -41 -32 -45q-37 -43 -41 -47q-25 -23 -45 -39q-74 -53 -172 -53q-61 0 -115 20q-55 22 -98 74q-45 55 -45 129zM104 -846q0 6 9 23 q4 8 13 27.5l24 50.5l63 139l111 246l159 360q18 6 23 8q6 4 49 39q41 35 70 80q-86 -229 -195 -481q-98 -227 -149 -324l-54 -98q0 -2 15 -2q12 0 77 53q34 28 117 80l2 -2q-41 -68 -155 -166q-27 -25 -76 -41q-51 -18 -78 -18q-25 -1 -25 26z" />
<glyph unicode="r" horiz-adv-x="739" d="M23 166q0 2 3 6t9 13.5t10 17.5l25 43q6 10 22 41q15 31 25 55q4 12 8 26.5t10 34.5q14 45 23 80q10 51 49 74t78 23q51 0 86 -27q39 -29 41 -74l-72 -123q6 27 12 90q0 94 -73 95q-25 0 -50 -21q-23 -20 -28 -31l-11 -20q0 -2 -3 -8t-7 -15.5t-8 -21.5q-18 -61 -22 -70 q-18 -39 -46 -82q-45 -70 -79 -108zM201 26.5q0 14.5 4 22.5q12 23 18 33q10 14 27 43q33 68 168 297q6 12 15 28.5l13.5 24.5t6.5 12q25 51 30 82q12 16 26.5 16.5t39.5 -10.5q23 -10 22 -20v-41v-33q0 -18 23 -30q22 -12 49 -13q98 0 98 41q14 12 27 25q4 4 11 10t9 8l9 8 q6 0 22 -4q8 -2 17 -10q4 -4 4 -8q0 -43 -52 -74q-55 -33 -116 -33q-45 0 -78 13q-39 14 -47 22q-10 10 -19 23q-6 10 -12 10q-8 0 -8 -16q0 -10 2 -17q-86 -127 -180 -319q-12 -61 -39 -105q-12 -12 -29 -12q-20 0 -40.5 6t-20.5 20.5z" />
<glyph unicode="s" horiz-adv-x="622" d="M76 131q0 14 2 21q1 0 5 1q5 2 9 3q8 2 21 2q31 0 86 -25q14 -12 14 -20q0 -10 -20.5 -24.5t-20.5 -22.5q0 -14 35 -27q29 -10 78 -10q25 0 51 8q41 12 65 22q35 14 62 52q25 33 24 77q0 74 -100 199q-14 18 -35 64q-16 39 -16 92q6 39 22 43h2q18 0 89 -64 q12 -70 20 -88q10 -31 63 -110q51 -78 56 -144q-4 -55 -29 -90q-27 -37 -72 -55q-39 -16 -86 -27q-39 -8 -84 -8q-63 0 -106 14q-51 16 -72 33q-23 16 -41 39q-16 18 -18 33zM92 258q20 25 35.5 41t21 22.5t8.5 10.5t5 6q6 9 31 31q33 29 49 45q2 2 10 9t12 11l23 23l16 16 q0 -35 12 -53q-6 -2 -14 -7l-19.5 -12.5l-21.5 -13.5q-25 -14 -49.5 -32.5t-30.5 -22.5q-18 -12 -35 -29l-49 -47z" />
<glyph unicode="t" horiz-adv-x="694" d="M23 166q66 66 108 90l-4 -20q-2 -2 -14.5 -9.5t-20.5 -11.5q-14 -10 -37 -29q-10 -10 -30 -22zM150 596q31 39 51 51q18 10 55 10h16q2 0 15 -4q2 0 15 -4t23.5 -8t33 -8t32.5 -6q2 -2 41 -9l-6 -16l-47 10q-84 20 -90 21q-29 0 -45 -15q-23 -18 -29 -26q-10 -14 -16 -14 t-31 8q-18 6 -18 10zM152 150q0 43 26 112q53 152 131 330l88 -19l-104 -254q-20 -45 -33 -106q-12 -57 -12 -76q0 -66 39 -88q35 -20 102 -20q72 0 109 30l16 17q20 18 29 20q12 4 39 4h16q27 0 35 2l16 4l4 4q4 3 6 5q4 4 6.5 7t4.5 5l2 -2q-2 -2 -6 -10q-12 -15 -19 -25 q-4 -4 -24 -22q-4 -4 -45 -31q-37 -25 -74 -31t-119 -6q-106 0 -172 35q-10 8 -18.5 13t-10.5 7q-6 4 -20 33q-12 25 -12 62zM340 338l20 57l31 56l37 77q14 33 39 82q61 151 74 271l-109 -232l-86 21l105 225q10 20 36 31q31 12 56 12q31 0 39 -14q10 -16 10 -31 q0 -39 -25 -113q-18 -55 -43 -116l-24 -60q-61 -129 -97 -190q-28 -49 -63 -76zM532 586l5 16q10 -2 26 -2q49 0 72 14q29 18 61 54h2q31 -25 33 -37q-4 -4 -8 -6q-74 -45 -131 -45z" />
<glyph unicode="u" horiz-adv-x="913" d="M23 166q6 10 47 61l36 41l-4 -30l-3 -2l-8 -5.5t-9 -7.5q-35 -31 -57 -59zM131 178q0 57 10 103l15 51q16 55 26 84q12 35 33 78q20 45 51 71q29 25 64 25q66 0 65 -45q0 -27 -28 -84q-31 -61 -88 -119q16 51 20 59q23 29 43 76t20 70q0 16 -22 16q-14 -14 -45 -82 q-33 -70 -47 -119q-2 -6 -7 -19t-8 -19q-4 -12 -10 -35q0 -4 -3 -12.5t-5 -18.5q-6 -18 -6 -39v-47q0 -59 33 -100q33 -43 96 -43q96 0 149 43q52 43 93 141q-2 -10 -2 -43q0 -20 14 -80q-33 -47 -86 -67q-57 -23 -166 -23q-98 0 -153.5 55t-55.5 123zM610 195q0 82 19 143 q47 119 84 225q16 23 57 23q20 0 35 -8q12 -8 12 -23q0 -37 -63.5 -178t-63.5 -211q0 -137 66 -137q37 0 49 4q18 6 45 26q8 6 39 68l2 -2q0 -2 -4 -11.5t-6 -15.5q-6 -16 -9 -20l-8 -17q-6 -12 -12 -18q-8 -8 -14 -12q-12 -8 -21 -15q-37 -16 -65 -16q-142 0 -142 195z" />
<glyph unicode="v" horiz-adv-x="778" d="M23 166q104 117 167 256q2 -14 17 -43q-102 -156 -182 -215zM217 496q0 29 19 59q14 31 45 31q35 -2 34 -37v-8l-1 -4q-1 -4 -1 -7v-24q0 -6 -1 -23.5t-1 -27.5q4 -47 51 -125q45 -74 58 -117q12 -49 12 -86q0 -88 -72 -123q-12 -4 -18 -4q-76 0 -76 25q0 8 27 18 q29 14 39 39q8 18 8 57q0 74 -18 117q-18 45 -46 82q-31 43 -40 82q-15 47 -19 76zM459 248q18 18 67 51l66 45q109 86 108 162q0 14 -4 22q-4 6 -14 7q-16 0 -39 -35q-20 -33 -25 -33h-10q0 35 27 76q29 43 51 43q100 -2 107 -86q0 -47 -35 -98.5t-88 -88.5l-52 -34 q-43 -29 -75 -54q-43 -33 -68 -59q-6 55 -16 82z" />
<glyph unicode="w" horiz-adv-x="1005" d="M23 166q61 102 98 217q31 100 69 176q23 27 56 27q72 0 127 -43q33 -31 33 -99q0 -2 -5 -43q-72 -61 -90 -82q27 117 27 130q0 47 -23 81q-20 33 -67 33q-14 0 -19 -2l-12 -6l-6 -6q-18 -12 -43 -82q-33 -92 -62 -160q-37 -86 -79 -143zM166 41q0 27 22 49q29 33 31 35 l21 16q4 2 14 16.5t18 32.5q27 51 121 146q4 4 14.5 10t27 18.5l32.5 24.5q47 35 90 74l14 -57l-55 -39q-63 -47 -84 -70q-18 -20 -100 -129q-6 -18 -20.5 -47t-22.5 -58q-10 -27 -30.5 -45t-49.5 -18q-16 0 -31 10q-12 9 -12 31zM563 20q0 12 19 23q16 12 34 37 q2 4 10.5 14t15.5 21.5t15 21.5q25 37 60 78q25 35 76 76q59 49 106 108q45 57 45 111q0 35 -20 35q-8 0 -19 -10q-6 -6 -14 -19q-4 -10 -12 -27l-11 -20q0 2 2 19.5t4 25.5q8 27 23 47q18 25 45 25q78 0 78 -80q0 -55 -41 -115q-43 -63 -92 -100q-25 -18 -105 -94 q-53 -49 -71 -95q-8 -8 -24.5 -40.5t-29.5 -45.5q-16 -16 -34 -16q-60 0 -60 20zM592 500q0 22 12 43q12 20 43 20q37 -10 37 -53q0 -18 -2 -31q0 -6 -1 -10t-2 -7l-1 -3q0 -41 4 -61.5t16 -69.5q14 -55 15 -60q-47 -43 -68 -80q0 55 -16 136l-21 110q-4 4 -10 31 q-6 25 -6 35z" />
<glyph unicode="x" horiz-adv-x="782" d="M74 86q45 6 59 6q4 0 4 -2q2 0 2 -6v-12q0 -4 -1 -8.5t-1 -6.5q0 -29 43 -28q49 0 80 30q61 55 105 152q-6 -65 -7 -98v-17q-78 -96 -165 -96q-41 0 -64 8q-29 10 -35 25l-12 24q-8 21 -8 29zM119 385q125 201 254 201q59 0 87.5 -41t28.5 -96v-15q0 -4 -1 -8t-1 -6 q-33 -254 -32 -299q0 -41 24 -66q23 -23 60 -26h26q8 0 16.5 1t10.5 1t22 4q16 4 27 8l8 4l9.5 5t13.5 7q18 10 39 27q10 8 21 19.5t22 21.5l4 -2q-53 -61 -105 -94q-49 -31 -125 -31q-51 0 -92 41t-41 76q0 2 1 12l3 31.5t4 46.5q6 88 9 98q18 108 18 154q0 55 -22 78 q-20 20 -60 20q-33 0 -61 -14q-33 -16 -68 -51l-51 -54q-4 -4 -19.5 -21.5l-27.5 -31.5h-2zM516 344q10 76 14 127q66 115 152 115q162 0 170 -82l-41 -10q-41 -10 -39 -11q-2 0 -8 19q-6 20 -21 37q-15 18 -43 18q-35 0 -71 -31q-64 -57 -113 -182z" />
<glyph unicode="y" horiz-adv-x="815" d="M-217 -743q0 74 119 206q117 131 270 254q152 121 256 174l-29 -57l-24 -14q-12 -6 -22.5 -13.5t-18.5 -11.5l-55 -37q-25 -16 -74 -57q-8 -6 -96 -82q-66 -55 -119 -108q-33 -29 -86 -115q-53 -84 -54 -135q0 -90 134 -90q217 0 358 391l64 157l43 111q4 12 12 31.5 t16 42.5q6 14 15.5 42.5t13.5 41.5q43 14 139 133q-141 -408 -301 -752q-63 -113 -156 -170q-96 -59 -206 -59q-31 0 -64 4q-41 4 -61 10q-37 8 -56 35q-18 25 -18 68zM23 166q6 25 55 74l24 22q-2 -2 -2 -12q0 -12 2 -19l-3 -2q-3 -2 -8 -6t-11 -8q-41 -33 -55 -51z M139 248q0 16 2 26l6 25q0 4 5.5 16.5t7.5 20.5q8 29 10 41q33 127 61.5 168t92.5 41q45 0 59 -8.5t14 -34.5q0 -14 -6 -39q-4 -16 -33 -70q-23 -43 -65 -86q14 59 16 68q23 27 39 71q14 37 14 60q0 16 -22 16q-14 -14 -45 -86q-29 -66 -39 -115l-4 -14q0 -6 -3 -14t-5 -19 q-2 -8 -5 -23.5t-6 -21.5q-4 -16 -8 -53t-4 -51q0 -137 123 -137q82 0 145.5 53t94.5 125q16 33 43 112q10 31 55 144q27 66 45 100q22 22 37 25q33 0 43 -8.5t10 -36.5q0 -49 -12 -84q-12 -37 -29 -68q-10 -20 -37 -57q-23 -31 -22 -39q-37 -66 -107 -154q-63 -80 -98 -108 q-55 -33 -172 -33q-57 0 -98 26.5t-64 67.5q-16 31 -28 80q-11 41 -11 74z" />
<glyph unicode="z" horiz-adv-x="733" d="M68 39l8 24q6 16 22 37q18 23 52 37q31 14 77 15q34 0 80 -25q2 -2 29 -18q10 -6 25.5 -14.5t19.5 -10.5q22 -12 49 -25q8 -4 53 -20q23 -8 45 -8q29 0 60 30q33 33 41 33h24q16 0 23 4l33 29l2 -2l-33 -49q-8 -12 -17.5 -23.5t-11.5 -13.5q-6 -8 -20 -21 q-16 -14 -31 -16q-10 -2 -43 -2q-88 0 -270 102q-16 10 -25 11q-6 0 -6 -9q0 -14 8 -28q-31 -33 -65 -60q-23 -16 -64 -16q-12 0 -22 2q-12 2 -29 12q-14 9 -14 25zM117 401q8 33 24 64q22 40 62 80q41 41 86 41q18 -2 32.5 -16.5t24.5 -34.5q8 -16 14 -23q37 -33 134 -53 l-21 -23q-65 15 -123 43q-57 27 -69 43q-12 12 -37 12.5t-70 -51.5q-39 -45 -49 -86zM252 178l104 101q127 123 176 176l72 73q16 16 53 37q35 18 66 19q47 0 47 -29q0 -14 -29 -43q-27 -27 -57 -45l-29 -21q20 35 21 46q0 2 -2 2q-8 0 -70 -66q-61 -72 -69 -80l-95 -90 l-110 -108q-55 26 -78 28z" />
<glyph unicode="{" horiz-adv-x="804" d="M55 489q0 57 97 82q39 10 73 27q16 8 86 51q47 29 80 86q33 55 33 115q0 39 -10 88q-12 57 -13 86q0 90 70 158q68 66 182 65q111 0 172 -59q66 -61 66 -121q0 -35 -26.5 -51.5t-55.5 -16.5t-45 9q-20 8 -21 41q0 27 29 26q43 -29 70 -28q16 0 16 18q0 4 -6 18 q-4 12 -25 35q-10 12 -43 37q-25 18 -67.5 30.5t-93.5 12.5q-53 0 -94.5 -18.5t-59.5 -46.5q-18 -27 -29 -56q-8 -23 -8 -47q0 -31 18.5 -88t18.5 -96q0 -63 -27 -117q-27 -55 -65.5 -90t-81.5 -66l-76 -51q-29 -18 -41 -39q-6 -12 -55 -12q-68 0 -68 18zM72 453 q25 -12 59 -13q43 0 70 17q29 -29 63 -56q16 -12 62 -51q18 -16 43 -47q22 -28 30 -67q10 -45 11 -95q0 -45 -29 -108.5t-29 -93.5q0 -25 8 -50q12 -35 29 -59q18 -25 66 -49q41 -20 104 -21q68 0 68 -18q0 -10 -21 -18q-18 -8 -51 -9q-59 2 -110.5 29t-73.5 59 q-29 43 -39 72q-12 35 -13 68q0 41 27 102q29 68 29 105q0 45 -17 81q-14 33 -53 68t-65 53q-8 6 -21.5 14.5t-36 21.5t-39.5 24q-10 6 -39 20q-24 13 -32 21z" />
<glyph unicode="|" horiz-adv-x="253" d="M80 473q0 2 1 34t2 102.5t1 152.5q4 369 4 389q0 2 12.5 8l30.5 15l29 14q-4 -246 -4 -617q0 -735 20 -823q-37 -22 -86 -31q-10 117 -10 756z" />
<glyph unicode="}" horiz-adv-x="933" d="M-51 -100q0 39 24 53q23 14 60 14q70 0 69 -59q0 -23 -20 -23q-12 0 -45 18.5t-45 18.5q-14 0 -15 -18q0 -2 9 -23q4 -12 24 -35q12 -14 45 -39q23 -18 70 -30q43 -12 90 -13q55 0 94 18.5t62 47.5q16 23 28 57q8 25 9 50q0 20 -17 79q-14 51 -14 93q0 59 16 100 q18 45 58 84q27 27 63 55q31 25 76 49l57 35q55 -23 103 -22q16 0 32 6q-12 -16 -80 -35q-25 -6 -55.5 -18.5t-71.5 -32.5q-33 -16 -73 -54q-39 -35 -58 -75q-23 -49 -22 -101q0 -33 8 -80t8 -77q0 -94 -71.5 -162t-182.5 -68q-108 0 -172 62q-63 62 -63 125zM270 1221 q0 6 17 16q14 8 41 8q78 0 155 -61q76 -61 76 -164q0 -41 -31 -109q-33 -72 -32 -110q0 -41 16 -80q16 -41 51 -72q12 -10 66 -51q39 -29 86 -57q4 -2 18 -13q8 -4 21.5 -12t17.5 -10q8 -4 21 -21q8 -10 8 -24q0 -12 -33 -12q-47 0 -88 14q-8 23 -47 57q-53 49 -76 68 q-37 31 -67.5 92t-30.5 131q0 51 33 115q35 66 34 98q0 20 -10 51t-29 58q-22 31 -61 49q-41 18 -94 18q-62 1 -62 21z" />
<glyph unicode="~" horiz-adv-x="688" d="M47 377q68 86 94 86q43 0 145.5 -37t133.5 -37q20 0 49 8l31 11q9 3 30 24q6 6 12.5 11.5t10.5 8.5l4 3l4 -3q4 -3 8 -8l15 -14q6 -4 8 -14q-2 0 -6 -4t-13.5 -10.5l-17.5 -12.5q-33 -23 -51.5 -31t-50.5 -8q-68 0 -154 37t-115 37q-35 0 -59.5 -33t-34.5 -33 q-21 1 -43 19z" />
<glyph horiz-adv-x="944" />
<glyph unicode="&#xa1;" horiz-adv-x="483" d="M49 -2q0 12 117 405.5t117 432.5q0 8 8 8q12 0 28 -8q18 -8 19 -17q-2 -2 -16 -61l-35 -142l-41 -176q-8 -31 -33 -190q-14 -88 -14 -160q0 -78 2 -92q-18 0 -60 4q-8 0 -17 1t-15.5 2t-8.5 1q-28 0 -51 -8zM328 1147q0 53 67 53q47 0 56 -20q0 -18 -9 -43 q-6 -16 -18 -23l-25 -8q-6 -2 -20 -2q-22 0 -37 12q-14 13 -14 31z" />
<glyph unicode="&#xa2;" horiz-adv-x="645" d="M49 195q0 113 84 227q82 113 225 149l-14 -59q-80 -53 -139 -150q-57 -94 -58 -210q0 -104 134 -121l75 2q51 6 76 28q6 4 19 17q2 2 5 6t5 6t4 2l16 8q16 4 29 4q76 0 88 5q16 6 49 34q-100 -135 -297 -143l-78 2q-23 2 -67 14q-35 10 -72 31q-37 23 -59 59 q-25 44 -25 89zM231 -197q6 41 31 154l78 -2q-18 -74 -23 -121q-37 -22 -86 -31zM291 70l106 471l62 252q0 2 12 8q6 2 13.5 5l17.5 7l28 14l-53 -241l-112 -514zM524 555q4 25 4 27q70 -8 113 -37q43 -28 43 -49q0 -18 -22.5 -35t-40.5 -17q-37 0 -37 27q0 8 4 29q0 4 2 10 q2 8 2 10q0 29 -68 35z" />
<glyph unicode="&#xa3;" horiz-adv-x="1452" d="M143 168q0 203 361 203q37 0 74 -4q41 -4 100 -23q82 -25 164 -59q74 -29 127 -70q47 -35 69 -68q18 -25 33 -55q14 -27 25 -41q10 -12 32 -12q45 0 74 22.5t51 22.5q90 0 90 -20.5t-75 -40.5q-80 -23 -140 -23q-43 0 -63 14q-25 18 -37 41q-12 27 -29 58q-16 35 -61 69 q-49 39 -119 70l-57 27q-35 16 -53 20l-12 5q-11 5 -27 11q-14 6 -45 13q-10 2 -43 6q-16 2 -58 2q-47 0 -90 -6q-49 -6 -96 -23q-51 -16 -86 -57t-35 -103q0 -57 29 -90q29 -31 102 -30q61 0 123 24q57 23 113 68q57 47 82 74q41 45 57 67l74 -39q-187 -221 -455 -221 q-104 0 -151.5 43t-47.5 125zM580 539q52 74 104 73q43 0 125 -16l-2 -27q-39 8 -70 9q-33 0 -53 -15q-18 -14 -33 -31q-12 -14 -22 -14q-26 1 -49 21zM776 344q47 86 62 219q0 6 3 25.5t5 34t4 36t2 25.5q6 43 8 55q6 37 12 56l17 49q14 33 22 45q4 6 14.5 17.5t16.5 17.5 q14 18 41 28q25 10 53 17q41 8 64 8q266 0 266 -117q-3 -74 -111 -74q-72 0 -127 21q25 -4 58 -4q45 0 76 14q35 16 34 49q0 74 -180 74q-31 0 -55.5 -12.5t-42.5 -40.5q-4 -6 -29 -56q-10 -20 -20 -73l-10.5 -47t-6.5 -33q-2 -10 -6 -40t-6 -48q0 -4 -8 -51 q-25 -141 -74 -228q-16 6 -44 17.5zM971 532l6 31q14 -2 39 -2q16 0 41 4q4 0 14 1t14 3q6 2 25 13q6 4 11 8t7 4q8 4 23 18l20 21l17 -12l18 -19q6 -8 11 -16l-4 -2q-3 -2 -8 -4t-9 -5q-15 -9 -18 -12l-17 -8l-10 -5t-8 -3t-8.5 -3t-10.5 -5q-12 -6 -22 -7q-14 0 -24.5 -2 t-26.5 -2q-27 0 -80 4z" />
<glyph unicode="&#xa4;" horiz-adv-x="903" d="M82 309q127 80 135 84q49 31 57 35q12 -29 39 -53l-84 -58q-47 -29 -67 -45q-49 12 -80 37zM145 649q0 4 11 29q2 6 4 13t4 12.5t2 7.5l90 -72q-27 -18 -47 -43l-62 47q-2 2 -2 6zM201 463q0 61 41 104q10 14 51 39q55 31 125 31q57 0 104 -21l-65 -38q-25 4 -39 4 q-61 0 -103 -33q-45 -35 -47 -80l-65 -37q-2 11 -2 31zM301 315l61 35q23 -8 56 -8q61 0 106 35q43 33 43 86v6l64 37q6 -23 6 -43q0 -53 -39 -98q-16 -23 -55 -46q-55 -31 -125 -30q-64 -1 -117 26zM514 555q4 4 14.5 9t16.5 9q12 8 24 15l111 61h2q12 0 35 -10 q16 -8 41 -12l-148 -82l-28 -17q-10 -6 -17.5 -10t-9.5 -6q-14 23 -41 43zM590 285q41 37 49 49q20 -14 82 -47q-2 -23 -33 -72z" />
<glyph unicode="&#xa6;" horiz-adv-x="253" d="M82 215h76q2 -412 18 -467q-37 -22 -86 -31q-8 64 -8 498zM84 729q4 193 4 422q0 2 12.5 8l30.5 15l29 14q-2 -16 -2 -103v-184q0 -39 -1 -96t-1 -76h-72z" />
<glyph unicode="&#xa7;" horiz-adv-x="1339" d="M109 10q0 55 26 82q29 29 58 29q51 0 51 -23l-13 -12q-16 -16 -26 -37q-12 -25 -12 -67q0 -88 110 -164q113 -78 272 -78q174 0 316 80q139 78 139 188q0 61 -39 106.5t-153 88.5q-16 0 -88 -10.5t-95 -10.5q-147 0 -231 64q-86 66 -86 194q0 133 151 199l119 -16 q-68 -29 -112 -84q-43 -51 -43 -127q0 -96 57 -142q59 -47 149 -47q66 0 111 10q70 0 115 -14q96 -27 141 -49q51 -25 78 -59q23 -29 31 -60q6 -25 6 -67q0 -106 -131 -188.5t-371 -82.5q-221 0 -377 84q-153 84 -153 213zM322 897q0 104 137 180q135 74 377 74 q219 0 360 -80q139 -78 139 -215q0 -63 -18 -84q-23 -27 -49 -27q-51 0 -51 23q0 6 12 14q14 10 26.5 35t12.5 68q0 86 -105 164q-106 78 -264 77q-178 0 -323.5 -73.5t-145.5 -182.5q0 -47 23 -86q22 -37 49 -55q23 -16 59 -29q25 -8 51 -14q10 -2 23 -2q15 0 61 6 q45 6 76 6q348 0 348 -252q0 -86 -49 -129t-131 -73l-98 22q84 31 131 78t47 104q0 96 -74 151.5t-182 55.5q-39 0 -90 -10q-72 0 -117 14q-66 18 -113 43q-53 29 -69 43q-25 23 -37 51.5t-14 49.5q-2 14 -2 53zM842 264z" />
<glyph unicode="&#xa8;" horiz-adv-x="622" d="M336 922q0 12 26.5 24t26.5 33q0 6 -6 12l-4 4q47 20 76 21q27 0 26 -21q0 -33 -35 -63q-34 -31 -73 -31q-37 1 -37 21zM735 922q0 12 29 24q27 12 27 33q0 8 -13 16q55 20 78 21q27 0 27 -21q0 -33 -35 -63q-33 -31 -76 -31q-37 1 -37 21z" />
<glyph unicode="&#xa9;" horiz-adv-x="1191" d="M33 426q0 176 164 301q168 127 387 127t368.5 -125t149.5 -303q0 -174 -164 -301q-162 -125 -387 -125q-217 0 -371 125q-147 121 -147 301zM68 426q0 -166 139 -283q135 -115 344 -114q207 0 360.5 116.5t153.5 280.5q0 168 -137 285q-135 115 -344 114.5t-362.5 -117 t-153.5 -282.5zM291 336q0 125 94 237.5t258 112.5q61 0 107 -14q49 -16 69 -33q20 -18 21 -33q0 -18 -21 -33q-23 -16 -37 -16q-31 0 -30 27q0 4 4 24q2 10 2 21q0 33 -109 33q-92 0 -180 -107q-90 -109 -90 -256q0 -37 14 -59q14 -25 39 -33q33 -12 47 -14q29 -4 41 -5 q84 0 123 39q6 2 19 15q2 2 5 6t5 6t4 2q10 6 14 6q16 4 29 4q45 0 45 -16q0 -25 -82 -55q-86 -33 -162 -33q-23 0 -53 6q-29 6 -76 22q-43 16 -72 54q-28 39 -28 92z" />
<glyph unicode="&#xaa;" d="M76 219q0 68 22 135q18 57 72 117q47 53 123 84t176 31q8 0 25.5 -1t25.5 -3q20 -2 39 -11q20 -8 29 -12q14 -8 18 -12q6 -8 15 -17q2 -2 8 -14q2 -4 2 -10q0 -2 1 -5l1 -3v-6l-74 -150q18 55 19 98q0 117 -103 117q-115 0 -203 -90q-113 -113 -112 -301q0 -61 39 -100 q37 -37 82 -37q49 0 61 4q16 6 57 28q45 29 68 56q33 35 39 47q10 18 29 59l8 19.5t7 14.5t5 10t2 7q88 172 115 238q20 37 55 37q4 0 21 -8q10 -4 10 -19q0 -22 -13 -49l-77 -149l-72 -123q-51 -86 -59 -95q-109 -106 -254 -106q-76 0 -141.5 59.5t-65.5 159.5zM539 66 q31 29 86 124q-14 -43 -15 -73q0 -88 60 -88q33 0 45 2q14 2 30.5 12t22.5 16q14 14 27 29q4 4 15 18.5t17 20.5l2 -2l-22 -35q-20 -31 -27 -37l-28 -24q-18 -16 -41 -22.5t-52 -6.5q-33 0 -71 16q-33 15 -49 50z" />
<glyph unicode="&#xab;" horiz-adv-x="1138" d="M55 598l500 248l55 -74l-467 -197l406 -522l-92 -45q-197 314 -402 590zM481 584l500 247l59 -75q-313 -125 -469 -195l406 -520l-92 -47q-201 318 -404 590z" />
<glyph unicode="&#xad;" horiz-adv-x="958" d="M184 438q0 20 15 56q76 -2 432 -2q178 0 272 14q-6 -29 -10 -45.5t-4 -20.5q-115 -8 -190.5 -8t-192.5 2q-234 4 -322 4z" />
<glyph unicode="&#xae;" horiz-adv-x="1191" d="M33 426q0 176 164 301q168 127 387 127t368.5 -125t149.5 -303q0 -174 -164 -301q-162 -125 -387 -125q-217 0 -371 125q-147 121 -147 301zM68 426q0 -166 139 -283q135 -115 344 -114q207 0 360.5 116.5t153.5 280.5q0 168 -137 285q-135 115 -344 114.5t-362.5 -117 t-153.5 -282.5zM274 178q0 6 8.5 14.5t22.5 20.5q15 12 25 25q23 27 51 102q31 82 65 197q41 137 56 180q-47 0 -80 -4q0 2 6 39q37 6 80 6q137 0 231 -47q92 -46 92 -136q0 -49 -51 -86q-55 -39 -110 -53q29 -29 43 -84q23 -88 28 -104q14 -45 39 -45q23 0 45 12t37 12 q27 0 27 -10t-35 -27q-31 -14 -76 -14t-69 33q-27 37 -35 74q-2 4 -8.5 34.5t-10.5 47.5q-12 45 -26 55q-46 -6 -68 -6q-8 0 -29 4q-18 4 -24 8q-2 2 -8 4t-8 4q-12 8 -13 8q-4 4 -6 4q0 -10 -2 -16q-2 -10 -10 -39q-6 -18 -19 -51q-12 -37 -20 -57q-14 -35 -25 -54 q-18 -33 -24 -39q-14 -14 -29 -14q-54 0 -70 2zM489 483q23 14 41 15q61 0 109 -33q2 0 4 2q127 49 127 117q0 59 -65.5 96t-141.5 37v-2q-68 -222 -74 -232zM520 453q29 -4 41 -4q22 0 31 6q-8 8 -37 8q-35 0 -35 -8v-2z" />
<glyph unicode="&#xaf;" horiz-adv-x="743" d="M231 985q25 6 101 6q14 0 157 -4l144 -4q88 0 182 18q8 -10 10 -36q0 -8 1 -15.5t2 -11.5l1 -4q-94 -4 -180 -4q-72 0 -170 4q-18 0 -40.5 1t-35 2t-18.5 1h-82q-16 0 -32 -1l-15 -1q-4 0 -4 8q0 2 -1 6t-3 9.5t-2 7.5q-3 10 -15 18z" />
<glyph unicode="&#xb0;" horiz-adv-x="530" d="M143 893q0 41 39 74q37 31 94 30q55 0 94.5 -30.5t39.5 -73.5q0 -45 -39 -76t-95 -31q-57 0 -94 31q-39 33 -39 76zM193 889q0 -33 26 -53q29 -23 64 -23q37 0 65.5 22.5t28.5 53.5q0 29 -29 51.5t-65 22.5q-35 0 -64 -23q-26 -20 -26 -51z" />
<glyph unicode="&#xb1;" horiz-adv-x="903" d="M55 553q49 -4 160 -4h172l57 252q6 6 17 8q14 4 33 8q6 2 16 5t12 3l-61 -276h61q172 0 275 14q16 -16 39 -67q-147 -6 -193 -7q-2 0 -13.5 1.5t-28.5 1.5h-36h-116l-19 -113l-1 -4q-1 -4 -2 -12.5t-1 -16.5q-4 -43 -8 -61q-6 -35 -6 -45q-43 -18 -90 -21q16 113 26 154 q2 27 29 121q-8 0 -53 1t-80 1h-144q-6 0 -12 10l-14 24q-7 11 -19 23zM57 106q8 37 15 56q303 -4 430 -4q158 0 276 16q0 -2 -2 -7t-3 -13.5t-3 -14.5l-8 -33q-147 -6 -191 -6q-74 0 -192 2q-238 4 -322 4z" />
<glyph unicode="&#xb2;" horiz-adv-x="944" d="M162 768q0 51 43 82q45 33 131 33q61 0 133 -39q20 25 47 51l51 49l43 45q6 8 19.5 22.5l19.5 20.5q14 16 29 35q10 12 20 33q6 12 7 22q0 39 -113 39q-102 0 -143 -39q-14 -20 -17 -22q-4 -10 -8 -27l-8 -24q-12 -12 -29 -13q-37 0 -37 11q6 55 53 90q2 0 21 12 q16 10 27 14q18 6 32 13q20 8 54 12q20 2 71 2q70 0 111 -23q39 -20 39 -51q0 -27 -35 -69q-33 -41 -78 -86l-88 -87l-16.5 -16l-14.5 -14t-10 -10.5t-6 -7.5l-2 -3q29 -14 55 -37q18 -16 22.5 -28.5t6.5 -16.5q4 -8 12 -8q18 0 72 33q49 31 65 31q22 0 31 -25l-2 -6 q-39 -6 -100 -43q-66 -39 -74 -39q-18 0 -35 12q-12 10 -12 29q0 43 -60 84q-47 -53 -96 -88q-43 -31 -63 -37q-23 -6 -47 -6q-70 0 -95 29q-26 30 -26 61zM203 766q0 -70 73 -70q39 0 93 43q55 45 84 86q-66 35 -115 35q-80 0 -109 -24q-26 -25 -26 -70z" />
<glyph unicode="&#xb3;" horiz-adv-x="944" d="M219 838q0 31 14.5 45t30.5 14q33 0 33 -8q0 -2 -6 -8.5t-12 -20.5q-6 -15 -7 -37q0 -47 54 -84q49 -35 143 -34q92 0 164 43q70 43 69 106q0 70 -100 107q-14 -10 -33 -11q-45 0 -45 27v2q2 8 25 14q25 8 49 11q27 4 45 22q20 20 21 53q0 39 -27 59.5t-82 20.5 q-59 0 -86 -16q-29 -16 -29 -41q0 -18 21 -25q18 -6 18 -8q0 -6 -16 -6q-33 0 -51 10q-20 12 -21 31q0 33 58 57q59 25 118 25q66 0 111 -35q43 -34 43 -80q0 -31 -21 -51q-27 -27 -38 -33q-8 -4 -50 -16q156 -43 156 -131q0 -61 -74 -113q-72 -51 -202 -51q-119 0 -195 45 q-78 47 -78 117z" />
<glyph unicode="&#xb4;" horiz-adv-x="739" d="M289 764l8 37l7 33.5t9 35.5q8 27 27 62q49 88 121 88q49 0 49 -29q0 -10 -33 -104q-35 25 -45 24q-39 0 -72 -37q-4 -4 -69 -112z" />
<glyph unicode="&#xb5;" horiz-adv-x="1048" d="M-160 -518q0 12 2 24q4 25 21 82q20 68 49 146q27 72 102 221q72 143 164 301q-6 -29 -31 -96q-18 -51 -28 -101q-115 -190 -158 -321q-45 -135 -45 -201q9 -25 37 -24q45 0 113 172q66 164 100 340q94 428 94 518q0 10 -12 10q-12 -2 -29 -41l-33 -88q-20 -59 -59 -125 q-45 -78 -102 -135l-2 2q52 71 98 178l74 172q29 66 47 66q41 12 65 12q14 0 24.5 -10.5t10.5 -36.5q0 -29 -20 -129q-16 -80 -50 -225l-15 -67l-10 -45l-3 -13q-86 -408 -224 -594q-49 -70 -108 -70q-29 0 -51 23q-21 20 -21 55zM287 80q45 229 51 252q0 -4 -1 -12.5 t-2 -24.5t-1 -31q-4 -74 -4 -92q0 -61 26.5 -102t92.5 -41q96 0 149 43q52 43 92 141q-2 -10 -2 -43q0 -20 14 -80q-33 -47 -86 -67q-57 -23 -165 -23q-107 0 -164 80zM721 195q0 88 16 143q47 119 84 225q16 23 60 23q18 0 32.5 -8.5t14.5 -22.5q0 -37 -63.5 -178 t-63.5 -211q0 -137 65 -137q37 0 49 4q18 6 46 26q18 18 61 86l4 -2q-18 -37 -47 -80q-14 -20 -51 -47q-37 -16 -66 -16q-141 0 -141 195z" />
<glyph unicode="&#xb7;" horiz-adv-x="374" d="M125 397q0 31 6 43q8 18 23 25q4 2 11 4t9 2q6 2 24.5 2t32.5 -12q16 -12 17 -29q0 -53 -68 -53q-47 0 -55 18z" />
<glyph unicode="&#xb8;" horiz-adv-x="733" d="M285 -211q0 4 6 4q16 0 51 -43q37 -47 57 -49q25 8 25 72q0 104 -96 211l28 -7q16 -4 23 -6q51 -33 77.5 -73.5t26.5 -83.5q0 -49 -18 -84q-20 -39 -66 -39q-20 0 -34 8q-16 10 -41 41q-33 41 -35 43q-4 4 -4 6z" />
<glyph unicode="&#xb9;" horiz-adv-x="569" d="M215 868q47 47 113 136q4 4 22 40q2 4 12.5 22.5t16.5 33.5l29 59q4 23 24.5 23t20.5 -17q0 -2 -1 -6l-2 -8t-2.5 -12.5t-3.5 -16.5q-6 -41 -26 -86q-20 -47 -45 -65q-57 -223 -58 -246q0 -16 7 -39q-6 -2 -29 -2h-19q-4 0 -12 1t-12 1q0 41 10 80q14 53 25 82l22 65 l10 31q-8 -2 -26 -24q-20 -23 -39 -37q-21 -15 -37 -15z" />
<glyph unicode="&#xba;" horiz-adv-x="749" d="M76 195q0 80 35 155q35 74 88 125q55 53 110 80q61 31 111 31q53 0 84 -31v-63l-17 4q-10 2 -22 2q-14 59 -45 59q-16 0 -39 -10q-25 -12 -64 -43q-39 -33 -69 -76q-37 -51 -55 -113q-23 -74 -23 -155q0 -47 39 -90q37 -41 104 -41q92 0 156 61q70 66 96 141 q29 80 29 146q0 20 -27 121q0 -10 -4 -19q0 -8 -10 -28q-12 -25 -25 -62q-10 -31 -10 -72q0 -20 19 -63l-21 -37q0 2 -3 10.5t-7 16.5q-10 23 -12 35q-4 20 -5 26q0 37 15 90q14 55 26 74l13 25q-2 8 -2 41q0 47 30 47q18 0 41 -15q27 -16 35 -39q41 -100 41 -168 q0 -98 -74 -227q-82 -133 -258 -133q-78 0 -133 18q-57 18 -82 41q-23 20 -45 58q-14 23 -18 47q-2 11 -2 31zM629 88l10 16q8 -8 25 -8h20q4 0 16 8q10 6 23 23l2 -2q-2 -18 -23 -31q-14 -10 -38 -10q-19 0 -35 4z" />
<glyph unicode="&#xbb;" horiz-adv-x="1179" d="M55 59l537 439q-102 76 -402 274l74 62l420 -330q-233 -197 -553 -504zM451 59l532 439q-178 129 -401 274l75 62l422 -330q-246 -209 -555 -504z" />
<glyph unicode="&#xbc;" horiz-adv-x="1363" d="M49 -82l209 178l197 170l155 144q133 123 185 178l180 192l233 264l84 -55l-1161 -1124zM215 811q47 47 113 135q6 6 22 39q2 6 12.5 24.5t16.5 30.5q12 23 18 38.5t11 23.5q4 23 24.5 22.5t20.5 -16.5q0 -2 -1 -6l-2 -8t-2.5 -12.5t-3.5 -16.5q-6 -41 -26 -86 q-23 -51 -45 -68q-57 -223 -58 -243q0 -16 7 -39q-6 -2 -29 -2h-19q-4 0 -12 1t-12 1q0 41 10 80q12 46 25 79l22 66l10 33q-6 -2 -26 -27q-16 -18 -39 -35q-21 -14 -37 -14zM748 125q0 2 4 6q98 49 233 148q123 90 178 124q12 10 19 27q6 18 30 25q37 0 37 -23 q-53 -125 -92 -301h51q8 -8 13 -16l5 -10q3 -3 3 -5q0 -6 -27 -6h-51q0 -4 -2 -12t-5 -22.5t-7 -28.5q-12 -55 -21 -78q-2 -8 -14 -8h-51h-7q14 27 48 149q-293 6 -314 8q-12 0 -20 9q-10 10 -10 14zM852 141q37 -10 246 -10q31 113 65 223q-39 -25 -139 -100 q-111 -84 -172 -113z" />
<glyph unicode="&#xbd;" horiz-adv-x="1454" d="M49 -82l209 178l197 170l155 144q133 123 185 178l180 192l233 264l84 -55l-1161 -1124zM215 809q47 47 113 135q6 6 22 39q2 4 12.5 22.5t16.5 32.5q12 23 18 38.5t11 23.5q4 23 24.5 22.5t20.5 -16.5q0 -2 -1 -6t-2 -8.5t-2.5 -12.5t-3.5 -16q-6 -41 -26 -86 q-23 -51 -45 -68q-57 -223 -58 -243q0 -18 7 -39q-6 -2 -29 -2h-19q-4 0 -12 1t-12 1q0 41 10 80q12 46 25 79l22 68l10 31q-6 -2 -26 -27q-16 -18 -39 -35q-21 -14 -37 -14zM778 31q0 53 41 82q43 31 131 30q66 0 131 -37l52 52l49 49l43 45q6 8 19 22.5t20 20.5 q14 16 28 35q18 23 23 30q6 12 6 25q0 39 -113 39q-104 0 -145 -39q-12 -16 -16 -25q-6 -10 -9 -24q-2 -4 -8 -27q-8 -10 -29 -10q-37 0 -36 8q6 53 55 90l18 13q23 14 27 16q18 6 32.5 12t53.5 11q41 4 72 4q66 0 110 -25q39 -20 39 -49q0 -23 -37 -70q-57 -72 -73 -88 q-18 -20 -88 -86l-52 -49q29 -14 56 -37q18 -16 22 -29l6 -18q2 -6 15 -6q20 0 69 30.5t68 30.5q18 0 31 -22l-5 -6q-33 -6 -98 -45q-61 -37 -76 -37q-18 0 -32 12q-16 12 -17 29q0 43 -57 82q-51 -57 -94 -88q-37 -27 -66 -35q-23 -6 -47 -6q-68 0 -92 26q-27 31 -27 64z M817 29q0 -72 74 -72q43 0 92 43q47 41 84 88q-66 35 -115 35q-80 0 -106 -25q-29 -24 -29 -69z" />
<glyph unicode="&#xbe;" horiz-adv-x="1363" d="M49 -82l209 178l197 170l155 144q133 123 185 178l180 192l233 264l84 -55l-1161 -1124zM164 778q0 31 14.5 45.5t32.5 14.5q29 0 29 -11q0 -2 -7 -8q-4 -4 -10 -18q-6 -15 -6 -37q0 -47 53 -84q52 -37 142 -37q92 0 166 45q70 43 69 107q0 70 -98 104q-10 -8 -33 -8 q-47 0 -47 24v3q4 10 25 16q12 4 49 8q27 4 47 24.5t20 53.5q0 80 -110 80q-59 0 -86 -17q-29 -16 -29 -41q0 -18 18 -24q20 -6 21 -8q0 -8 -16 -9q-27 0 -50 13q-20 12 -20 30q0 33 57 58q59 25 117 24q70 0 111 -34.5t41 -79.5q0 -33 -21 -54q-25 -25 -37 -30 q-18 -9 -49 -19q156 -43 156 -129q0 -59 -74 -112q-72 -51 -201 -52q-123 0 -198.5 45t-75.5 117zM748 125q0 2 4 6q98 49 233 148q123 90 178 124q12 10 19 27q6 18 30 25q37 0 37 -23q-53 -125 -92 -301h51q8 -8 13 -16l5 -10q3 -3 3 -5q0 -6 -27 -6h-51q0 -4 -2 -12 t-5 -22.5t-7 -28.5q-12 -55 -21 -78q-2 -8 -14 -8h-51h-7q14 27 48 149q-293 6 -314 8q-12 0 -20 9q-10 10 -10 14zM852 141q37 -10 246 -10q31 113 65 223q-39 -25 -139 -100q-111 -84 -172 -113z" />
<glyph unicode="&#xbf;" horiz-adv-x="905" d="M55 311q0 84 29 135q20 37 78 78q53 39 98 56q23 10 96 32q31 10 53.5 16.5l36.5 10.5q33 10 66 25q41 18 51 28q14 14 15 33q0 23 -15 59q-12 33 -12 58q0 6 18 6q29 0 60 -8q33 -8 33 -17l-5 -20l-8 -33q-4 -14 -12 -35q-8 -18 -27 -45q-4 -6 -39 -41q-9 -9 -43 -24 q-45 -20 -67 -29q-14 -4 -33.5 -13.5t-44.5 -17.5q-45 -16 -55 -20q-160 -61 -160 -230q0 -211 190 -272q52 -18 142 -18q63 0 118 10q47 8 76 31q27 20 37 34q2 2 25 39q14 27 14 45q0 25 -39 47q-2 0 -11 4.5t-15 6.5l-31 10q-14 4 -14.5 8t10.5 8q18 8 32 8q18 0 66 -10 q84 -23 84 -82v-2q-6 -47 -21 -65q-70 -117 -327 -117q-57 0 -156 14q-35 4 -49 9q-23 6 -74 28q-53 25 -82 51q-41 37 -61 84q-27 59 -27 125zM629 1151q0 53 67 53q45 0 54 -20q0 -25 -7 -43q-4 -14 -20 -23q-4 -2 -23 -8q-6 -2 -22 -2q-18 0 -35 12q-14 13 -14 31z" />
<glyph unicode="&#xc0;" horiz-adv-x="2088" d="M109 254q0 47 41 84q40 37 122 37q70 0 131 -33q57 -31 89 -98q18 -37 18 -58q-14 -20 -53 -20q-33 0 -45 12v58q0 55 -33 86q-35 31 -90 30q-51 0 -76 -41t-25 -94q0 -57 39 -96q40 -40 105 -62q53 -18 119 -28q49 -8 104 -8t109 4q33 2 98 26q58 22 104 56 q61 45 133 106t177 166l239 246q100 109 238 288q-29 -119 -35 -180l-150 -168q-164 -182 -288 -297q-117 -109 -219 -172q-98 -61 -172 -79.5t-171 -18.5q-123 0 -217 18.5t-149 42.5q-51 23 -88 64q-33 37 -45 65q-10 27 -10 64zM596 735q0 72 57 103q61 33 150 32 q20 0 78 -8q33 -4 75 -16q33 -8 82 -29q27 -10 46.5 -19.5t31.5 -13.5q20 -8 78 -36q25 -12 42 -22.5t28 -14.5l65 -37q12 -6 24.5 -14.5t19.5 -12.5t9 -4l-20 -20q-127 76 -289 149q-152 70 -223 70q-70 -4 -119 -35q-51 -33 -51 -86q0 -66 20 -109q23 -47 45.5 -67.5 t63.5 -32.5q33 -10 61 -14q14 -2 52 -2q12 2 18 8t6 16q0 14 2 17q12 4 29 4q14 0 47 -16.5t33 -26.5q0 -18 -25 -29q-23 -8 -55 -8q-166 0 -275 86q-106 86 -106 188zM1430 119q0 45 36.5 84t120.5 39q51 0 84 -13l2 -32q-27 10 -61 14q-66 0 -90 -37q-27 -39 -27 -70 q0 -33 29 -57q25 -23 84 -22q18 0 32 6q23 8 27 12q8 6 19 23q10 18 12 24q0 4 3 12.5l5 14.5q2 10 2 24q0 2 1 9.5t1 11.5l2 12q0 125 -39 281q49 -16 78 -19l10 -33q10 -35 11 -36q0 -6 6 -33l8 -41q4 -16 6 -39q4 -33 4 -49q0 -6 1 -22.5t1 -24.5q-2 -14 -6 -35 q-10 -37 -14 -45q-4 -10 -27 -37q-18 -20 -53 -31q-37 -10 -86 -10q-90 0 -137 35q-45 33 -45 84zM1501 551l19 20q55 -27 141 -57q88 -31 147 -31q47 0 72 18.5t29 41t14 39.5q12 18 41 18q23 0 35 -14q12 -15 12 -37q0 -35 -41 -66q-37 -29 -110 -28q-86 0 -197 30 q-62 19 -162 66zM1653 608q0 104 14 164q29 174 57 244q8 14 9 18l32 80q14 29 37 51q33 25 70 25q41 0 70 -21q31 -23 30 -47q0 -18 -39 -80q-31 -47 -75 -108l-37 -49q-82 -109 -82 -297q0 -43 2 -60q-57 10 -86 23q-2 16 -2 57zM1823 76q0 2 2 10l4 15.5t2 15.5l14 -27 q2 -6 6 -12t6.5 -10.5t4.5 -6.5q8 -12 16 -20q14 -14 22.5 -18.5t26.5 -4.5q35 0 62 21q29 23 73 88l2 -2q-59 -125 -143 -125q-59 0 -98 76zM2028 1253q6 8 13 16.5l17 21t17 20.5q33 39 36 47q16 27 17 41q0 39 -60 47q2 2 11.5 10t17.5 12l29 23q4 4 10 8t10 8 q12 10 21 13q12 4 14 4q20 0 34.5 -14.5t20.5 -36.5v-13q0 -51 -116 -143q-9 -9 -25 -19q-14 -10 -35 -22q-12 -6 -20 -13.5t-12 -9.5z" />
<glyph unicode="&#xc1;" horiz-adv-x="2088" d="M109 254q0 47 41 84q40 37 122 37q70 0 131 -33q57 -31 89 -98q18 -37 18 -58q-14 -20 -53 -20q-33 0 -45 12v58q0 55 -33 86q-35 31 -90 30q-51 0 -76 -41t-25 -94q0 -57 39 -96q40 -40 105 -62q53 -18 119 -28q49 -8 104 -8t109 4q33 2 98 26q58 22 104 56 q61 45 133 106t177 166l239 246q100 109 238 288q-29 -119 -35 -180l-150 -168q-164 -182 -288 -297q-117 -109 -219 -172q-98 -61 -172 -79.5t-171 -18.5q-123 0 -217 18.5t-149 42.5q-51 23 -88 64q-33 37 -45 65q-10 27 -10 64zM596 735q0 72 57 103q61 33 150 32 q20 0 78 -8q33 -4 75 -16q33 -8 82 -29q27 -10 46.5 -19.5t31.5 -13.5q20 -8 78 -36q25 -12 42 -22.5t28 -14.5l65 -37q12 -6 24.5 -14.5t19.5 -12.5t9 -4l-20 -20q-127 76 -289 149q-152 70 -223 70q-70 -4 -119 -35q-51 -33 -51 -86q0 -66 20 -109q23 -47 45.5 -67.5 t63.5 -32.5q33 -10 61 -14q14 -2 52 -2q12 2 18 8t6 16q0 14 2 17q12 4 29 4q14 0 47 -16.5t33 -26.5q0 -18 -25 -29q-23 -8 -55 -8q-166 0 -275 86q-106 86 -106 188zM1430 119q0 45 36.5 84t120.5 39q51 0 84 -13l2 -32q-27 10 -61 14q-66 0 -90 -37q-27 -39 -27 -70 q0 -33 29 -57q25 -23 84 -22q18 0 32 6q23 8 27 12q8 6 19 23q10 18 12 24q0 4 3 12.5l5 14.5q2 10 2 24q0 2 1 9.5t1 11.5l2 12q0 125 -39 281q49 -16 78 -19l10 -33q10 -35 11 -36q0 -6 6 -33l8 -41q4 -16 6 -39q4 -33 4 -49q0 -6 1 -22.5t1 -24.5q-2 -14 -6 -35 q-10 -37 -14 -45q-4 -10 -27 -37q-18 -20 -53 -31q-37 -10 -86 -10q-90 0 -137 35q-45 33 -45 84zM1501 551l19 20q55 -27 141 -57q88 -31 147 -31q47 0 72 18.5t29 41t14 39.5q12 18 41 18q23 0 35 -14q12 -15 12 -37q0 -35 -41 -66q-37 -29 -110 -28q-86 0 -197 30 q-62 19 -162 66zM1653 608q0 104 14 164q29 174 57 244q8 14 9 18l32 80q14 29 37 51q33 25 70 25q41 0 70 -21q31 -23 30 -47q0 -18 -39 -80q-31 -47 -75 -108l-37 -49q-82 -109 -82 -297q0 -43 2 -60q-57 10 -86 23q-2 16 -2 57zM1823 76q0 2 2 10l4 15.5t2 15.5l14 -27 q2 -6 6 -12t6.5 -10.5t4.5 -6.5q8 -12 16 -20q14 -14 22.5 -18.5t26.5 -4.5q35 0 62 21q29 23 73 88l2 -2q-59 -125 -143 -125q-59 0 -98 76zM1935 1255q2 0 9 37q6 39 18 72t27 59q29 53 55 70q29 18 63 18q51 0 52 -26q0 -14 -35 -107q-33 27 -43 27q-39 0 -74 -39 q-4 -4 -70 -113z" />
<glyph unicode="&#xc2;" horiz-adv-x="2088" d="M109 254q0 47 41 84q40 37 122 37q70 0 131 -33q57 -31 89 -98q18 -37 18 -58q-14 -20 -53 -20q-33 0 -45 12v58q0 55 -33 86q-35 31 -90 30q-51 0 -76 -41t-25 -94q0 -57 39 -96q40 -40 105 -62q53 -18 119 -28q49 -8 104 -8t109 4q33 2 98 26q58 22 104 56 q61 45 133 106t177 166l239 246q100 109 238 288q-29 -119 -35 -180l-150 -168q-164 -182 -288 -297q-117 -109 -219 -172q-98 -61 -172 -79.5t-171 -18.5q-123 0 -217 18.5t-149 42.5q-51 23 -88 64q-33 37 -45 65q-10 27 -10 64zM596 735q0 72 57 103q61 33 150 32 q20 0 78 -8q33 -4 75 -16q33 -8 82 -29q27 -10 46.5 -19.5t31.5 -13.5q20 -8 78 -36q25 -12 42 -22.5t28 -14.5l65 -37q12 -6 24.5 -14.5t19.5 -12.5t9 -4l-20 -20q-127 76 -289 149q-152 70 -223 70q-70 -4 -119 -35q-51 -33 -51 -86q0 -66 20 -109q23 -47 45.5 -67.5 t63.5 -32.5q33 -10 61 -14q14 -2 52 -2q12 2 18 8t6 16q0 14 2 17q12 4 29 4q14 0 47 -16.5t33 -26.5q0 -18 -25 -29q-23 -8 -55 -8q-166 0 -275 86q-106 86 -106 188zM1430 119q0 45 36.5 84t120.5 39q51 0 84 -13l2 -32q-27 10 -61 14q-66 0 -90 -37q-27 -39 -27 -70 q0 -33 29 -57q25 -23 84 -22q18 0 32 6q23 8 27 12q8 6 19 23q10 18 12 24q0 4 3 12.5l5 14.5q2 10 2 24q0 2 1 9.5t1 11.5l2 12q0 125 -39 281q49 -16 78 -19l10 -33q10 -35 11 -36q0 -6 6 -33l8 -41q4 -16 6 -39q4 -33 4 -49q0 -6 1 -22.5t1 -24.5q-2 -14 -6 -35 q-10 -37 -14 -45q-4 -10 -27 -37q-18 -20 -53 -31q-37 -10 -86 -10q-90 0 -137 35q-45 33 -45 84zM1501 551l19 20q55 -27 141 -57q88 -31 147 -31q47 0 72 18.5t29 41t14 39.5q12 18 41 18q23 0 35 -14q12 -15 12 -37q0 -35 -41 -66q-37 -29 -110 -28q-86 0 -197 30 q-62 19 -162 66zM1608 1262q14 33 43 55q37 29 65 45q41 23 76 57q41 41 68 88h100q35 -66 76 -106l25.5 -26.5t27.5 -28l20 -19.5q31 -29 48 -65q-119 61 -168 96q-35 25 -84 80q-12 -14 -47 -43q-18 -14 -56 -35l-86 -42.5t-108 -55.5zM1653 608q0 104 14 164 q29 174 57 244q8 14 9 18l32 80q14 29 37 51q33 25 70 25q41 0 70 -21q31 -23 30 -47q0 -18 -39 -80q-31 -47 -75 -108l-37 -49q-82 -109 -82 -297q0 -43 2 -60q-57 10 -86 23q-2 16 -2 57zM1823 76q0 2 2 10l4 15.5t2 15.5l14 -27q2 -6 6 -12t6.5 -10.5t4.5 -6.5 q8 -12 16 -20q14 -14 22.5 -18.5t26.5 -4.5q35 0 62 21q29 23 73 88l2 -2q-59 -125 -143 -125q-59 0 -98 76z" />
<glyph unicode="&#xc3;" horiz-adv-x="2088" d="M109 254q0 47 41 84q40 37 122 37q70 0 131 -33q57 -31 89 -98q18 -37 18 -58q-14 -20 -53 -20q-33 0 -45 12v58q0 55 -33 86q-35 31 -90 30q-51 0 -76 -41t-25 -94q0 -57 39 -96q40 -40 105 -62q53 -18 119 -28q49 -8 104 -8t109 4q33 2 98 26q58 22 104 56 q61 45 133 106t177 166l239 246q100 109 238 288q-29 -119 -35 -180l-150 -168q-164 -182 -288 -297q-117 -109 -219 -172q-98 -61 -172 -79.5t-171 -18.5q-123 0 -217 18.5t-149 42.5q-51 23 -88 64q-33 37 -45 65q-10 27 -10 64zM596 735q0 72 57 103q61 33 150 32 q20 0 78 -8q33 -4 75 -16q33 -8 82 -29q27 -10 46.5 -19.5t31.5 -13.5q20 -8 78 -36q25 -12 42 -22.5t28 -14.5l65 -37q12 -6 24.5 -14.5t19.5 -12.5t9 -4l-20 -20q-127 76 -289 149q-152 70 -223 70q-70 -4 -119 -35q-51 -33 -51 -86q0 -66 20 -109q23 -47 45.5 -67.5 t63.5 -32.5q33 -10 61 -14q14 -2 52 -2q12 2 18 8t6 16q0 14 2 17q12 4 29 4q14 0 47 -16.5t33 -26.5q0 -18 -25 -29q-23 -8 -55 -8q-166 0 -275 86q-106 86 -106 188zM1430 119q0 45 36.5 84t120.5 39q51 0 84 -13l2 -32q-27 10 -61 14q-66 0 -90 -37q-27 -39 -27 -70 q0 -33 29 -57q25 -23 84 -22q18 0 32 6q23 8 27 12q8 6 19 23q10 18 12 24q0 4 3 12.5l5 14.5q2 10 2 24q0 2 1 9.5t1 11.5l2 12q0 125 -39 281q49 -16 78 -19l10 -33q10 -35 11 -36q0 -6 6 -33l8 -41q4 -16 6 -39q4 -33 4 -49q0 -6 1 -22.5t1 -24.5q-2 -14 -6 -35 q-10 -37 -14 -45q-4 -10 -27 -37q-18 -20 -53 -31q-37 -10 -86 -10q-90 0 -137 35q-45 33 -45 84zM1501 551l19 20q55 -27 141 -57q88 -31 147 -31q47 0 72 18.5t29 41t14 39.5q12 18 41 18q23 0 35 -14q12 -15 12 -37q0 -35 -41 -66q-37 -29 -110 -28q-86 0 -197 30 q-62 19 -162 66zM1653 608q0 104 14 164q29 174 57 244q8 14 9 18l32 80q14 29 37 51q33 25 70 25q41 0 70 -21q31 -23 30 -47q0 -18 -39 -80q-31 -47 -75 -108l-37 -49q-82 -109 -82 -297q0 -43 2 -60q-57 10 -86 23q-2 16 -2 57zM1688 1356q55 70 94 69q37 0 143.5 -22.5 t134.5 -22.5h29l25 6l20 5q2 0 16 10q4 4 10 6l5 2l6 5q6 5 10 9t10 9l7 4l3 -2q3 -2 7 -5.5t8 -7.5q12 -10 16 -22q-4 -4 -22.5 -16.5t-26.5 -16.5l-8 -3q-8 -3 -16 -7q-14 -6 -31 -10q-10 -2 -37 -3q-63 0 -154 23q-98 25 -112 25q-37 0 -62 -25q-27 -27 -32 -27 q-20 1 -43 17zM1823 76q0 2 2 10l4 15.5t2 15.5l14 -27q2 -6 6 -12t6.5 -10.5t4.5 -6.5q8 -12 16 -20q14 -14 22.5 -18.5t26.5 -4.5q35 0 62 21q29 23 73 88l2 -2q-59 -125 -143 -125q-59 0 -98 76z" />
<glyph unicode="&#xc4;" horiz-adv-x="2088" d="M109 254q0 47 41 84q40 37 122 37q70 0 131 -33q57 -31 89 -98q18 -37 18 -58q-14 -20 -53 -20q-33 0 -45 12v58q0 55 -33 86q-35 31 -90 30q-51 0 -76 -41t-25 -94q0 -57 39 -96q40 -40 105 -62q53 -18 119 -28q49 -8 104 -8t109 4q33 2 98 26q58 22 104 56 q61 45 133 106t177 166l239 246q100 109 238 288q-29 -119 -35 -180l-150 -168q-164 -182 -288 -297q-117 -109 -219 -172q-98 -61 -172 -79.5t-171 -18.5q-123 0 -217 18.5t-149 42.5q-51 23 -88 64q-33 37 -45 65q-10 27 -10 64zM596 735q0 72 57 103q61 33 150 32 q20 0 78 -8q33 -4 75 -16q33 -8 82 -29q27 -10 46.5 -19.5t31.5 -13.5q20 -8 78 -36q25 -12 42 -22.5t28 -14.5l65 -37q12 -6 24.5 -14.5t19.5 -12.5t9 -4l-20 -20q-127 76 -289 149q-152 70 -223 70q-70 -4 -119 -35q-51 -33 -51 -86q0 -66 20 -109q23 -47 45.5 -67.5 t63.5 -32.5q33 -10 61 -14q14 -2 52 -2q12 2 18 8t6 16q0 14 2 17q12 4 29 4q14 0 47 -16.5t33 -26.5q0 -18 -25 -29q-23 -8 -55 -8q-166 0 -275 86q-106 86 -106 188zM1430 119q0 45 36.5 84t120.5 39q51 0 84 -13l2 -32q-27 10 -61 14q-66 0 -90 -37q-27 -39 -27 -70 q0 -33 29 -57q25 -23 84 -22q18 0 32 6q23 8 27 12q8 6 19 23q10 18 12 24q0 4 3 12.5l5 14.5q2 10 2 24q0 2 1 9.5t1 11.5l2 12q0 125 -39 281q49 -16 78 -19l10 -33q10 -35 11 -36q0 -6 6 -33l8 -41q4 -16 6 -39q4 -33 4 -49q0 -6 1 -22.5t1 -24.5q-2 -14 -6 -35 q-10 -37 -14 -45q-4 -10 -27 -37q-18 -20 -53 -31q-37 -10 -86 -10q-90 0 -137 35q-45 33 -45 84zM1501 551l19 20q55 -27 141 -57q88 -31 147 -31q47 0 72 18.5t29 41t14 39.5q12 18 41 18q23 0 35 -14q12 -15 12 -37q0 -35 -41 -66q-37 -29 -110 -28q-86 0 -197 30 q-62 19 -162 66zM1653 608q0 104 14 164q29 174 57 244q8 14 9 18l32 80q14 29 37 51q33 25 70 25q41 0 70 -21q31 -23 30 -47q0 -18 -39 -80q-31 -47 -75 -108l-37 -49q-82 -109 -82 -297q0 -43 2 -60q-57 10 -86 23q-2 16 -2 57zM1743 1366q0 12 26 25q29 12 29 30 q0 4 -10 15l-4 4q49 20 80 20q27 0 26 -20q0 -33 -35 -64q-33 -31 -75 -30q-37 0 -37 20zM1823 76q0 2 2 10l4 15.5t2 15.5l14 -27q2 -6 6 -12t6.5 -10.5t4.5 -6.5q8 -12 16 -20q14 -14 22.5 -18.5t26.5 -4.5q35 0 62 21q29 23 73 88l2 -2q-59 -125 -143 -125q-59 0 -98 76z M2142 1366q0 12 29 25q27 12 27 30q0 10 -15 19q59 20 78 20q29 0 29 -20q0 -33 -33 -63.5t-78 -30.5q-37 0 -37 20z" />
<glyph unicode="&#xc5;" horiz-adv-x="2088" d="M109 254q0 47 41 84q40 37 122 37q70 0 131 -33q57 -31 89 -98q18 -37 18 -58q-14 -20 -53 -20q-33 0 -45 12v58q0 55 -33 86q-35 31 -90 30q-51 0 -76 -41t-25 -94q0 -57 39 -96q40 -40 105 -62q53 -18 119 -28q49 -8 104 -8t109 4q33 2 98 26q58 22 104 56 q61 45 133 106t177 166l239 246q100 109 238 288q-29 -119 -35 -180l-150 -168q-164 -182 -288 -297q-117 -109 -219 -172q-98 -61 -172 -79.5t-171 -18.5q-123 0 -217 18.5t-149 42.5q-51 23 -88 64q-33 37 -45 65q-10 27 -10 64zM596 735q0 72 57 103q61 33 150 32 q20 0 78 -8q33 -4 75 -16q33 -8 82 -29q27 -10 46.5 -19.5t31.5 -13.5q20 -8 78 -36q25 -12 42 -22.5t28 -14.5l65 -37q12 -6 24.5 -14.5t19.5 -12.5t9 -4l-20 -20q-127 76 -289 149q-152 70 -223 70q-70 -4 -119 -35q-51 -33 -51 -86q0 -66 20 -109q23 -47 45.5 -67.5 t63.5 -32.5q33 -10 61 -14q14 -2 52 -2q12 2 18 8t6 16q0 14 2 17q12 4 29 4q14 0 47 -16.5t33 -26.5q0 -18 -25 -29q-23 -8 -55 -8q-166 0 -275 86q-106 86 -106 188zM1430 119q0 45 36.5 84t120.5 39q51 0 84 -13l2 -32q-27 10 -61 14q-66 0 -90 -37q-27 -39 -27 -70 q0 -33 29 -57q25 -23 84 -22q18 0 32 6q23 8 27 12q8 6 19 23q10 18 12 24q0 4 3 12.5l5 14.5q2 10 2 24q0 2 1 9.5t1 11.5l2 12q0 125 -39 281q49 -16 78 -19l10 -33q10 -35 11 -36q0 -6 6 -33l8 -41q4 -16 6 -39q4 -33 4 -49q0 -6 1 -22.5t1 -24.5q-2 -14 -6 -35 q-10 -37 -14 -45q-4 -10 -27 -37q-18 -20 -53 -31q-37 -10 -86 -10q-90 0 -137 35q-45 33 -45 84zM1501 551l19 20q55 -27 141 -57q88 -31 147 -31q47 0 72 18.5t29 41t14 39.5q12 18 41 18q23 0 35 -14q12 -15 12 -37q0 -35 -41 -66q-37 -29 -110 -28q-86 0 -197 30 q-62 19 -162 66zM1653 608q0 104 14 164q29 174 57 244q8 14 9 18l32 80q14 29 37 51q33 25 70 25q41 0 70 -21q31 -23 30 -47q0 -18 -39 -80q-31 -47 -75 -108l-37 -49q-82 -109 -82 -297q0 -43 2 -60q-57 10 -86 23q-2 16 -2 57zM1808 1349.5q0 55.5 47 92.5q49 39 115 39 t115 -39q47 -37 47 -92.5t-47 -92.5q-45 -37 -114.5 -36.5t-115.5 36.5q-47 37 -47 92.5zM1823 76q0 2 2 10l4 15.5t2 15.5l14 -27q2 -6 6 -12t6.5 -10.5t4.5 -6.5q8 -12 16 -20q14 -14 22.5 -18.5t26.5 -4.5q35 0 62 21q29 23 73 88l2 -2q-59 -125 -143 -125q-59 0 -98 76z M1868 1346q0 -39 33 -64q37 -27 79 -27q41 0 78 27q33 25 33 64q0 37 -33 63.5t-78 26.5q-47 0 -79.5 -26.5t-32.5 -63.5z" />
<glyph unicode="&#xc7;" horiz-adv-x="1341" d="M143 633v4q121 10 197 25q63 12 190 57l-38 -51q-167 -29 -349 -35zM383 313q0 100 53 195q57 100 117 170q10 10 41 47l41 49q12 16 37 41l39 41q2 4 14 16.5t23 22.5q6 6 43 37l43 35q10 8 28.5 20t24.5 17l55 34q262 152 408 152q72 0 71 -41v-10q0 -9 -6 -19 q-2 -2 -39 -28q-31 -22 -92 -56l-168 -92l-301 -158q31 37 82 80l170 99q236 129 256 151q-168 -33 -328 -127q-96 -53 -309 -282q-55 -59 -121 -175q-68 -120 -67 -196q0 -127 114 -213q113 -86 353 -86q120 0 172 43q51 43 51 102q0 49 -27 86q-25 35 -65 35h-21 q-4 0 -7 -1l-3 -1q-2 0 -2 4q0 6 4 10q6 8 23 11q20 4 34 4q66 0 119 -45q57 -47 57 -113q0 -31 -14 -53q-20 -35 -47 -56q-35 -29 -104 -47q-63 -16 -170 -16q-133 0 -248 31q-114 31 -185 80q-74 51 -110 102q-39 53 -39 100zM709 -201q0 4 6 4q20 0 53 -45q33 -43 55 -47 q25 10 25 72q0 106 -98 211q18 -4 30 -6q16 -4 21 -6q55 -33 80 -74q27 -45 26 -84q0 -49 -18 -84q-20 -39 -66 -39q-23 0 -37 8q-12 6 -38 41q-27 33 -37 41q-2 2 -2 8z" />
<glyph unicode="&#xc8;" horiz-adv-x="1259" d="M109 408q0 98 71 178q74 82 211 131q4 -20 10 -31q-74 -45 -114 -113q-45 -74 -45 -141q0 -55 12 -104q14 -55 41 -107q31 -58 80 -98q49 -39 133 -68q80 -27 194 -26q41 0 66 4q41 6 90 20q57 16 107 53q55 41 88 97q0 -4 3 -17.5t5 -23.5q2 -8 3 -16.5t2 -12.5t1 -6 q-63 -57 -133 -86q-72 -31 -123 -37q-31 -4 -111 -4q-156 0 -286 43q-135 43 -219 137q-86 96 -86 228zM418 858q0 20 8 70q6 37 31 86q25 47 65 86q37 33 113 63q68 27 166 27q80 0 139 -21q63 -23 94 -47q34 -28 56 -61q20 -31 26 -55q6 -23 6 -35q0 -55 -39 -76 q-41 -23 -84 -23q-84 0 -84 21q0 6 11 10q6 2 28.5 2t28.5 2q41 10 51 29q10 20 10 43q0 51 -40 88q-41 39 -91 53q-45 14 -96 15q-66 0 -133 -25q-57 -20 -88 -55q-31 -34 -49 -80q-18 -45 -25 -82q-4 -23 -4 -74q0 -49 4 -90q12 -66 39 -113q37 -59 78 -88q37 -25 96 -24 q68 0 105 49t37 96q0 113 -160 113q-78 0 -152 -19l-2 31q74 18 154 19q109 0 178 -48q68 -46 68 -110q0 -61 -37 -103q-35 -39 -84 -51q-47 -12 -105 -12q-49 0 -90 14q-45 16 -53 23l-43 33q-70 55 -111 166q-22 83 -22 153zM932 1253q6 8 13 16.5l17.5 21t16.5 20.5 q6 6 13 14l11.5 13t8.5 10.5t6 9.5q14 23 14 41q0 39 -59 47q2 2 12 10t16 12q18 12 29 23q2 2 6 5t9.5 6t7.5 5q12 10 20 13q12 4 14 4q18 0 33 -14.5t21 -36.5v-13q0 -51 -117 -143q-9 -9 -25 -19q-6 -4 -14 -10t-20 -12q-6 -4 -11.5 -7t-8.5 -5t-6 -5.5t-7 -5.5z M1061 381q0 6 2 8q0 6 41 12q29 4 67 5q10 0 11 -29q-12 -94 -19 -115q-10 35 -12 35q-10 0 -10 -70q0 -80 10 -102q12 -29 33 -29q29 0 45 25q4 4 4 6l2 -2h2q0 -2 -6 -14q-4 -8 -19 -23q-10 -10 -22 -10q-80 0 -88 86q-2 8 -5 27.5t-5 27.5q-2 10 -6.5 24.5t-4.5 18.5 q-20 68 -20 119z" />
<glyph unicode="&#xc9;" horiz-adv-x="1259" d="M109 408q0 98 71 178q74 82 211 131q4 -20 10 -31q-74 -45 -114 -113q-45 -74 -45 -141q0 -55 12 -104q14 -55 41 -107q31 -58 80 -98q49 -39 133 -68q80 -27 194 -26q41 0 66 4q41 6 90 20q57 16 107 53q55 41 88 97q0 -4 3 -17.5t5 -23.5q2 -8 3 -16.5t2 -12.5t1 -6 q-63 -57 -133 -86q-72 -31 -123 -37q-31 -4 -111 -4q-156 0 -286 43q-135 43 -219 137q-86 96 -86 228zM418 858q0 20 8 70q6 37 31 86q25 47 65 86q37 33 113 63q68 27 166 27q80 0 139 -21q63 -23 94 -47q34 -28 56 -61q20 -31 26 -55q6 -23 6 -35q0 -55 -39 -76 q-41 -23 -84 -23q-84 0 -84 21q0 6 11 10q6 2 28.5 2t28.5 2q41 10 51 29q10 20 10 43q0 51 -40 88q-41 39 -91 53q-45 14 -96 15q-66 0 -133 -25q-57 -20 -88 -55q-31 -34 -49 -80q-18 -45 -25 -82q-4 -23 -4 -74q0 -49 4 -90q12 -66 39 -113q37 -59 78 -88q37 -25 96 -24 q68 0 105 49t37 96q0 113 -160 113q-78 0 -152 -19l-2 31q74 18 154 19q109 0 178 -48q68 -46 68 -110q0 -61 -37 -103q-35 -39 -84 -51q-47 -12 -105 -12q-49 0 -90 14q-45 16 -53 23l-43 33q-70 55 -111 166q-22 83 -22 153zM862 1255l8 37q16 68 19 72q12 33 26 59 q29 53 56 70q29 18 65 18q47 0 47 -26q0 -18 -30 -107q-33 27 -45 27q-39 0 -72 -39q-4 -4 -70 -113zM1061 381q0 6 2 8q0 6 41 12q29 4 67 5q10 0 11 -29q-12 -94 -19 -115q-10 35 -12 35q-10 0 -10 -70q0 -80 10 -102q12 -29 33 -29q29 0 45 25q4 4 4 6l2 -2h2 q0 -2 -6 -14q-4 -8 -19 -23q-10 -10 -22 -10q-80 0 -88 86q-2 8 -5 27.5t-5 27.5q-2 10 -6.5 24.5t-4.5 18.5q-20 68 -20 119z" />
<glyph unicode="&#xca;" horiz-adv-x="1259" d="M109 408q0 98 71 178q74 82 211 131q4 -20 10 -31q-74 -45 -114 -113q-45 -74 -45 -141q0 -55 12 -104q14 -55 41 -107q31 -58 80 -98q49 -39 133 -68q80 -27 194 -26q41 0 66 4q41 6 90 20q57 16 107 53q55 41 88 97q0 -4 3 -17.5t5 -23.5q2 -8 3 -16.5t2 -12.5t1 -6 q-63 -57 -133 -86q-72 -31 -123 -37q-31 -4 -111 -4q-156 0 -286 43q-135 43 -219 137q-86 96 -86 228zM418 858q0 20 8 70q6 37 31 86q25 47 65 86q37 33 113 63q68 27 166 27q80 0 139 -21q63 -23 94 -47q34 -28 56 -61q20 -31 26 -55q6 -23 6 -35q0 -55 -39 -76 q-41 -23 -84 -23q-84 0 -84 21q0 6 11 10q6 2 28.5 2t28.5 2q41 10 51 29q10 20 10 43q0 51 -40 88q-41 39 -91 53q-45 14 -96 15q-66 0 -133 -25q-57 -20 -88 -55q-31 -34 -49 -80q-18 -45 -25 -82q-4 -23 -4 -74q0 -49 4 -90q12 -66 39 -113q37 -59 78 -88q37 -25 96 -24 q68 0 105 49t37 96q0 113 -160 113q-78 0 -152 -19l-2 31q74 18 154 19q109 0 178 -48q68 -46 68 -110q0 -61 -37 -103q-35 -39 -84 -51q-47 -12 -105 -12q-49 0 -90 14q-45 16 -53 23l-43 33q-70 55 -111 166q-22 83 -22 153zM621 1262q14 33 43 55q41 33 63 45 q41 23 76 57q45 45 69 88h101q39 -68 78 -106q12 -12 35.5 -38t35.5 -36q29 -25 45 -65q-111 57 -166 96q-43 29 -83 80q-18 -20 -48 -43q-18 -14 -55 -35l-86 -42.5t-108 -55.5zM1061 381q0 6 2 8q0 6 41 12q29 4 67 5q10 0 11 -29q-12 -94 -19 -115q-10 35 -12 35 q-10 0 -10 -70q0 -80 10 -102q12 -29 33 -29q29 0 45 25q4 4 4 6l2 -2h2q0 -2 -6 -14q-4 -8 -19 -23q-10 -10 -22 -10q-80 0 -88 86q-2 8 -5 27.5t-5 27.5q-2 10 -6.5 24.5t-4.5 18.5q-20 68 -20 119z" />
<glyph unicode="&#xcb;" horiz-adv-x="1259" d="M109 408q0 98 71 178q74 82 211 131q4 -20 10 -31q-74 -45 -114 -113q-45 -74 -45 -141q0 -55 12 -104q14 -55 41 -107q31 -58 80 -98q49 -39 133 -68q80 -27 194 -26q41 0 66 4q41 6 90 20q57 16 107 53q55 41 88 97q0 -4 3 -17.5t5 -23.5q2 -8 3 -16.5t2 -12.5t1 -6 q-63 -57 -133 -86q-72 -31 -123 -37q-31 -4 -111 -4q-156 0 -286 43q-135 43 -219 137q-86 96 -86 228zM418 858q0 20 8 70q6 37 31 86q25 47 65 86q37 33 113 63q68 27 166 27q80 0 139 -21q63 -23 94 -47q34 -28 56 -61q20 -31 26 -55q6 -23 6 -35q0 -55 -39 -76 q-41 -23 -84 -23q-84 0 -84 21q0 6 11 10q6 2 28.5 2t28.5 2q41 10 51 29q10 20 10 43q0 51 -40 88q-41 39 -91 53q-45 14 -96 15q-66 0 -133 -25q-57 -20 -88 -55q-31 -34 -49 -80q-18 -45 -25 -82q-4 -23 -4 -74q0 -49 4 -90q12 -66 39 -113q37 -59 78 -88q37 -25 96 -24 q68 0 105 49t37 96q0 113 -160 113q-78 0 -152 -19l-2 31q74 18 154 19q109 0 178 -48q68 -46 68 -110q0 -61 -37 -103q-35 -39 -84 -51q-47 -12 -105 -12q-49 0 -90 14q-45 16 -53 23l-43 33q-70 55 -111 166q-22 83 -22 153zM702 1366q0 12 27 25q29 12 29 30q0 4 -10 15 l-5 4q49 20 80 20q27 0 27 -20q0 -33 -35 -64q-33 -31 -76 -30q-37 0 -37 20zM1061 381q0 6 2 8q0 6 41 12q29 4 67 5q10 0 11 -29q-12 -94 -19 -115q-10 35 -12 35q-10 0 -10 -70q0 -80 10 -102q12 -29 33 -29q29 0 45 25q4 4 4 6l2 -2h2q0 -2 -6 -14q-4 -8 -19 -23 q-10 -10 -22 -10q-80 0 -88 86q-2 8 -5 27.5t-5 27.5q-2 10 -6.5 24.5t-4.5 18.5q-20 68 -20 119zM1102 1366q0 12 28 25q27 12 27 30q0 10 -12 19q59 20 78 20q27 0 26 -20q0 -33 -32.5 -63.5t-75.5 -30.5q-39 0 -39 20z" />
<glyph unicode="&#xcc;" horiz-adv-x="1280" d="M217 928q0 80 74 143q76 66 190 66q74 0 148 -23q72 -23 114 -49q31 -20 99 -59q53 -31 88 -43q84 -27 166 -27q86 0 192 53q0 -15 -6 -31q-8 -23 -10 -24l-6 -10q-55 -16 -117 -17q-119 0 -199 21q-88 23 -133 51l-29.5 18.5t-19.5 11.5t-17.5 10t-25.5 17 q-41 27 -102 49q-55 20 -134 21q-58 0 -98 -25q-41 -25 -55 -63q-12 -31 -21 -66q-6 -25 -6 -45q0 -39 18.5 -90t51.5 -51q10 0 14 6q4 8 4 27v22q0 6 -1 13.5t-1 9.5q0 23 8 22q16 0 48 -18q29 -16 28 -37q0 -25 -22 -47q-27 -27 -70 -27q-51 0 -110.5 59.5t-59.5 131.5z M291 285q0 49 55 77.5t123 28.5q68 -4 111 -26.5t69 -59.5q23 -31 35 -59.5t12 -44.5q-20 -25 -57 -25q-29 0 -43 14q-4 12 -4 29q0 23 -4 51q-4 27 -15 45q-12 23 -36 35q-29 14 -68 15q-43 0 -70 -31q-27 -29 -26 -76q0 -57 33 -102q37 -49 79 -70q45 -20 103 -37 q43 -12 92 -16q45 -4 57 -4q113 0 160 34q82 61 170 236q86 170 174 389q78 195 119 273q16 27 35 90q16 57 41 94q20 33 71 45q22 0 43 -12q23 -12 23 -31q-10 -57 -31 -88q-53 -90 -137 -273l-145 -317q-68 -147 -138 -264q-74 -121 -131 -148q-121 -57 -250 -57 q-176 0 -313 88t-137 197zM1079 1253q6 8 13.5 16.5t17.5 21l16 20.5q33 39 37 47q16 27 17 41q0 39 -60 47q2 2 12.5 10t16.5 12l29 23l22 16q12 10 21 13q12 4 16 4q16 0 30.5 -14.5t20.5 -36.5v-13q0 -51 -117 -143q-9 -9 -24 -19q-14 -10 -35 -22q-6 -4 -11 -7t-8 -5 t-6.5 -5.5t-7.5 -5.5z" />
<glyph unicode="&#xcd;" horiz-adv-x="1280" d="M217 928q0 80 74 143q76 66 190 66q74 0 148 -23q72 -23 114 -49q31 -20 99 -59q53 -31 88 -43q84 -27 166 -27q86 0 192 53q0 -15 -6 -31q-8 -23 -10 -24l-6 -10q-55 -16 -117 -17q-119 0 -199 21q-88 23 -133 51l-29.5 18.5t-19.5 11.5t-17.5 10t-25.5 17 q-41 27 -102 49q-55 20 -134 21q-58 0 -98 -25q-41 -25 -55 -63q-12 -31 -21 -66q-6 -25 -6 -45q0 -39 18.5 -90t51.5 -51q10 0 14 6q4 8 4 27v22q0 6 -1 13.5t-1 9.5q0 23 8 22q16 0 48 -18q29 -16 28 -37q0 -25 -22 -47q-27 -27 -70 -27q-51 0 -110.5 59.5t-59.5 131.5z M291 285q0 49 55 77.5t123 28.5q68 -4 111 -26.5t69 -59.5q23 -31 35 -59.5t12 -44.5q-20 -25 -57 -25q-29 0 -43 14q-4 12 -4 29q0 23 -4 51q-4 27 -15 45q-12 23 -36 35q-29 14 -68 15q-43 0 -70 -31q-27 -29 -26 -76q0 -57 33 -102q37 -49 79 -70q45 -20 103 -37 q43 -12 92 -16q45 -4 57 -4q113 0 160 34q82 61 170 236q86 170 174 389q78 195 119 273q16 27 35 90q16 57 41 94q20 33 71 45q22 0 43 -12q23 -12 23 -31q-10 -57 -31 -88q-53 -90 -137 -273l-145 -317q-68 -147 -138 -264q-74 -121 -131 -148q-121 -57 -250 -57 q-176 0 -313 88t-137 197zM973 1255l8 37q16 68 18 72q16 43 25 59q33 53 57 70q29 18 64 18q51 0 51 -26q0 -14 -35 -107q-33 27 -43 27q-39 0 -74 -39l-67 -113z" />
<glyph unicode="&#xce;" horiz-adv-x="1280" d="M217 928q0 80 74 143q76 66 190 66q74 0 148 -23q72 -23 114 -49q31 -20 99 -59q53 -31 88 -43q84 -27 166 -27q86 0 192 53q0 -15 -6 -31q-8 -23 -10 -24l-6 -10q-55 -16 -117 -17q-119 0 -199 21q-88 23 -133 51l-29.5 18.5t-19.5 11.5t-17.5 10t-25.5 17 q-41 27 -102 49q-55 20 -134 21q-58 0 -98 -25q-41 -25 -55 -63q-12 -31 -21 -66q-6 -25 -6 -45q0 -39 18.5 -90t51.5 -51q10 0 14 6q4 8 4 27v22q0 6 -1 13.5t-1 9.5q0 23 8 22q16 0 48 -18q29 -16 28 -37q0 -25 -22 -47q-27 -27 -70 -27q-51 0 -110.5 59.5t-59.5 131.5z M291 285q0 49 55 77.5t123 28.5q68 -4 111 -26.5t69 -59.5q23 -31 35 -59.5t12 -44.5q-20 -25 -57 -25q-29 0 -43 14q-4 12 -4 29q0 23 -4 51q-4 27 -15 45q-12 23 -36 35q-29 14 -68 15q-43 0 -70 -31q-27 -29 -26 -76q0 -57 33 -102q37 -49 79 -70q45 -20 103 -37 q43 -12 92 -16q45 -4 57 -4q113 0 160 34q82 61 170 236q86 170 174 389q78 195 119 273q16 27 35 90q16 57 41 94q20 33 71 45q22 0 43 -12q23 -12 23 -31q-10 -57 -31 -88q-53 -90 -137 -273l-145 -317q-68 -147 -138 -264q-74 -121 -131 -148q-121 -57 -250 -57 q-176 0 -313 88t-137 197zM748 1262q14 33 43 55q37 29 65 45q41 23 76 57q41 41 67 88h101q35 -66 76 -106l25.5 -26.5t27.5 -28l20 -19.5q31 -29 47 -65q-119 61 -168 96q-35 25 -84 80q-12 -14 -47 -43q-18 -14 -55 -35l-86 -42.5t-108 -55.5z" />
<glyph unicode="&#xcf;" horiz-adv-x="1280" d="M217 928q0 80 74 143q76 66 190 66q74 0 148 -23q72 -23 114 -49q31 -20 99 -59q53 -31 88 -43q84 -27 166 -27q86 0 192 53q0 -15 -6 -31q-8 -23 -10 -24l-6 -10q-55 -16 -117 -17q-119 0 -199 21q-88 23 -133 51l-29.5 18.5t-19.5 11.5t-17.5 10t-25.5 17 q-41 27 -102 49q-55 20 -134 21q-58 0 -98 -25q-41 -25 -55 -63q-12 -31 -21 -66q-6 -25 -6 -45q0 -39 18.5 -90t51.5 -51q10 0 14 6q4 8 4 27v22q0 6 -1 13.5t-1 9.5q0 23 8 22q16 0 48 -18q29 -16 28 -37q0 -25 -22 -47q-27 -27 -70 -27q-51 0 -110.5 59.5t-59.5 131.5z M291 285q0 49 55 77.5t123 28.5q68 -4 111 -26.5t69 -59.5q23 -31 35 -59.5t12 -44.5q-20 -25 -57 -25q-29 0 -43 14q-4 12 -4 29q0 23 -4 51q-4 27 -15 45q-12 23 -36 35q-29 14 -68 15q-43 0 -70 -31q-27 -29 -26 -76q0 -57 33 -102q37 -49 79 -70q45 -20 103 -37 q43 -12 92 -16q45 -4 57 -4q113 0 160 34q82 61 170 236q86 170 174 389q78 195 119 273q16 27 35 90q16 57 41 94q20 33 71 45q22 0 43 -12q23 -12 23 -31q-10 -57 -31 -88q-53 -90 -137 -273l-145 -317q-68 -147 -138 -264q-74 -121 -131 -148q-121 -57 -250 -57 q-176 0 -313 88t-137 197zM801 1366q0 12 26 25q29 12 29 30q0 4 -10 15l-4 4q47 20 78 20q29 0 28 -20q0 -33 -35 -64q-33 -31 -75 -30q-37 0 -37 20zM1200 1366q0 12 29 25q27 12 26 30q0 10 -14 19q55 20 80 20q27 0 27 -20q0 -33 -35 -63.5t-76 -30.5q-37 0 -37 20z" />
<glyph unicode="&#xd0;" horiz-adv-x="2158" d="M252 1255q0 31 12 70q14 45 37 94q25 51 82 103q55 49 129 80q111 41 272 40q242 0 426 -65q186 -72 285 -127q127 -72 227 -156q178 -147 291 -348q94 -162 94 -428q0 -100 -53 -205q-61 -121 -115 -176q-39 -43 -124 -90q-90 -49 -183 -49q-104 0 -159 20 q-43 16 -189 101l16 24q63 -37 100.5 -55t98.5 -39q55 -18 123 -18q23 0 33 2q20 4 31 8l24 8q4 2 27 17q6 4 13 10t9 6q6 3 25 18q12 10 20 19q68 53 133.5 178t65.5 272q0 164 -64 320q-63 160 -231 325q-233 240 -516 338q-43 18 -160 41q-102 20 -162 21 q-121 0 -182 -12q-59 -12 -135 -46q-72 -31 -131 -133q-57 -100 -57 -178t53 -162q53 -86 127 -143q70 -55 157 -94q84 -37 139.5 -37t84.5 22q27 20 26 62q0 25 -24.5 57.5t-36.5 71.5q0 29 18 47q20 20 35 23q10 2 35 2q52 0 74 -37q20 -35 20 -80q0 -68 -51 -143 q-37 -55 -141 -56q-113 0 -263 72q-143 70 -256 184q-110 113 -110 221zM838 252q0 37 22 70q20 31 64 30q35 0 47 -2q18 -2 41 -14q29 -14 35 -19q29 -18 49 -34q51 -39 63 -47l-10 -29q-104 74 -139 94q-23 12 -33 12q-27 0 -37 -18q-12 -22 -12 -49q0 -14 6 -45 q8 -43 20 -74q16 -41 43 -72q27 -29 66 -28q10 0 22.5 6t22.5 16q6 6 18 23q2 4 5.5 8t7.5 11t6 13q10 18 16 33q2 6 7.5 15.5t11.5 23.5q10 20 14 37q35 66 133 279l100 -3q-111 -248 -161 -323q-63 -90 -103 -125q-45 -39 -100 -39q-72 0 -127 49q-53 47 -75.5 104.5 t-22.5 96.5zM1087 539q0 23 15 57q23 -2 180 -2q57 0 120.5 -1t70.5 -1q199 2 335 16q-12 -49 -18 -67q-84 -8 -193 -9q-205 0 -254 5q-49 2 -256 2zM1384 631q162 385 175 502q98 -2 98 -60q0 -2 -23 -65l-63 -168q-70 -182 -82 -211z" />
<glyph unicode="&#xd1;" horiz-adv-x="2217" d="M109 264q0 39 18 65.5t45 39.5q31 14 51 16q14 2 37 2q199 0 238 -180q0 -27 -49 -27q-31 0 -52 13q4 37 4 49q0 111 -118 110q-31 0 -56 -10q-18 -8 -28.5 -30.5t-12.5 -39.5q-2 -12 -2 -45q0 -55 68 -100q72 -49 151.5 -71.5t153.5 -22.5q61 0 84 2q41 4 96 20 q57 16 115 51q51 31 127 96.5t141 155.5q86 119 156 232q86 141 168 317q25 61 29 66q4 8 22 51q4 10 8 18.5t6 14.5q2 2 7 22q4 16 4 18.5t1 7.5t1 11v23q6 20 26 35q23 16 41 16q27 0 47.5 -10.5t22.5 -18.5q4 -12 4 -14q0 -4 -4 -16.5t-8 -18.5q-2 -2 -5 -8l-4 -6 q-18 -57 -63 -160q-2 -2 -20 -49l-48 -113q-29 -68 -75 -149q-57 -102 -105 -170q-61 -90 -139 -168q-90 -90 -172 -148q-88 -61 -211 -102q-117 -39 -248 -39q-188 0 -321 86q-131 86 -131 178zM324 932q0 55 30 94q27 35 82 59q41 18 99 29q43 8 102 8q94 -2 168 -24 q68 -20 113 -58q35 -29 71 -69q35 -39 60 -72q27 -37 61 -55q41 -23 90 -23q25 0 94 33q53 25 121 72l-24 -54q-117 -80 -189 -79q-61 0 -112.5 22.5t-77.5 54.5l-66 74q-34 40 -67 74q-33 33 -96.5 55.5t-141.5 22.5q-115 0 -166 -45q-53 -47 -53 -115t37 -129.5t80 -61.5 t71 15q25 12 29 28q0 4 1 14.5t3 14.5q4 12 8 12q16 0 35 -16q23 -18 23 -37q0 -10 -11 -24q-10 -12 -45 -23q-31 -8 -92 -8q-102 0 -168 63q-69 66 -69 148zM1606 897q35 76 51 127q8 -27 47 -96l111 -195q86 -150 163 -307q63 -102 82 -152q29 -115 29 -120 q0 -61 -35 -109q-33 -45 -65 -45q-31 0 -72 27q-37 25 -37 77q0 12 22.5 80t26.5 74q9 -18 19 -18q12 0 12 24q0 18 -12 41zM1741 1356q55 70 94 69q37 0 143.5 -22.5t132.5 -22.5h29q2 0 27 6q16 4 18 5q4 0 19 10q4 4 9 6l5 2q6 6 16 14q6 5 13 9q3 2 4 4q6 -6 16 -15 q12 -10 17 -22q-8 -8 -23 -17q-8 -4 -16.5 -10t-10.5 -6t-8 -3l-14 -7q-12 -6 -33 -10q-10 -2 -35 -3q-63 0 -153 23q-98 25 -113 25q-37 0 -61 -25q-27 -27 -35 -27q-18 1 -41 17zM1991 479q96 434 272 678q180 250 360 252q131 0 203 -20q70 -20 111 -70l4 -5l11 -13.5 t16 -16.5q-4 -10 -27 -16q-25 -6 -39 -6q-18 0 -27 6q-12 8 -26 24q-25 29 -33 37q-51 51 -147 51q-74 0 -166 -69q-86 -66 -172 -197q-84 -127 -154 -328q-66 -188 -104 -444q-41 76 -82 137z" />
<glyph unicode="&#xd2;" horiz-adv-x="1333" d="M162 393q0 227 92 412q88 178 248 282q152 100 340 101q154 0 264 -74q113 -76 113 -160q0 -53 -66 -190t-141 -219q-31 -31 -70 -49q-46 -22 -80 -31l-35 -10h-6v14q0 10 25 20q8 4 28.5 11.5t32.5 11.5q31 12 70 43q61 55 108.5 178t47.5 246q0 45 -33 84 q-27 33 -78 53q-41 16 -86 27q-35 8 -64 8q-145 0 -262 -68q-115 -68 -190 -182q-78 -121 -117 -262q-41 -152 -41 -315q0 -74 47 -133.5t117 -90.5q76 -33 141.5 -47t132.5 -14q115 0 213 53q102 55 166 137q61 80 113 179q47 90 70 172q20 74 20 125q0 90 -35 153 q-6 10 -6 21q0 4 4 24q4 31 6 33q2 8 2 29q4 -4 11 -7q47 -39 57 -51q23 -27 39 -71q18 -53 18 -125q0 -74 -18 -160q-16 -78 -68 -186q-46 -98 -116 -179q-74 -82 -187 -133q-119 -53 -260 -53q-68 0 -141 12q-76 12 -152 43q-74 31 -137 74q-51 37 -98 115q-39 65 -39 149 zM1145 1253l18.5 23.5l28.5 34.5q6 6 13 14l11.5 13t8.5 10.5t6 9.5q12 20 12 41q0 39 -59 47l30 22q12 8 27 23q2 2 6 5t9.5 6t7.5 5q12 10 20 13q12 4 16 4q16 0 31 -14.5t21 -36.5v-13q0 -51 -115 -143q-9 -9 -25 -19q-14 -10 -34 -22q-6 -4 -11.5 -7t-8.5 -5t-6 -5.5 t-7 -5.5z" />
<glyph unicode="&#xd3;" horiz-adv-x="1333" d="M162 393q0 227 92 412q88 178 248 282q152 100 340 101q154 0 264 -74q113 -76 113 -160q0 -53 -66 -190t-141 -219q-31 -31 -70 -49q-46 -22 -80 -31l-35 -10h-6v14q0 10 25 20q8 4 28.5 11.5t32.5 11.5q31 12 70 43q61 55 108.5 178t47.5 246q0 45 -33 84 q-27 33 -78 53q-41 16 -86 27q-35 8 -64 8q-145 0 -262 -68q-115 -68 -190 -182q-78 -121 -117 -262q-41 -152 -41 -315q0 -74 47 -133.5t117 -90.5q76 -33 141.5 -47t132.5 -14q115 0 213 53q102 55 166 137q61 80 113 179q47 90 70 172q20 74 20 125q0 90 -35 153 q-6 10 -6 21q0 4 4 24q4 31 6 33q2 8 2 29q4 -4 11 -7q47 -39 57 -51q23 -27 39 -71q18 -53 18 -125q0 -74 -18 -160q-16 -78 -68 -186q-46 -98 -116 -179q-74 -82 -187 -133q-119 -53 -260 -53q-68 0 -141 12q-76 12 -152 43q-74 31 -137 74q-51 37 -98 115q-39 65 -39 149 zM1067 1255l8 37q12 49 18.5 71.5t26.5 59.5q49 88 119 88q51 0 51 -26q0 -12 -33 -107q-37 27 -45 27q-37 0 -71 -39q-8 -8 -72 -113z" />
<glyph unicode="&#xd4;" horiz-adv-x="1333" d="M162 393q0 227 92 412q88 178 248 282q152 100 340 101q154 0 264 -74q113 -76 113 -160q0 -53 -66 -190t-141 -219q-31 -31 -70 -49q-46 -22 -80 -31l-35 -10h-6v14q0 10 25 20q8 4 28.5 11.5t32.5 11.5q31 12 70 43q61 55 108.5 178t47.5 246q0 45 -33 84 q-27 33 -78 53q-41 16 -86 27q-35 8 -64 8q-145 0 -262 -68q-115 -68 -190 -182q-78 -121 -117 -262q-41 -152 -41 -315q0 -74 47 -133.5t117 -90.5q76 -33 141.5 -47t132.5 -14q115 0 213 53q102 55 166 137q61 80 113 179q47 90 70 172q20 74 20 125q0 90 -35 153 q-6 10 -6 21q0 4 4 24q4 31 6 33q2 8 2 29q4 -4 11 -7q47 -39 57 -51q23 -27 39 -71q18 -53 18 -125q0 -74 -18 -160q-16 -78 -68 -186q-46 -98 -116 -179q-74 -82 -187 -133q-119 -53 -260 -53q-68 0 -141 12q-76 12 -152 43q-74 31 -137 74q-51 37 -98 115q-39 65 -39 149 zM676 1262q10 29 43 55q37 29 65 45q37 20 74 57q45 45 70 88h100q33 -66 76 -106l25.5 -26.5t27.5 -28l21 -19.5q29 -25 45 -65q-119 63 -166 96q-43 29 -84 80q-12 -14 -49 -43q-10 -8 -54 -35q-25 -15 -86 -43q-25 -10 -63.5 -30.5t-44.5 -24.5z" />
<glyph unicode="&#xd5;" horiz-adv-x="1333" d="M162 393q0 227 92 412q88 178 248 282q152 100 340 101q154 0 264 -74q113 -76 113 -160q0 -53 -66 -190t-141 -219q-31 -31 -70 -49q-46 -22 -80 -31l-35 -10h-6v14q0 10 25 20q8 4 28.5 11.5t32.5 11.5q31 12 70 43q61 55 108.5 178t47.5 246q0 45 -33 84 q-27 33 -78 53q-41 16 -86 27q-35 8 -64 8q-145 0 -262 -68q-115 -68 -190 -182q-78 -121 -117 -262q-41 -152 -41 -315q0 -74 47 -133.5t117 -90.5q76 -33 141.5 -47t132.5 -14q115 0 213 53q102 55 166 137q61 80 113 179q47 90 70 172q20 74 20 125q0 90 -35 153 q-6 10 -6 21q0 4 4 24q4 31 6 33q2 8 2 29q4 -4 11 -7q47 -39 57 -51q23 -27 39 -71q18 -53 18 -125q0 -74 -18 -160q-16 -78 -68 -186q-46 -98 -116 -179q-74 -82 -187 -133q-119 -53 -260 -53q-68 0 -141 12q-76 12 -152 43q-74 31 -137 74q-51 37 -98 115q-39 65 -39 149 zM735 1356q55 70 94 69.5t145.5 -23t133.5 -22.5h29l24 6q16 4 19 5q4 0 18 10q8 4 12 7l2 1l7 5q6 5 10 9l9 9l5 4l3 -2q3 -2 7 -5.5t9 -7.5q14 -12 18 -22l-6 -5q-6 -5 -14 -10l-21 -12l-20 -10q-16 -8 -23 -10q-9 -3 -25 -6q-10 -2 -30 -3q-66 0 -156 23q-98 25 -113 25 q-37 0 -61 -25q-27 -27 -33 -27q-20 1 -43 17z" />
<glyph unicode="&#xd6;" horiz-adv-x="1333" d="M162 393q0 227 92 412q88 178 248 282q152 100 340 101q154 0 264 -74q113 -76 113 -160q0 -53 -66 -190t-141 -219q-31 -31 -70 -49q-46 -22 -80 -31l-35 -10h-6v14q0 10 25 20q8 4 28.5 11.5t32.5 11.5q31 12 70 43q61 55 108.5 178t47.5 246q0 45 -33 84 q-27 33 -78 53q-41 16 -86 27q-35 8 -64 8q-145 0 -262 -68q-115 -68 -190 -182q-78 -121 -117 -262q-41 -152 -41 -315q0 -74 47 -133.5t117 -90.5q76 -33 141.5 -47t132.5 -14q115 0 213 53q102 55 166 137q61 80 113 179q47 90 70 172q20 74 20 125q0 90 -35 153 q-6 10 -6 21q0 4 4 24q4 31 6 33q2 8 2 29q4 -4 11 -7q47 -39 57 -51q23 -27 39 -71q18 -53 18 -125q0 -74 -18 -160q-16 -78 -68 -186q-46 -98 -116 -179q-74 -82 -187 -133q-119 -53 -260 -53q-68 0 -141 12q-76 12 -152 43q-74 31 -137 74q-51 37 -98 115q-39 65 -39 149 zM764 1366q0 12 29 25q27 12 26 30q0 6 -8 15q-2 2 -2 4q47 20 76 20q27 0 26 -20q0 -33 -34 -64t-74 -30q-39 0 -39 20zM1163 1366q0 12 29 24.5t29 30.5q0 9 -13 19q55 20 76 20q29 0 29 -20q0 -33 -35 -64q-33 -31 -76 -30q-39 0 -39 20z" />
<glyph unicode="&#xd7;" d="M90 303q104 72 279 166l323 180l21 -8l24 -12l25 -6l-344 -195q-223 -141 -248 -160q-23 2 -80 35zM172 627q6 20 29 61l184 -153l-57 -33zM457 395l57 33q96 -76 197 -131q-10 -33 -33 -72q-98 68 -221 170z" />
<glyph unicode="&#xd8;" horiz-adv-x="1294" d="M129 16l156 127l32 29l283 244l221 205q123 117 279 286q2 -12 10 -28q2 -4 5 -12.5t5 -12.5q4 -8 10 -14l-747 -725q-37 -41 -96 -92l-74 -64zM162 393q0 227 92 412q88 178 248 282q152 100 340 101q123 0 217 -53q96 -55 137 -123q18 -65 18 -92q0 -63 -30 -64 q-8 0 -23 14q-12 10 -31 70l-1 4q-1 4 -2 13.5t-1 17.5q-2 23 -14 55q-9 25 -31 55q-20 29 -69 47.5t-115 18.5q-154 0 -276 -68q-121 -68 -199 -184q-82 -123 -119 -262q-41 -152 -41 -313q0 -63 35 -121q-4 -2 -16 -15q-4 -4 -9.5 -8t-7.5 -6l-6 -6q-96 96 -96 225z M395 74l23 20q131 -66 280 -65q113 0 213.5 55t165.5 139q70 90 117 180q47 92 70 175q20 76 20 127q0 104 -35 155q10 27 11 64q0 27 -3 41q121 -96 121 -254q0 -74 -18 -160q-16 -78 -68 -186q-46 -98 -116 -179q-74 -82 -187 -133q-119 -53 -260 -53q-176 0 -334 74z M1223 1042l120 142l84 -54l-143 -141q-35 12 -45 12q-10 35 -16 41z" />
<glyph unicode="&#xd9;" horiz-adv-x="2199" d="M205 856q0 33 12 57q18 35 43 64q29 31 84 53q57 23 123 23q74 0 131 -19q51 -16 98 -45l78 -51q41 -25 88 -43q43 -16 111 -16q23 0 35 2q25 4 39 10q6 2 17 6t15 6q20 10 39 21l37 20q2 0 43 27q8 4 15.5 9t11.5 8l8 6t6 3l-16 -63l-6 -3l-16.5 -8t-20.5 -12 q-33 -20 -52 -26l-15 -7.5t-30 -13.5q-35 -14 -59 -16q-37 -4 -55 -4q-70 0 -135.5 26.5t-112.5 61.5q-37 29 -119 59q-74 29 -147 29q-52 0 -86 -19q-35 -18 -49.5 -46.5t-20.5 -57.5q-4 -18 -4 -66q0 -57 16 -96q18 -41 54 -41q20 0 20 29q0 12 -2 25q-4 25 -4 26 q0 10 6 14q23 0 43 -10q23 -10 27 -18l10 -15q0 -31 -21 -51q-23 -23 -38 -24q-25 -4 -39 -4q-53 0 -109 61q-53 59 -53 129zM981 313q0 41 25 115q23 68 49 121l20 39t27.5 52l46.5 87l106 207q6 27 23 72q15 40 49 92q31 47 74 57q61 -9 61 -43q-2 -35 -43 -88 q-18 -27 -26.5 -37t-30.5 -43q-12 -18 -21 -35q-20 -47 -90 -168q-74 -129 -129 -260q-53 -125 -53 -213q0 -240 211 -239q71 0 184 73q117 76 240 193q31 25 88 106q70 98 125 197q66 115 115 254t49 248q0 20 -4 24q-84 -90 -203 -333q-125 -256 -125 -381 q-35 -53 -57 -72q-6 25 -6 47q0 78 63 244q61 162 154 323q90 158 153 195q18 8 43 8q61 0 62 -108q0 -197 -170 -484q-168 -283 -260 -356q-172 -139 -252 -176q-68 -31 -209 -31q-45 0 -92 12q-41 10 -93 45q-49 33 -75 97q-29 67 -29 159zM1739 1253l45 58q6 6 13 14 t11 13l8.5 10.5t6.5 9.5q14 23 14 41q0 39 -59 47q2 2 11 10t17 12l29 23l23 16q12 10 20 13q12 4 14 4q18 0 33 -15t19 -36v-13q0 -51 -113 -143q-6 -6 -27 -19q-14 -10 -35 -22q-12 -6 -19 -13.5t-11 -9.5zM1743 170q18 14 51 51q6 -25 16 -55q6 -18 22.5 -51t31.5 -47 q12 -12 41 -27q25 -12 53 -12q45 0 76 30q27 27 47 62q18 31 26 31q12 0 26.5 -14.5t27.5 -14.5q4 0 12 4l2 -2q-25 -47 -82 -86t-141 -39q-49 0 -88 16.5t-61.5 45t-37.5 53.5q-2 2 -22 55z" />
<glyph unicode="&#xda;" horiz-adv-x="2199" d="M205 856q0 33 12 57q18 35 43 64q29 31 84 53q57 23 123 23q74 0 131 -19q51 -16 98 -45l78 -51q41 -25 88 -43q43 -16 111 -16q23 0 35 2q25 4 39 10q6 2 17 6t15 6q20 10 39 21l37 20q2 0 43 27q8 4 15.5 9t11.5 8l8 6t6 3l-16 -63l-6 -3l-16.5 -8t-20.5 -12 q-33 -20 -52 -26l-15 -7.5t-30 -13.5q-35 -14 -59 -16q-37 -4 -55 -4q-70 0 -135.5 26.5t-112.5 61.5q-37 29 -119 59q-74 29 -147 29q-52 0 -86 -19q-35 -18 -49.5 -46.5t-20.5 -57.5q-4 -18 -4 -66q0 -57 16 -96q18 -41 54 -41q20 0 20 29q0 12 -2 25q-4 25 -4 26 q0 10 6 14q23 0 43 -10q23 -10 27 -18l10 -15q0 -31 -21 -51q-23 -23 -38 -24q-25 -4 -39 -4q-53 0 -109 61q-53 59 -53 129zM981 313q0 41 25 115q23 68 49 121l20 39t27.5 52l46.5 87l106 207q6 27 23 72q15 40 49 92q31 47 74 57q61 -9 61 -43q-2 -35 -43 -88 q-18 -27 -26.5 -37t-30.5 -43q-12 -18 -21 -35q-20 -47 -90 -168q-74 -129 -129 -260q-53 -125 -53 -213q0 -240 211 -239q71 0 184 73q117 76 240 193q31 25 88 106q70 98 125 197q66 115 115 254t49 248q0 20 -4 24q-84 -90 -203 -333q-125 -256 -125 -381 q-35 -53 -57 -72q-6 25 -6 47q0 78 63 244q61 162 154 323q90 158 153 195q18 8 43 8q61 0 62 -108q0 -197 -170 -484q-168 -283 -260 -356q-172 -139 -252 -176q-68 -31 -209 -31q-45 0 -92 12q-41 10 -93 45q-49 33 -75 97q-29 67 -29 159zM1743 170q18 14 51 51 q6 -25 16 -55q6 -18 22.5 -51t31.5 -47q12 -12 41 -27q25 -12 53 -12q45 0 76 30q27 27 47 62q18 31 26 31q12 0 26.5 -14.5t27.5 -14.5q4 0 12 4l2 -2q-25 -47 -82 -86t-141 -39q-49 0 -88 16.5t-61.5 45t-37.5 53.5q-2 2 -22 55zM1757 1255l8 37q12 49 18.5 71.5 t26.5 59.5q49 88 119 88q51 0 51 -26q0 -12 -32 -107q-33 27 -45 27q-37 0 -72 -39q-8 -8 -72 -113z" />
<glyph unicode="&#xdb;" horiz-adv-x="2199" d="M205 856q0 33 12 57q18 35 43 64q29 31 84 53q57 23 123 23q74 0 131 -19q51 -16 98 -45l78 -51q41 -25 88 -43q43 -16 111 -16q23 0 35 2q25 4 39 10q6 2 17 6t15 6q20 10 39 21l37 20q2 0 43 27q8 4 15.5 9t11.5 8l8 6t6 3l-16 -63l-6 -3l-16.5 -8t-20.5 -12 q-33 -20 -52 -26l-15 -7.5t-30 -13.5q-35 -14 -59 -16q-37 -4 -55 -4q-70 0 -135.5 26.5t-112.5 61.5q-37 29 -119 59q-74 29 -147 29q-52 0 -86 -19q-35 -18 -49.5 -46.5t-20.5 -57.5q-4 -18 -4 -66q0 -57 16 -96q18 -41 54 -41q20 0 20 29q0 12 -2 25q-4 25 -4 26 q0 10 6 14q23 0 43 -10q23 -10 27 -18l10 -15q0 -31 -21 -51q-23 -23 -38 -24q-25 -4 -39 -4q-53 0 -109 61q-53 59 -53 129zM981 313q0 41 25 115q23 68 49 121l20 39t27.5 52l46.5 87l106 207q6 27 23 72q15 40 49 92q31 47 74 57q61 -9 61 -43q-2 -35 -43 -88 q-18 -27 -26.5 -37t-30.5 -43q-12 -18 -21 -35q-20 -47 -90 -168q-74 -129 -129 -260q-53 -125 -53 -213q0 -240 211 -239q71 0 184 73q117 76 240 193q31 25 88 106q70 98 125 197q66 115 115 254t49 248q0 20 -4 24q-84 -90 -203 -333q-125 -256 -125 -381 q-35 -53 -57 -72q-6 25 -6 47q0 78 63 244q61 162 154 323q90 158 153 195q18 8 43 8q61 0 62 -108q0 -197 -170 -484q-168 -283 -260 -356q-172 -139 -252 -176q-68 -31 -209 -31q-45 0 -92 12q-41 10 -93 45q-49 33 -75 97q-29 67 -29 159zM1538 1262q14 33 43 55 q37 29 66 45q37 20 73 57q45 45 70 88h100q35 -66 76 -106l25.5 -26.5t28 -28t20.5 -19.5q29 -25 45 -65q-119 63 -166 96q-43 29 -84 80q-18 -20 -47 -43q-18 -14 -55 -35q-27 -14 -86.5 -42.5t-108.5 -55.5zM1743 170q18 14 51 51q6 -25 16 -55q6 -18 22.5 -51t31.5 -47 q12 -12 41 -27q25 -12 53 -12q45 0 76 30q27 27 47 62q18 31 26 31q12 0 26.5 -14.5t27.5 -14.5q4 0 12 4l2 -2q-25 -47 -82 -86t-141 -39q-49 0 -88 16.5t-61.5 45t-37.5 53.5q-2 2 -22 55z" />
<glyph unicode="&#xdc;" horiz-adv-x="2199" d="M205 856q0 33 12 57q18 35 43 64q29 31 84 53q57 23 123 23q74 0 131 -19q51 -16 98 -45l78 -51q41 -25 88 -43q43 -16 111 -16q23 0 35 2q25 4 39 10q6 2 17 6t15 6q20 10 39 21l37 20q2 0 43 27q8 4 15.5 9t11.5 8l8 6t6 3l-16 -63l-6 -3l-16.5 -8t-20.5 -12 q-33 -20 -52 -26l-15 -7.5t-30 -13.5q-35 -14 -59 -16q-37 -4 -55 -4q-70 0 -135.5 26.5t-112.5 61.5q-37 29 -119 59q-74 29 -147 29q-52 0 -86 -19q-35 -18 -49.5 -46.5t-20.5 -57.5q-4 -18 -4 -66q0 -57 16 -96q18 -41 54 -41q20 0 20 29q0 12 -2 25q-4 25 -4 26 q0 10 6 14q23 0 43 -10q23 -10 27 -18l10 -15q0 -31 -21 -51q-23 -23 -38 -24q-25 -4 -39 -4q-53 0 -109 61q-53 59 -53 129zM981 313q0 41 25 115q23 68 49 121l20 39t27.5 52l46.5 87l106 207q6 27 23 72q15 40 49 92q31 47 74 57q61 -9 61 -43q-2 -35 -43 -88 q-18 -27 -26.5 -37t-30.5 -43q-12 -18 -21 -35q-20 -47 -90 -168q-74 -129 -129 -260q-53 -125 -53 -213q0 -240 211 -239q71 0 184 73q117 76 240 193q31 25 88 106q70 98 125 197q66 115 115 254t49 248q0 20 -4 24q-84 -90 -203 -333q-125 -256 -125 -381 q-35 -53 -57 -72q-6 25 -6 47q0 78 63 244q61 162 154 323q90 158 153 195q18 8 43 8q61 0 62 -108q0 -197 -170 -484q-168 -283 -260 -356q-172 -139 -252 -176q-68 -31 -209 -31q-45 0 -92 12q-41 10 -93 45q-49 33 -75 97q-29 67 -29 159zM1604 1366q0 12 28.5 24.5 t28.5 30.5q0 6 -8 15l-4 4q47 20 75 20q27 0 27 -20q0 -33 -35 -64q-34 -31 -74 -30q-38 0 -38 20zM1743 170q18 14 51 51q6 -25 16 -55q6 -18 22.5 -51t31.5 -47q12 -12 41 -27q25 -12 53 -12q45 0 76 30q27 27 47 62q18 31 26 31q12 0 26.5 -14.5t27.5 -14.5q4 0 12 4 l2 -2q-25 -47 -82 -86t-141 -39q-49 0 -88 16.5t-61.5 45t-37.5 53.5q-2 2 -22 55zM2005 1366q0 12 27 25q29 12 28 30q0 9 -12 19q55 20 76 20q29 0 28 -20q0 -33 -34 -64q-33 -31 -76 -30q-37 0 -37 20z" />
<glyph unicode="&#xdd;" horiz-adv-x="2095" d="M217 922q0 88 82 145q84 59 178 59q88 0 152 -20q72 -23 119 -49l96 -58q41 -23 112 -47q61 -20 140 -20q59 0 102 18q41 16 107 62q-10 -37 -27 -68q-98 -43 -158 -43q-104 0 -178 21q-76 20 -125 49q-43 25 -92 59q-35 25 -100 49q-55 20 -127 21q-59 0 -101 -25 q-43 -27 -57 -59q-16 -41 -23 -66q-6 -29 -6 -53q0 -53 21 -94q22 -43 49 -43q18 0 18 28v27q0 4 -1 15.5t-1 19.5t13 8q14 0 45 -18q29 -16 28 -35q0 -31 -18 -43q-29 -33 -78 -33q-63 0 -116.5 66t-53.5 127zM651 -578q0 37 29 72t96 35q119 0 205 -70q22 -18 49 -55 q31 -41 31 -63q-16 -23 -60 -23q-33 0 -49 14q4 16 4 58q0 35 -24 71q-18 15 -49 31q-29 14 -52 14q-37 0 -65 -43q-29 -45 -29 -88q0 -100 123 -155.5t240 -55.5q115 0 182 48q74 51 107 104q12 20 88 176q94 193 186 406q106 246 147 401q188 616 218 692q61 162 126 191 q18 8 48 8q59 0 59 -129v-49q-4 -35 -20 -94q-25 -88 -48 -144q-41 -98 -92 -188q-72 -127 -149 -238q47 168 53 193q70 111 129 280q53 152 53 301q0 18 -8 25q-23 -29 -49 -84q-27 -57 -55 -145l-52 -164l-65 -234l-72 -258q-31 -111 -166 -436q-133 -322 -276 -580 q-20 -35 -98 -65q-76 -29 -238 -39q-138 3 -264 55q-96 47 -146 105q-47 52 -47 120zM1083 362q0 27 11 72q10 43 22 78q10 27 41 96l47 101l64 127l67 135q27 59 33 86q6 31 35 76q27 43 76 55q16 0 28 -6q12 -2 35 -29t23 -37v-2q0 -6 -11 -16q-12 -12 -18 -15l-8 -4 q-4 23 -12.5 23t-88.5 -160l-106 -205q-76 -141 -92 -176q-29 -61 -47 -127q-25 -88 -25 -145q0 -72 27 -131q27 -57 61.5 -82t71.5 -37q29 -10 63 -10q135 0 373 215l-47 -138q-84 -59 -141 -81q-61 -25 -156 -25q-86 0 -149 31q-66 31 -96.5 73.5t-51.5 98.5 q-22 58 -25 92q-4 44 -4 67zM1792 1255l8 37q16 68 19 72q16 43 24 59q33 53 58 70q29 18 63 18q51 0 51 -26q0 -20 -33 -107q-33 27 -45 27q-39 0 -73 -39l-68 -113z" />
<glyph unicode="&#xde;" horiz-adv-x="1042" d="M8 -199l88 189q78 166 86 184q4 10 26.5 61.5l39.5 90.5q40 101 74 202l98 -28l-49 -140l-47 -127l-17.5 -51l-21.5 -61l-37 -101q-8 -23 -17.5 -45t-15.5 -38l-10 -25.5t-10.5 -25l-8.5 -17.5q-16 -33 -24 -47q-10 -18 -25 -33q-8 -8 -16 -8q-64 0 -113 20zM332 569 l12 33q293 -84 395 -84q35 0 80 12.5t101 34.5q53 23 90 68q39 49 39 102q0 68 -37 129.5t-97 108.5q-61 49 -122 78q-59 29 -125 51l16 65q72 -18 160 -57q72 -31 145 -86q74 -53 113 -127q41 -76 41 -164q0 -90 -111 -176q-113 -88 -260 -88q-40 0 -80 6q-59 8 -88 17 q-70 16 -80 20q-31 8 -94 29q-37 12 -65.5 19t-32.5 9zM358 639q86 270 232 877q2 -2 53 -7q47 -2 57 -16q-37 -180 -71 -313q-8 -43 -62 -226q-74 -252 -104 -342q-19 7 -105 27z" />
<glyph unicode="&#xdf;" horiz-adv-x="741" d="M-399 -848q14 53 45 53q37 0 53 -4q25 -6 37 -6q37 0 71 31q31 29 66 115q25 61 92 272l148 496l125 423q47 162 122 361q8 14 43 31q31 14 62 14q20 0 57 -12q41 -14 78 -45q39 -33 39 -78q0 -49 -20.5 -90t-59.5 -74q-49 -41 -72 -55q-34 -22 -79 -43q-35 -14 -56 -27 l10 43q225 82 226 246q0 25 -43 59q-39 31 -78 35q-27 -10 -47 -55q-25 -51 -60 -164q-35 -111 -59 -170q-10 -29 -74 -244l-143 -491q-86 -293 -137 -439q-31 -90 -109 -139q-76 -49 -180 -49q-26 0 -57 6zM223 160q0 14 19 14q20 0 51 -10q6 -2 24 -33q4 -8 8.5 -15 t6.5 -10.5t5 -9.5l7 -14q12 -23 51 -43q37 -18 94 -19q76 0 103 33q29 35 29 133q0 121 -238 299q49 16 70 27q86 -57 139 -111q55 -57 78 -102q23 -51 28 -74q6 -29 7 -51q0 -39 -7 -63q-8 -33 -24 -54q-22 -28 -68 -43q-43 -14 -123 -14q-86 0 -153 43q-29 16 -54 43 q-27 31 -38 47q-15 21 -15 27z" />
<glyph unicode="&#xe0;" d="M76 219q0 68 22 135q18 57 72 117q47 53 123 84t176 31q8 0 25.5 -1t25.5 -3q20 -2 39 -11q20 -8 29 -12q14 -8 18 -12q6 -8 15 -17q2 -2 8 -14q2 -4 2 -10q0 -2 1 -5l1 -3v-6l-74 -150q18 55 19 98q0 117 -103 117q-115 0 -203 -90q-113 -113 -112 -301q0 -61 39 -100 q37 -37 82 -37q49 0 61 4q16 6 57 28q45 29 68 56q33 35 39 47q10 18 29 59l8 19.5t7 14.5t5 10t2 7q88 172 115 238q20 37 55 37q4 0 21 -8q10 -4 10 -19q0 -22 -13 -49l-77 -149l-72 -123q-51 -86 -59 -95q-109 -106 -254 -106q-76 0 -141.5 59.5t-65.5 159.5zM539 66 q31 29 86 124q-14 -43 -15 -73q0 -88 60 -88q33 0 45 2q14 2 30.5 12t22.5 16q14 14 27 29q4 4 15 18.5t17 20.5l2 -2l-22 -35q-20 -31 -27 -37l-28 -24q-18 -16 -41 -22.5t-52 -6.5q-33 0 -71 16q-33 15 -49 50zM555 764q6 8 13 16l17.5 20.5t16.5 20.5q33 39 37 47 q16 27 16 39q0 41 -59 49q2 2 12 10.5t17 12.5q12 8 26 22q2 2 6.5 5.5t9.5 6.5t7 5q12 10 20 12q12 4 17 4q16 0 30 -14q12 -12 21 -39v-10q0 -53 -115 -146q-4 -4 -24 -16q-33 -23 -35 -25q-29 -16 -33 -20z" />
<glyph unicode="&#xe1;" d="M76 219q0 68 22 135q18 57 72 117q47 53 123 84t176 31q8 0 25.5 -1t25.5 -3q20 -2 39 -11q20 -8 29 -12q14 -8 18 -12q6 -8 15 -17q2 -2 8 -14q2 -4 2 -10q0 -2 1 -5l1 -3v-6l-74 -150q18 55 19 98q0 117 -103 117q-115 0 -203 -90q-113 -113 -112 -301q0 -61 39 -100 q37 -37 82 -37q49 0 61 4q16 6 57 28q45 29 68 56q33 35 39 47q10 18 29 59l8 19.5t7 14.5t5 10t2 7q88 172 115 238q20 37 55 37q4 0 21 -8q10 -4 10 -19q0 -22 -13 -49l-77 -149l-72 -123q-51 -86 -59 -95q-109 -106 -254 -106q-76 0 -141.5 59.5t-65.5 159.5zM510 764 l8 37q6 25 19 69q9 34 24 62q33 53 57 69q29 18 64 19q49 0 49 -29q0 -15 -31 -104q-31 25 -45 24q-40 0 -73 -37l-68 -112zM539 66q31 29 86 124q-14 -43 -15 -73q0 -88 60 -88q33 0 45 2q14 2 30.5 12t22.5 16q14 14 27 29q4 4 15 18.5t17 20.5l2 -2l-22 -35 q-20 -31 -27 -37l-28 -24q-18 -16 -41 -22.5t-52 -6.5q-33 0 -71 16q-33 15 -49 50z" />
<glyph unicode="&#xe2;" d="M76 219q0 68 22 135q18 57 72 117q47 53 123 84t176 31q8 0 25.5 -1t25.5 -3q20 -2 39 -11q20 -8 29 -12q14 -8 18 -12q6 -8 15 -17q2 -2 8 -14q2 -4 2 -10q0 -2 1 -5l1 -3v-6l-74 -150q18 55 19 98q0 117 -103 117q-115 0 -203 -90q-113 -113 -112 -301q0 -61 39 -100 q37 -37 82 -37q49 0 61 4q16 6 57 28q45 29 68 56q33 35 39 47q10 18 29 59l8 19.5t7 14.5t5 10t2 7q88 172 115 238q20 37 55 37q4 0 21 -8q10 -4 10 -19q0 -22 -13 -49l-77 -149l-72 -123q-51 -86 -59 -95q-109 -106 -254 -106q-76 0 -141.5 59.5t-65.5 159.5zM289 770 q12 29 43 53q41 33 63 45q37 20 76 60q45 45 70 88h98q33 -66 78 -109l25.5 -25.5l26.5 -26.5l19 -19q31 -29 48 -66q-111 57 -166 96q-40 28 -86 80q-18 -25 -45 -45q-10 -8 -56 -33l-86 -42.5t-108 -55.5zM539 66q31 29 86 124q-14 -43 -15 -73q0 -88 60 -88q33 0 45 2 q14 2 30.5 12t22.5 16q14 14 27 29q4 4 15 18.5t17 20.5l2 -2l-22 -35q-20 -31 -27 -37l-28 -24q-18 -16 -41 -22.5t-52 -6.5q-33 0 -71 16q-33 15 -49 50z" />
<glyph unicode="&#xe3;" d="M76 219q0 68 22 135q18 57 72 117q47 53 123 84t176 31q8 0 25.5 -1t25.5 -3q20 -2 39 -11q20 -8 29 -12q14 -8 18 -12q6 -8 15 -17q2 -2 8 -14q2 -4 2 -10q0 -2 1 -5l1 -3v-6l-74 -150q18 55 19 98q0 117 -103 117q-115 0 -203 -90q-113 -113 -112 -301q0 -61 39 -100 q37 -37 82 -37q49 0 61 4q16 6 57 28q45 29 68 56q33 35 39 47q10 18 29 59l8 19.5t7 14.5t5 10t2 7q88 172 115 238q20 37 55 37q4 0 21 -8q10 -4 10 -19q0 -22 -13 -49l-77 -149l-72 -123q-51 -86 -59 -95q-109 -106 -254 -106q-76 0 -141.5 59.5t-65.5 159.5zM360 897 q55 70 97 70q25 0 141 -25q106 -23 133 -22q6 0 16.5 1t14.5 1q8 0 24 4q4 0 10.5 3t8.5 3q8 0 18 8q4 3 10 7q4 3 5 3l2 2q2 2 6 4t8 7q10 8 16 14l17 -16q12 -10 16 -23q-6 -6 -20 -14q-6 -2 -12.5 -6.5t-10.5 -7.5t-6 -3t-8 -3t-15 -7q-12 -6 -32 -10q-10 -2 -35 -2 q-63 0 -153.5 22.5t-112.5 22.5q-37 0 -61.5 -24.5t-35.5 -24.5q-18 0 -41 16zM539 66q31 29 86 124q-14 -43 -15 -73q0 -88 60 -88q33 0 45 2q14 2 30.5 12t22.5 16q14 14 27 29q4 4 15 18.5t17 20.5l2 -2l-22 -35q-20 -31 -27 -37l-28 -24q-18 -16 -41 -22.5t-52 -6.5 q-33 0 -71 16q-33 15 -49 50z" />
<glyph unicode="&#xe4;" d="M76 219q0 68 22 135q18 57 72 117q47 53 123 84t176 31q8 0 25.5 -1t25.5 -3q20 -2 39 -11q20 -8 29 -12q14 -8 18 -12q6 -8 15 -17q2 -2 8 -14q2 -4 2 -10q0 -2 1 -5l1 -3v-6l-74 -150q18 55 19 98q0 117 -103 117q-115 0 -203 -90q-113 -113 -112 -301q0 -61 39 -100 q37 -37 82 -37q49 0 61 4q16 6 57 28q45 29 68 56q33 35 39 47q10 18 29 59l8 19.5t7 14.5t5 10t2 7q88 172 115 238q20 37 55 37q4 0 21 -8q10 -4 10 -19q0 -22 -13 -49l-77 -149l-72 -123q-51 -86 -59 -95q-109 -106 -254 -106q-76 0 -141.5 59.5t-65.5 159.5zM348 922 q0 12 26.5 24t26.5 33q0 4 -8 12l-4 4q47 20 80 21q27 0 27 -21q0 -35 -35 -63q-37 -31 -76 -31q-37 1 -37 21zM539 66q31 29 86 124q-14 -43 -15 -73q0 -88 60 -88q33 0 45 2q14 2 30.5 12t22.5 16q14 14 27 29q4 4 15 18.5t17 20.5l2 -2l-22 -35q-20 -31 -27 -37l-28 -24 q-18 -16 -41 -22.5t-52 -6.5q-33 0 -71 16q-33 15 -49 50zM748 922q0 12 26 24q29 12 29 33q0 8 -12 16q55 20 77 21q29 0 29 -21q0 -31 -37 -63q-33 -31 -76 -31q-36 1 -36 21z" />
<glyph unicode="&#xe5;" d="M76 219q0 68 22 135q18 57 72 117q47 53 123 84t176 31q8 0 25.5 -1t25.5 -3q20 -2 39 -11q20 -8 29 -12q14 -8 18 -12q6 -8 15 -17q2 -2 8 -14q2 -4 2 -10q0 -2 1 -5l1 -3v-6l-74 -150q18 55 19 98q0 117 -103 117q-115 0 -203 -90q-113 -113 -112 -301q0 -61 39 -100 q37 -37 82 -37q49 0 61 4q16 6 57 28q45 29 68 56q33 35 39 47q10 18 29 59l8 19.5t7 14.5t5 10t2 7q88 172 115 238q20 37 55 37q4 0 21 -8q10 -4 10 -19q0 -22 -13 -49l-77 -149l-72 -123q-51 -86 -59 -95q-109 -106 -254 -106q-76 0 -141.5 59.5t-65.5 159.5zM410 782.5 q0 55.5 47 92t114.5 36.5t116.5 -37q47 -35 47 -92t-47 -92q-51 -39 -116.5 -39t-114.5 39q-47 37 -47 92.5zM469 778q0 -39 35 -63q37 -27 78 -27q43 0 80 27q35 25 34 63q0 35 -34 64q-33 27 -80 26q-45 0 -78 -26q-35 -29 -35 -64zM539 66q31 29 86 124q-14 -43 -15 -73 q0 -88 60 -88q33 0 45 2q14 2 30.5 12t22.5 16q14 14 27 29q4 4 15 18.5t17 20.5l2 -2l-22 -35q-20 -31 -27 -37l-28 -24q-18 -16 -41 -22.5t-52 -6.5q-33 0 -71 16q-33 15 -49 50z" />
<glyph unicode="&#xe6;" horiz-adv-x="1161" d="M61 166q0 68 49.5 108.5t120.5 55.5q66 14 148 20q49 4 135 21q63 12 82 37q25 31 59 59q20 16 58 43l22 14q98 61 234 62q74 0 139 -27q68 -27 68 -76q0 -12 -5 -22q-8 -23 -22 -43q-23 -33 -45.5 -51.5t-85.5 -38.5q-55 -18 -129 -19q-147 0 -170 -2q4 4 8 15.5t6 15.5 q43 2 127 2q96 4 160 63q61 59 61 99q0 29 -32 43q-27 12 -76 12q-172 0 -295 -252q-39 -92 -39 -141q0 -76 49 -105q53 -31 131 -30q70 0 109 30l16 17q10 14 25 20q12 6 28 6l3 -1q3 -1 8 -1h24q43 0 64 4q14 2 34 23l3 -2q-37 -43 -72 -72q-31 -27 -78 -39 q-27 -8 -68 -12q-18 -2 -77 -2q-68 0 -111 10q-55 12 -80 27q-37 20 -49 31l-29 24q-4 6 -10 12q-16 41 -20 117q9 49 43 135q-25 -22 -99 -30l-143 -15q-70 -6 -125 -43t-55 -108q0 -63 28 -99q27 -33 105 -32q68 0 113 30q43 29 86 99l8 -25q2 -10 10 -26.5t12 -20.5 q-8 -4 -24.5 -20.5t-24.5 -20.5q-4 -2 -22 -14q-16 -10 -27 -15q-2 0 -12.5 -3t-16.5 -5q-25 -8 -41 -8h-51q-127 0 -184.5 45t-57.5 121zM158 469q84 68 143 92q61 25 164 25q55 0 123 -29q61 -27 61 -47l-16 -12q-4 -2 -10.5 -8.5t-10.5 -8.5q-6 -4 -16 -18q-4 49 -41 72 q-39 23 -80 22q-78 0 -131 -20.5t-96 -81.5q-27 -8 -49 -9q-39 0 -41 23zM492 158z" />
<glyph unicode="&#xe7;" horiz-adv-x="659" d="M61 195q0 57 29 127q25 61 78 127q45 57 131 98q80 39 180 39q70 0 117 -17q55 -20 78 -39q25 -23 24 -34q0 -18 -22.5 -35t-42.5 -17q-35 0 -35 27q0 18 2 29q0 4 2 10q2 8 2 10q0 37 -121 37q-102 0 -212.5 -119t-110.5 -286q0 -37 18 -66q16 -25 45 -37q14 -6 49 -16 q14 -4 45 -4q92 0 127 32q6 4 19 17q2 2 5 6t5 6t4 2l19 8q16 4 26 4q66 0 76 2q12 2 29 15l6 6l4 -2q-31 -43 -72 -72q-39 -27 -90 -37q-76 -14 -78 -14q-20 -2 -78 -2q-29 0 -61 6q-20 4 -82 27q-49 18 -82 59.5t-33 102.5zM195 -213q0 4 4 4q23 0 55 -45q31 -41 53 -45 q27 10 27 70q0 106 -98 211l28 -7q16 -4 23 -6q55 -33 80 -73q27 -45 26 -84q0 -49 -18 -84q-20 -39 -68 -39q-20 0 -35 8q-16 10 -41 41q-33 41 -34.5 43t-1.5 6z" />
<glyph unicode="&#xe8;" horiz-adv-x="659" d="M63 190q0 104 72 213q25 39 47 66q25 29 60 57q37 31 90 45q51 14 124.5 14.5t145.5 -26.5q74 -27 74 -76q0 -12 -2 -22t-21 -43q-16 -31 -42.5 -51.5t-82 -39t-129.5 -18.5q-29 0 -139 17l10 22q25 -8 103 -8q96 4 151 61q57 59 58 101q0 28 -37 43q-29 12 -84 12 q-92 0 -166 -76q-76 -78 -115 -196q-16 -53 -16 -121q0 -135 168 -135q86 0 125 30q6 6 14 17q10 14 25 20q12 6 28 6h35q39 0 45 2q12 4 21 13l10 10l2 -2q-29 -45 -62 -72q-35 -29 -75 -37q-61 -12 -72 -14q-18 -2 -78 -2q-47 0 -86 8q-45 10 -90 27q-51 18 -80 57 q-31 39 -31 98zM481 764q6 8 13.5 16t17.5 20.5l16 20.5q6 6 13.5 14.5t11.5 13.5l8 10t6 9q14 23 15 39q0 41 -60 49q25 18 31 23q12 8 27 22q2 2 6 5.5t9 6.5t7 5q12 10 21 12q12 4 16 4q16 0 31 -14q12 -12 20 -39v-10q0 -53 -115 -146q-4 -4 -24 -16l-16.5 -11 l-20.5 -14q-21 -12 -33 -20z" />
<glyph unicode="&#xe9;" horiz-adv-x="659" d="M63 190q0 104 72 213q25 39 47 66q25 29 60 57q37 31 90 45q51 14 124.5 14.5t145.5 -26.5q74 -27 74 -76q0 -12 -2 -22t-21 -43q-16 -31 -42.5 -51.5t-82 -39t-129.5 -18.5q-29 0 -139 17l10 22q25 -8 103 -8q96 4 151 61q57 59 58 101q0 28 -37 43q-29 12 -84 12 q-92 0 -166 -76q-76 -78 -115 -196q-16 -53 -16 -121q0 -135 168 -135q86 0 125 30q6 6 14 17q10 14 25 20q12 6 28 6h35q39 0 45 2q12 4 21 13l10 10l2 -2q-29 -45 -62 -72q-35 -29 -75 -37q-61 -12 -72 -14q-18 -2 -78 -2q-47 0 -86 8q-45 10 -90 27q-51 18 -80 57 q-31 39 -31 98zM504 764q2 0 8 37q6 35 18 69q14 39 27 62q29 53 55 69q27 18 66 19q49 0 49 -29q0 -15 -31 -104q-33 25 -47 24q-39 0 -71 -37q-4 -4 -70 -112z" />
<glyph unicode="&#xea;" horiz-adv-x="659" d="M63 190q0 104 72 213q25 39 47 66q25 29 60 57q37 31 90 45q51 14 124.5 14.5t145.5 -26.5q74 -27 74 -76q0 -12 -2 -22t-21 -43q-16 -31 -42.5 -51.5t-82 -39t-129.5 -18.5q-29 0 -139 17l10 22q25 -8 103 -8q96 4 151 61q57 59 58 101q0 28 -37 43q-29 12 -84 12 q-92 0 -166 -76q-76 -78 -115 -196q-16 -53 -16 -121q0 -135 168 -135q86 0 125 30q6 6 14 17q10 14 25 20q12 6 28 6h35q39 0 45 2q12 4 21 13l10 10l2 -2q-29 -45 -62 -72q-35 -29 -75 -37q-61 -12 -72 -14q-18 -2 -78 -2q-47 0 -86 8q-45 10 -90 27q-51 18 -80 57 q-31 39 -31 98zM276 770q10 29 41 53q33 27 68 45q31 16 74 60q45 45 69 88h101q37 -70 76 -109l25 -25.5l26.5 -26.5l19.5 -19q29 -25 45 -66q-119 63 -166 96q-43 29 -84 80q-23 -27 -47 -45q-10 -8 -30.5 -19.5t-24.5 -13.5q-31 -18 -84 -43q-25 -10 -64 -30.5t-45 -24.5 z" />
<glyph unicode="&#xeb;" horiz-adv-x="659" d="M63 190q0 104 72 213q25 39 47 66q25 29 60 57q37 31 90 45q51 14 124.5 14.5t145.5 -26.5q74 -27 74 -76q0 -12 -2 -22t-21 -43q-16 -31 -42.5 -51.5t-82 -39t-129.5 -18.5q-29 0 -139 17l10 22q25 -8 103 -8q96 4 151 61q57 59 58 101q0 28 -37 43q-29 12 -84 12 q-92 0 -166 -76q-76 -78 -115 -196q-16 -53 -16 -121q0 -135 168 -135q86 0 125 30q6 6 14 17q10 14 25 20q12 6 28 6h35q39 0 45 2q12 4 21 13l10 10l2 -2q-29 -45 -62 -72q-35 -29 -75 -37q-61 -12 -72 -14q-18 -2 -78 -2q-47 0 -86 8q-45 10 -90 27q-51 18 -80 57 q-31 39 -31 98zM336 922q0 12 26.5 24t26.5 33q0 6 -6 12l-4 4q47 20 76 21q27 0 26 -21q0 -33 -35 -63q-34 -31 -73 -31q-37 1 -37 21zM735 922q0 12 29 24q27 12 27 33q0 8 -13 16q55 20 78 21q27 0 27 -21q0 -33 -35 -63q-33 -31 -76 -31q-37 1 -37 21z" />
<glyph unicode="&#xec;" horiz-adv-x="460" d="M0 143q14 25 29.5 47.5t21.5 32.5l6 10q14 14 35 31q16 59 43 119q28 65 74 129q47 66 90 66q23 0 37 -15q16 -16 16 -31q0 -39 -45 -122q-43 -78 -108 -129q-31 -71 -31 -154q0 -98 63 -98q29 0 41 6q10 4 47 39q6 6 9 10q18 18 41 18h22h27q10 0 16 7q2 2 6 5l4 3 q6 6 11 12q6 8 10 14l-4 -8q-29 -51 -92 -102q-55 -33 -109 -33q-94 0 -141 45q-49 45 -49 109q0 33 14 84q-31 -29 -84 -95zM209 324q86 74 102 194q0 -6 -26 -47q-31 -47 -47 -78q-21 -38 -29 -69zM377 764l45 57q6 6 13 14.5t11.5 13.5t8.5 10t6 9q14 23 14 39 q0 41 -59 49q2 2 12 10.5t16 12.5q12 8 27 22q2 2 6 5.5t9.5 6.5t7.5 5q12 10 20 12q12 4 16 4q16 0 31 -14q12 -12 21 -39v-10q0 -53 -113 -146q-2 -2 -27 -16q-33 -23 -34 -25q-25 -14 -31 -20z" />
<glyph unicode="&#xed;" horiz-adv-x="460" d="M0 143q14 25 29.5 47.5t21.5 32.5l6 10q14 14 35 31q16 59 43 119q28 65 74 129q47 66 90 66q23 0 37 -15q16 -16 16 -31q0 -39 -45 -122q-43 -78 -108 -129q-31 -71 -31 -154q0 -98 63 -98q29 0 41 6q10 4 47 39q6 6 9 10q18 18 41 18h22h27q10 0 16 7q2 2 6 5l4 3 q6 6 11 12q6 8 10 14l-4 -8q-29 -51 -92 -102q-55 -33 -109 -33q-94 0 -141 45q-49 45 -49 109q0 33 14 84q-31 -29 -84 -95zM209 324q86 74 102 194q0 -6 -26 -47q-31 -47 -47 -78q-21 -38 -29 -69zM369 764l8 37l7 33.5t9 35.5q8 27 27 62q49 88 121 88q49 0 49 -29 q0 -10 -33 -104q-33 25 -45 24q-37 0 -72 -37q-4 -4 -69 -112z" />
<glyph unicode="&#xee;" horiz-adv-x="460" d="M0 143q14 25 29.5 47.5t21.5 32.5l6 10q14 14 35 31q16 59 43 119q28 65 74 129q47 66 90 66q23 0 37 -15q16 -16 16 -31q0 -39 -45 -122q-43 -78 -108 -129q-31 -71 -31 -154q0 -98 63 -98q29 0 41 6q10 4 47 39q6 6 9 10q18 18 41 18h22h27q10 0 16 7q2 2 6 5l4 3 q6 6 11 12q6 8 10 14l-4 -8q-29 -51 -92 -102q-55 -33 -109 -33q-94 0 -141 45q-49 45 -49 109q0 33 14 84q-31 -29 -84 -95zM137 770q12 29 43 53q37 29 66 45q37 20 76 60q41 41 67 88h100q37 -70 76 -109q53 -53 74 -71q29 -25 45 -66q-119 63 -166 96q-37 27 -82 80 q-18 -20 -49 -45q-14 -10 -53 -33l-86 -43q-78 -37 -111 -55zM209 324q86 74 102 194q0 -6 -26 -47q-31 -47 -47 -78q-21 -38 -29 -69z" />
<glyph unicode="&#xef;" horiz-adv-x="460" d="M0 143q14 25 29.5 47.5t21.5 32.5l6 10q14 14 35 31q16 59 43 119q28 65 74 129q47 66 90 66q23 0 37 -15q16 -16 16 -31q0 -39 -45 -122q-43 -78 -108 -129q-31 -71 -31 -154q0 -98 63 -98q29 0 41 6q10 4 47 39q6 6 9 10q18 18 41 18h22h27q10 0 16 7q2 2 6 5l4 3 q6 6 11 12q6 8 10 14l-4 -8q-29 -51 -92 -102q-55 -33 -109 -33q-94 0 -141 45q-49 45 -49 109q0 33 14 84q-31 -29 -84 -95zM209 324q86 74 102 194q0 -6 -26 -47q-31 -47 -47 -78q-21 -38 -29 -69zM240 922q0 12 28.5 24t28.5 33q0 2 -10 12l-4 4q47 20 77 21q27 0 27 -21 q0 -33 -35 -63q-34 -31 -73 -31q-39 1 -39 21zM639 922q0 12 28.5 24t28.5 33q0 8 -14 16q55 20 78 21q29 0 28 -21q0 -33 -34 -63q-33 -31 -76 -31q-39 1 -39 21z" />
<glyph unicode="&#xf0;" horiz-adv-x="765" d="M68 195q0 82 36 155q41 80 91 125q57 51 112 80q58 31 105 31q55 0 77 -25q23 -27 23 -49q0 -20 -12 -20q-2 0 -23 4q-10 2 -18 2q-18 59 -47 59q-12 0 -37 -12q-31 -16 -62 -43q-27 -25 -63 -76q-33 -47 -53 -113q-20 -68 -21 -155q0 -53 29 -92q29 -37 94 -37 q121 0 229 157q29 41 45 101q14 55 15 90q0 84 -33 182q-29 86 -63 135q-23 33 -62 76l55 43q53 -53 68 -74q74 -96 100 -190q29 -102 29 -174q0 -106 -74 -242q31 -57 60 -57q33 0 71 51l2 -2q-6 -18 -30 -41q-23 -20 -43 -21q-47 0 -78 50q-94 -113 -242 -113 q-78 0 -133 18q-57 18 -82 41q-27 23 -43 58q-14 31 -18 47q-4 21 -4 31zM268 922q0 49 31 49q10 0 117 -90l-54 -45l-47 41q-27 23 -36 32q-11 9 -11 13zM281 737q39 35 102 78l57 45q55 43 101 101l37 -27l-115 -96l-55 -45l-93 -80z" />
<glyph unicode="&#xf1;" horiz-adv-x="878" d="M23 166l8 12l24 35q29 39 54 76q10 14 43 71l-7 -38q-49 -76 -120 -158zM113 25q0 31 16 55l244 403l3 5q3 5 5 7.5t12 9.5l19 13q14 12 51 33q18 10 72 24q39 10 96 11q90 0 145 -23q53 -23 53 -84q0 -53 -26 -112q-28 -61 -62 -105q-35 -45 -61 -94q-31 -57 -33 -88 q0 -27 10 -41q8 -10 43 -10q39 0 52 6q35 16 41 22q18 14 20 19l18 24l21 27l4 -2q-27 -49 -39 -64q-23 -27 -59 -47q-29 -14 -74 -14q-49 0 -88 27q-37 25 -37 67q0 33 47 109q41 66 92 157q45 82 45 142q0 55 -86 55q-61 0 -127 -35q-63 -33 -92 -78q-33 -43 -127 -206 q-68 -119 -114 -218q-14 -20 -39 -20q-45 0 -45 25zM133 145l70 306l18 65l4 8q25 61 72 62q43 0 43 -41q0 -29 -21 -64q-23 -37 -34 -45q-10 -18 -35 -102q-2 -4 -35 -60l-55 -88zM416 897q55 70 94 70q27 0 143 -25q106 -23 135 -22q6 0 15.5 1t13.5 1q8 0 25 4q4 0 10 3 t8 3q8 0 19 8q12 8 14 10l6 4q6 4 10 9l15 14q8 -8 18 -16q14 -12 19 -23q-6 -4 -21 -12q-6 -4 -12 -9.5t-8 -5.5l-21 -10q-16 -8 -22 -10q-4 -2 -12.5 -3t-12.5 -1q-10 -2 -33 -2q-63 0 -153.5 22.5t-112.5 22.5q-37 0 -61.5 -24.5t-32.5 -24.5q-20 0 -43 16z" />
<glyph unicode="&#xf2;" horiz-adv-x="749" d="M76 195q0 80 35 155q35 74 88 125q55 53 110 80q61 31 111 31q53 0 84 -31v-63l-17 4q-10 2 -22 2q-14 59 -45 59q-16 0 -39 -10q-25 -12 -64 -43q-39 -33 -69 -76q-37 -51 -55 -113q-23 -74 -23 -155q0 -47 39 -90q37 -41 106 -41q90 0 153.5 61.5t96.5 140.5 q31 76 31 146q0 25 -29 121q0 -10 -4 -19q0 -8 -10 -28q-12 -25 -25 -62q-10 -31 -10 -72q0 -20 19 -63l-21 -37q0 2 -3 10.5t-7 16.5q-10 23 -12 35q-4 20 -5 26q0 37 15 90q14 55 26 74l13 25q-2 8 -2 41q0 47 30 47q18 0 41 -15q27 -16 35 -39q41 -100 41 -168 q0 -96 -72 -227q-84 -133 -260 -133q-78 0 -133 18q-57 18 -82 41q-23 20 -45 58q-14 23 -18 47q-2 11 -2 31zM532 764q6 8 13.5 16t17.5 20.5t17 20.5q6 6 13 14.5l11 13.5l8 10t6 9q14 23 15 39q0 39 -62 49q25 18 31 23q18 12 29 22q4 4 20 17q12 8 23 12q12 4 14 4 q18 0 33 -14q10 -10 18 -39v-10q0 -55 -114 -146q-4 -4 -25 -16l-16.5 -11l-20.5 -14zM629 88l10 16q8 -8 25 -8h20q4 0 16 8q10 6 23 23l2 -2q-2 -18 -23 -31q-14 -10 -38 -10q-19 0 -35 4z" />
<glyph unicode="&#xf3;" horiz-adv-x="749" d="M76 195q0 80 35 155q35 74 88 125q55 53 110 80q61 31 111 31q53 0 84 -31v-63l-17 4q-10 2 -22 2q-14 59 -45 59q-16 0 -39 -10q-25 -12 -64 -43q-39 -33 -69 -76q-37 -51 -55 -113q-23 -74 -23 -155q0 -47 39 -90q37 -41 106 -41q90 0 153.5 61.5t96.5 140.5 q31 76 31 146q0 25 -29 121q0 -10 -4 -19q0 -8 -10 -28q-12 -25 -25 -62q-10 -31 -10 -72q0 -20 19 -63l-21 -37q0 2 -3 10.5t-7 16.5q-10 23 -12 35q-4 20 -5 26q0 37 15 90q14 55 26 74l13 25q-2 8 -2 41q0 47 30 47q18 0 41 -15q27 -16 35 -39q41 -100 41 -168 q0 -96 -72 -227q-84 -133 -260 -133q-78 0 -133 18q-57 18 -82 41q-23 20 -45 58q-14 23 -18 47q-2 11 -2 31zM522 764l8 37q14 61 19 69q14 39 26 62q29 53 56 69q29 18 65 19q47 0 47 -29q0 -15 -30 -104q-31 25 -45 24q-41 0 -72 -37q-4 -4 -70 -112zM629 88l10 16 q8 -8 25 -8h20q4 0 16 8q10 6 23 23l2 -2q-2 -18 -23 -31q-14 -10 -38 -10q-19 0 -35 4z" />
<glyph unicode="&#xf4;" horiz-adv-x="749" d="M76 195q0 80 35 155q35 74 88 125q55 53 110 80q61 31 111 31q53 0 84 -31v-63l-17 4q-10 2 -22 2q-14 59 -45 59q-16 0 -39 -10q-25 -12 -64 -43q-39 -33 -69 -76q-37 -51 -55 -113q-23 -74 -23 -155q0 -47 39 -90q37 -41 106 -41q90 0 153.5 61.5t96.5 140.5 q31 76 31 146q0 25 -29 121q0 -10 -4 -19q0 -8 -10 -28q-12 -25 -25 -62q-10 -31 -10 -72q0 -20 19 -63l-21 -37q0 2 -3 10.5t-7 16.5q-10 23 -12 35q-4 20 -5 26q0 37 15 90q14 55 26 74l13 25q-2 8 -2 41q0 47 30 47q18 0 41 -15q27 -16 35 -39q41 -100 41 -168 q0 -96 -72 -227q-84 -133 -260 -133q-78 0 -133 18q-57 18 -82 41q-23 20 -45 58q-14 23 -18 47q-2 11 -2 31zM244 770q12 27 45 53q37 29 65 45q31 16 74 60q45 45 70 88h100q37 -70 76 -109q53 -53 74 -71q29 -25 45 -66q-119 63 -166 96q-43 29 -84 80q-18 -20 -49 -45 q-10 -8 -31 -20.5t-23 -12.5q-25 -15 -86 -43q-77 -37 -110 -55zM629 88l10 16q8 -8 25 -8h20q4 0 16 8q10 6 23 23l2 -2q-2 -18 -23 -31q-14 -10 -38 -10q-19 0 -35 4z" />
<glyph unicode="&#xf5;" horiz-adv-x="749" d="M76 195q0 80 35 155q35 74 88 125q55 53 110 80q61 31 111 31q53 0 84 -31v-63l-17 4q-10 2 -22 2q-14 59 -45 59q-16 0 -39 -10q-25 -12 -64 -43q-39 -33 -69 -76q-37 -51 -55 -113q-23 -74 -23 -155q0 -47 39 -90q37 -41 106 -41q90 0 153.5 61.5t96.5 140.5 q31 76 31 146q0 25 -29 121q0 -10 -4 -19q0 -8 -10 -28q-12 -25 -25 -62q-10 -31 -10 -72q0 -20 19 -63l-21 -37q0 2 -3 10.5t-7 16.5q-10 23 -12 35q-4 20 -5 26q0 37 15 90q14 55 26 74l13 25q-2 8 -2 41q0 47 30 47q18 0 41 -15q27 -16 35 -39q41 -100 41 -168 q0 -96 -72 -227q-84 -133 -260 -133q-78 0 -133 18q-57 18 -82 41q-23 20 -45 58q-14 23 -18 47q-2 11 -2 31zM317 897q55 70 95 70q27 0 143 -25q106 -23 135 -22q6 0 15.5 1t13.5 1q8 0 24 4q4 0 11.5 3t9.5 3q6 0 16 8q4 3 10 7q4 3 5 3l6 4q6 4 10 8.5t10 9.5l6 5 q8 -8 19 -16q12 -10 16 -23l-3 -2q-3 -2 -9 -5t-10 -7q-18 -12 -27 -17q-2 0 -10 -3t-15 -7q-14 -6 -30 -10q-10 -2 -35 -2q-66 0 -156 22.5t-110 22.5q-39 0 -63.5 -24.5t-33.5 -24.5q-20 0 -43 16zM629 88l10 16q8 -8 25 -8h20q4 0 16 8q10 6 23 23l2 -2q-2 -18 -23 -31 q-14 -10 -38 -10q-19 0 -35 4z" />
<glyph unicode="&#xf6;" horiz-adv-x="749" d="M76 195q0 80 35 155q35 74 88 125q55 53 110 80q61 31 111 31q53 0 84 -31v-63l-17 4q-10 2 -22 2q-14 59 -45 59q-16 0 -39 -10q-25 -12 -64 -43q-39 -33 -69 -76q-37 -51 -55 -113q-23 -74 -23 -155q0 -47 39 -90q37 -41 106 -41q90 0 153.5 61.5t96.5 140.5 q31 76 31 146q0 25 -29 121q0 -10 -4 -19q0 -8 -10 -28q-12 -25 -25 -62q-10 -31 -10 -72q0 -20 19 -63l-21 -37q0 2 -3 10.5t-7 16.5q-10 23 -12 35q-4 20 -5 26q0 37 15 90q14 55 26 74l13 25q-2 8 -2 41q0 47 30 47q18 0 41 -15q27 -16 35 -39q41 -100 41 -168 q0 -96 -72 -227q-84 -133 -260 -133q-78 0 -133 18q-57 18 -82 41q-23 20 -45 58q-14 23 -18 47q-2 11 -2 31zM336 922q0 12 26.5 24t26.5 33q0 6 -6 12l-4 4q47 20 76 21q27 0 26 -21q0 -33 -35 -63q-34 -31 -73 -31q-37 1 -37 21zM629 88l10 16q8 -8 25 -8h20q4 0 16 8 q10 6 23 23l2 -2q-2 -18 -23 -31q-14 -10 -38 -10q-19 0 -35 4zM735 922q0 12 29 24q27 12 27 33q0 8 -13 16q55 20 78 21q27 0 27 -21q0 -33 -35 -63q-33 -31 -76 -31q-37 1 -37 21z" />
<glyph unicode="&#xf7;" horiz-adv-x="921" d="M113 438q0 20 14 56q74 -2 430 -2q180 0 274 14q-8 -37 -16 -66q-117 -8 -186 -8q-78 0 -195 2q-233 4 -321 4zM360 197q0 25 7 43q4 14 20 22q4 2 23 8q6 2 22 2q14 0 33 -14q14 -12 14 -29q0 -55 -67 -55q-42 0 -52 23zM483 717q2 33 19 51q14 18 26 20q16 4 31 5 q16 0 35 -15q14 -12 14 -28q0 -55 -67 -56q-48 0 -58 23z" />
<glyph unicode="&#xf8;" horiz-adv-x="745" d="M49 -2l57 47q2 -4 13 -10q6 -4 18 -10q8 -4 15 -11l-43 -51zM76 195q0 82 37 155q41 80 90 125q57 51 112 80q58 31 105 31q39 0 67 -17l-30 -43q-15 31 -37 31q-10 0 -39 -12q-25 -12 -64 -43q-33 -29 -67 -76q-37 -51 -55 -113q-23 -74 -23 -155q0 -23 8 -41 q6 -16 23 -45q34 -43 104 -43q68 0 119 32q57 37 84 82q18 31 47 101q20 47 27 86q6 35 6 47q0 49 -2 63l65 76q37 -65 37 -141q0 -31 -12 -80q-12 -45 -45 -123q-33 -76 -105 -123q-74 -49 -172 -49q-109 0 -180 39q-33 18 -45 31q-55 55 -55 125zM213 145q113 119 283 349 l120 172l72 -33l-65 -78l-19 -20q-25 -29 -35 -39l-338 -392z" />
<glyph unicode="&#xf9;" horiz-adv-x="913" d="M23 166q6 10 47 61l36 41l-4 -30l-3 -2l-8 -5.5t-9 -7.5q-35 -31 -57 -59zM131 178q0 57 10 103l15 51q16 55 26 84q12 35 33 78q20 45 51 71q29 25 64 25q66 0 65 -45q0 -27 -28 -84q-31 -61 -88 -119q16 51 20 59q23 29 43 76t20 70q0 16 -22 16q-14 -14 -45 -82 q-33 -70 -47 -119q-2 -6 -7 -19t-8 -19q-4 -12 -10 -35q0 -4 -3 -12.5t-5 -18.5q-6 -18 -6 -39v-47q0 -59 33 -100q33 -43 96 -43q96 0 149 43q52 43 93 141q-2 -10 -2 -43q0 -20 14 -80q-33 -47 -86 -67q-57 -23 -166 -23q-98 0 -153.5 55t-55.5 123zM557 764q6 8 13.5 16 t17.5 20.5l16 20.5q33 39 37 47q16 27 16 39q0 41 -59 49l11 10.5t18 12.5l28 22l23 17q14 10 18 12q12 4 17 4q18 0 32.5 -14t18.5 -39v-10q0 -53 -115 -146q-4 -4 -24 -16q-33 -23 -35 -25q-21 -12 -33 -20zM610 195q0 82 19 143q47 119 84 225q16 23 57 23q20 0 35 -8 q12 -8 12 -23q0 -37 -63.5 -178t-63.5 -211q0 -137 66 -137q55 0 94 30q8 6 39 68l2 -2q0 -2 -4 -11.5t-6 -15.5q-6 -16 -9 -20l-8 -17q-6 -12 -12 -18q-8 -8 -14 -12q-12 -8 -21 -15q-37 -16 -65 -16q-142 0 -142 195z" />
<glyph unicode="&#xfa;" horiz-adv-x="948" d="M23 166q6 10 47 61l36 41l-4 -30l-3 -2l-8 -5.5t-9 -7.5q-35 -31 -57 -59zM131 178q0 57 10 103l15 51q16 55 26 84q12 35 33 78q20 45 51 71q29 25 64 25q66 0 65 -45q0 -27 -28 -84q-31 -61 -88 -119q16 51 20 59q23 29 43 76t20 70q0 16 -22 16q-14 -14 -45 -82 q-33 -70 -47 -119q-2 -6 -7 -19t-8 -19q-4 -12 -10 -35q0 -4 -3 -12.5t-5 -18.5q-6 -18 -6 -39v-47q0 -59 33 -100q33 -43 96 -43q96 0 149 43q52 43 93 141q-2 -10 -2 -43q0 -20 14 -80q-33 -47 -86 -67q-57 -23 -166 -23q-98 0 -153.5 55t-55.5 123zM537 764l6 37 q6 35 18 69q14 39 27 62q29 53 55 69q29 18 66 19q49 0 49 -29q0 -18 -33 -104q-31 25 -45 24q-37 0 -72 -37q-4 -4 -69 -112zM610 195q0 82 19 143q47 119 84 225q16 23 57 23q20 0 35 -8q12 -8 12 -23q0 -37 -63.5 -178t-63.5 -211q0 -137 66 -137q55 0 94 30q8 6 39 68 l2 -2q0 -2 -4 -11.5t-6 -15.5q-6 -16 -9 -20l-8 -17q-6 -12 -12 -18q-8 -8 -14 -12q-12 -8 -21 -15q-37 -16 -65 -16q-142 0 -142 195z" />
<glyph unicode="&#xfb;" horiz-adv-x="913" d="M23 166q6 10 47 61l36 41l-4 -30l-3 -2l-8 -5.5t-9 -7.5q-35 -31 -57 -59zM131 178q0 57 10 103l15 51q16 55 26 84q12 35 33 78q20 45 51 71q29 25 64 25q66 0 65 -45q0 -27 -28 -84q-31 -61 -88 -119q16 51 20 59q23 29 43 76t20 70q0 16 -22 16q-14 -14 -45 -82 q-33 -70 -47 -119q-2 -6 -7 -19t-8 -19q-4 -12 -10 -35q0 -4 -3 -12.5t-5 -18.5q-6 -18 -6 -39v-47q0 -59 33 -100q33 -43 96 -43q96 0 149 43q52 43 93 141q-2 -10 -2 -43q0 -20 14 -80q-33 -47 -86 -67q-57 -23 -166 -23q-98 0 -153.5 55t-55.5 123zM276 770q10 29 41 53 q33 27 68 45q31 16 74 60q45 45 69 88h101q37 -70 76 -109l25 -25.5l26.5 -26.5l19.5 -19q29 -25 45 -66q-119 63 -166 96q-43 29 -84 80q-23 -27 -47 -45q-10 -8 -30.5 -19.5t-24.5 -13.5q-31 -18 -84 -43q-25 -10 -64 -30.5t-45 -24.5zM610 195q0 82 19 143q47 119 84 225 q16 23 57 23q20 0 35 -8q12 -8 12 -23q0 -37 -63.5 -178t-63.5 -211q0 -137 66 -137q55 0 94 30q8 6 39 68l2 -2q0 -2 -4 -11.5t-6 -15.5q-6 -16 -9 -20l-8 -17q-6 -12 -12 -18q-8 -8 -14 -12q-12 -8 -21 -15q-37 -16 -65 -16q-142 0 -142 195z" />
<glyph unicode="&#xfc;" horiz-adv-x="913" d="M23 166q6 10 47 61l36 41l-4 -30l-3 -2l-8 -5.5t-9 -7.5q-35 -31 -57 -59zM131 178q0 57 10 103l15 51q16 55 26 84q12 35 33 78q20 45 51 71q29 25 64 25q66 0 65 -45q0 -27 -28 -84q-31 -61 -88 -119q16 51 20 59q23 29 43 76t20 70q0 16 -22 16q-14 -14 -45 -82 q-33 -70 -47 -119q-2 -6 -7 -19t-8 -19q-4 -12 -10 -35q0 -4 -3 -12.5t-5 -18.5q-6 -18 -6 -39v-47q0 -59 33 -100q33 -43 96 -43q96 0 149 43q52 43 93 141q-2 -10 -2 -43q0 -20 14 -80q-33 -47 -86 -67q-57 -23 -166 -23q-98 0 -153.5 55t-55.5 123zM360 922q0 12 27 24 q29 12 29 33q0 2 -10 12l-5 4q47 20 78 21q29 0 29 -21q0 -33 -35 -63.5t-76 -30.5q-37 1 -37 21zM610 195q0 82 19 143q47 119 84 225q16 23 57 23q20 0 35 -8q12 -8 12 -23q0 -37 -63.5 -178t-63.5 -211q0 -137 66 -137q55 0 94 30q8 6 39 68l2 -2q0 -2 -4 -11.5t-6 -15.5 q-6 -16 -9 -20l-8 -17q-6 -12 -12 -18q-8 -8 -14 -12q-12 -8 -21 -15q-37 -16 -65 -16q-142 0 -142 195zM760 922q0 12 28 24q27 12 27 33q0 8 -12 16q55 20 78 21q27 0 26 -21q0 -33 -35 -63q-34 -31 -73 -31q-39 1 -39 21z" />
<glyph unicode="&#xfd;" horiz-adv-x="815" d="M-217 -743q0 74 119 206q117 131 270 254q152 121 256 174l-29 -57l-24 -14q-12 -6 -22.5 -13.5t-18.5 -11.5l-55 -37q-25 -16 -74 -57q-8 -6 -96 -82q-66 -55 -119 -108q-33 -29 -86 -115q-53 -84 -54 -135q0 -90 134 -90q217 0 358 391l64 157l43 111q4 12 12 31.5 t16 42.5q6 14 15.5 42.5t13.5 41.5q43 14 139 133q-141 -408 -301 -752q-63 -113 -156 -170q-96 -59 -206 -59q-31 0 -64 4q-41 4 -61 10q-37 8 -56 35q-18 25 -18 68zM23 166q6 25 55 74l24 22q-2 -2 -2 -12q0 -12 2 -19l-3 -2q-3 -2 -8 -6t-11 -8q-41 -33 -55 -51z M139 248q0 16 2 26l6 25q0 4 5.5 16.5t7.5 20.5q8 29 10 41q33 127 61.5 168t92.5 41q45 0 59 -8.5t14 -34.5q0 -14 -6 -39q-4 -16 -33 -70q-23 -43 -65 -86q14 59 16 68q23 27 39 71q14 37 14 60q0 16 -22 16q-14 -14 -45 -86q-29 -66 -39 -115l-4 -14q0 -6 -3 -14t-5 -19 q-2 -8 -5 -23.5t-6 -21.5q-4 -16 -8 -53t-4 -51q0 -137 123 -137q82 0 145.5 53t94.5 125q16 33 43 112q10 31 55 144q27 66 45 100q22 22 37 25q33 0 43 -8.5t10 -36.5q0 -49 -12 -84q-12 -37 -29 -68q-10 -20 -37 -57q-23 -31 -22 -39q-37 -66 -107 -154q-63 -80 -98 -108 q-55 -33 -172 -33q-57 0 -98 26.5t-64 67.5q-16 31 -28 80q-11 41 -11 74zM518 764l8 37q6 25 19 69q9 34 24 62q49 88 121 88q49 0 49 -29q0 -15 -30 -104q-31 25 -47 24q-39 0 -72 -37q-4 -4 -70 -112z" />
<glyph unicode="&#xfe;" horiz-adv-x="841" d="M-252 -774l10 51q6 29 45 154q31 98 86.5 231t149.5 307q113 207 219 365q53 80 111 133q51 49 112 78q49 23 88 33q33 8 68 8q37 0 55 -4q29 -6 58 -21q31 -15 49 -43q16 -25 16 -69q0 -72 -33 -162q-31 -82 -100 -166q-37 3 -61 24q92 174 92 306q0 47 -15 79 q-12 27 -51 27q-49 0 -94 -29q-57 -37 -107 -90q-59 -66 -88 -102l-41.5 -57t-46.5 -62q-53 -76 -59 -84q-106 -160 -193 -356q-89 -206 -129 -344q-41 -141 -41 -172l13 -4q65 0 319 774q41 68 66 96q-39 -197 -150 -502q-113 -311 -184 -407q-49 -70 -92 -70q-29 0 -51 23 q-21 20 -21 55zM23 166q49 63 129 309l137 436q61 197 80 197q12 2 24 2q23 0 23 -47q0 -27 -70 -332t-70 -317q-8 -6 -20 -21q-10 -14 -16 -24l-9 -11q12 95 13 129q0 39 -13 39q-12 -3 -24 -37l-27 -79q-14 -41 -55 -115q-39 -70 -100 -131zM379 63q0 43 24.5 72t77.5 29 q59 0 121 -47q41 -27 74 -27q88 0 137 37l4 -2q-51 -61 -164 -62q-37 0 -69 27q-18 15 -49 31q-29 14 -46 14q-70 0 -69 -72q0 -10 18 -20q12 -6 39 -10q51 0 84 33q25 -16 43 -23q-63 -43 -125 -43q-43 0 -71.5 22.5t-28.5 40.5z" />
<glyph unicode="&#xff;" horiz-adv-x="815" d="M-217 -743q0 74 119 206q117 131 270 254q152 121 256 174l-29 -57l-24 -14q-12 -6 -22.5 -13.5t-18.5 -11.5l-55 -37q-25 -16 -74 -57q-8 -6 -96 -82q-66 -55 -119 -108q-33 -29 -86 -115q-53 -84 -54 -135q0 -90 134 -90q217 0 358 391l64 157l43 111q4 12 12 31.5 t16 42.5q6 14 15.5 42.5t13.5 41.5q43 14 139 133q-141 -408 -301 -752q-63 -113 -156 -170q-96 -59 -206 -59q-31 0 -64 4q-41 4 -61 10q-37 8 -56 35q-18 25 -18 68zM23 166q6 25 55 74l24 22q-2 -2 -2 -12q0 -12 2 -19l-3 -2q-3 -2 -8 -6t-11 -8q-41 -33 -55 -51z M139 248q0 16 2 26l6 25q0 4 5.5 16.5t7.5 20.5q8 29 10 41q33 127 61.5 168t92.5 41q45 0 59 -8.5t14 -34.5q0 -14 -6 -39q-4 -16 -33 -70q-23 -43 -65 -86q14 59 16 68q23 27 39 71q14 37 14 60q0 16 -22 16q-14 -14 -45 -86q-29 -66 -39 -115l-4 -14q0 -6 -3 -14t-5 -19 q-2 -8 -5 -23.5t-6 -21.5q-4 -16 -8 -53t-4 -51q0 -137 123 -137q82 0 145.5 53t94.5 125q16 33 43 112q10 31 55 144q27 66 45 100q22 22 37 25q33 0 43 -8.5t10 -36.5q0 -49 -12 -84q-12 -37 -29 -68q-10 -20 -37 -57q-23 -31 -22 -39q-37 -66 -107 -154q-63 -80 -98 -108 q-55 -33 -172 -33q-57 0 -98 26.5t-64 67.5q-16 31 -28 80q-11 41 -11 74zM336 922q0 12 26.5 24t26.5 33q0 6 -6 12l-4 4q47 20 76 21q27 0 26 -21q0 -33 -35 -63q-34 -31 -73 -31q-37 1 -37 21zM735 922q0 12 29 24q27 12 27 33q0 8 -13 16q55 20 78 21q27 0 27 -21 q0 -33 -35 -63q-33 -31 -76 -31q-37 1 -37 21z" />
<glyph unicode="&#x152;" horiz-adv-x="2592" d="M1442 408q0 98 71 178q74 82 211 131q4 -20 10 -31q-74 -45 -114 -113q-45 -74 -45 -141q0 -55 12 -104q14 -55 41 -107q31 -58 80 -98q49 -39 133 -68q80 -27 194 -26q41 0 66 4q41 6 90 20q57 16 107 53q55 41 88 97q0 -4 3 -17.5t5 -23.5q2 -8 3 -16.5t2 -12.5t1 -6 q-63 -57 -133 -86q-72 -31 -123 -37q-31 -4 -111 -4q-156 0 -286 43q-135 43 -219 137q-86 96 -86 228zM1751 858q0 20 8 70q6 37 31 86q25 47 65 86q37 33 113 63q68 27 166 27q80 0 139 -21q63 -23 94 -47q34 -28 56 -61q20 -31 26 -55q6 -23 6 -35q0 -55 -39 -76 q-41 -23 -84 -23q-86 0 -86 21q0 8 13 10q8 2 28 2q23 0 29 2q41 10 51 29q10 20 10 43q0 51 -40 88q-41 39 -91 53q-45 14 -96 15q-66 0 -133 -25q-57 -20 -88 -55q-31 -34 -49 -80q-18 -45 -25 -82q-4 -23 -4 -74q0 -49 4 -90q12 -66 39 -113q37 -59 78 -88q37 -25 94 -24 q74 0 107 49q35 51 34 96q0 113 -159 113q-76 0 -150 -19l-2 31q74 18 152 19q111 0 180 -48q68 -46 68 -110q0 -61 -37 -103q-35 -39 -84 -51q-47 -12 -105 -12q-49 0 -90 14q-45 16 -53 23l-43 33q-70 55 -111 166q-22 85 -22 153zM2394 381q0 6 2 8q0 6 41 12q29 4 67 5 q10 0 11 -29q-12 -94 -19 -115q-10 35 -12 35q-10 0 -10 -70q0 -80 10 -102q12 -29 33 -29q29 0 45 25q4 4 4 6l2 -2h2q0 -2 -6 -14q-4 -8 -19 -23q-10 -10 -22 -10q-80 0 -88 86q-2 8 -5 27.5t-5 27.5q-2 10 -6.5 24.5t-4.5 18.5q-20 68 -20 119zM162 393q0 227 92 412 q88 178 248 282q152 100 340 101q154 0 264 -74q113 -76 113 -160q0 -53 -66 -190t-141 -219q-31 -31 -70 -49q-46 -22 -80 -31l-35 -10h-6v14q0 10 25 20q8 4 28.5 11.5t32.5 11.5q31 12 70 43q61 55 108.5 178t47.5 246q0 45 -33 84q-27 33 -78 53q-41 16 -86 27 q-35 8 -64 8q-145 0 -262 -68q-115 -68 -190 -182q-78 -121 -117 -262q-41 -152 -41 -315q0 -74 47 -133.5t117 -90.5q76 -33 141.5 -47t132.5 -14q115 0 213 53q102 55 166 137q61 80 113 179q47 90 70 172q20 74 20 125q0 90 -35 153q-6 10 -6 21q0 4 4 24q4 31 6 33 q2 8 2 29q4 -4 11 -7q47 -39 57 -51q23 -27 39 -71q18 -53 18 -125q0 -74 -18 -160q-16 -78 -68 -186q-46 -98 -116 -179q-74 -82 -187 -133q-119 -53 -260 -53q-68 0 -141 12q-76 12 -152 43q-74 31 -137 74q-51 37 -98 115q-39 65 -39 149z" />
<glyph unicode="&#x153;" horiz-adv-x="1138" d="M61 195q0 82 37 155q37 76 90 125q49 47 113 80q59 31 107 31q53 0 84 -31v-63l-17 4q-10 2 -22 2q-14 59 -45 59q-14 0 -39 -12q-27 -14 -60 -43t-65.5 -76t-53.5 -113q-20 -68 -20 -155q0 -53 29 -92q28 -37 98 -37q76 0 129 41q57 43 113 143q4 8 13 33.5t15 38.5 q25 57 39 86l51 98q94 119 279 119q74 0 145 -27q74 -29 74 -76q0 -12 -2 -22q-3 -15 -18 -43q-16 -31 -43 -51.5t-82.5 -39t-128.5 -18.5q-37 0 -54 2q-23 2 -39 6q-6 0 -14 2.5l-14 4.5q-10 2 -21 2l11 22q25 -8 102 -8q98 4 154 61q57 59 57 101q0 27 -39 43 q-29 12 -84 12q-84 0 -153.5 -63.5t-112.5 -171.5q-59 -168 -101 -228q-80 -96 -231 -96q-74 0 -129 18q-63 20 -86 41q-27 23 -43 58q-14 31 -18 47q-5 21 -5 31zM528 535q0 47 31 47q12 0 39 -15q31 -16 39 -39q0 -2 2 -11t6 -17q-27 -27 -63 -109q-4 27 -27 107 q0 2 -14 16q-13 13 -13 21zM596 72q23 23 49 94q0 -135 166 -135q86 0 125 30q6 6 14 17q10 12 27 20q12 6 29 6h34q39 0 45 2q9 3 19 13q4 4 6 5t4 3h2q-29 -45 -61 -72q-35 -29 -74 -37q-61 -12 -72 -14q-18 -2 -80 -2q-157 0 -233 70z" />
<glyph unicode="&#x178;" horiz-adv-x="2095" d="M217 922q0 88 82 145q84 59 178 59q88 0 152 -20q72 -23 119 -49l96 -58q41 -23 112 -47q61 -20 140 -20q59 0 102 18q41 16 107 62q-10 -37 -27 -68q-98 -43 -158 -43q-104 0 -178 21q-76 20 -125 49q-43 25 -92 59q-35 25 -100 49q-55 20 -127 21q-59 0 -101 -25 q-43 -27 -57 -59q-16 -41 -23 -66q-6 -29 -6 -53q0 -53 21 -94q22 -43 49 -43q18 0 18 28v27q0 4 -1 15.5t-1 19.5t13 8q14 0 45 -18q29 -16 28 -35q0 -31 -18 -43q-29 -33 -78 -33q-63 0 -116.5 66t-53.5 127zM651 -578q0 37 29 72t96 35q119 0 205 -70q22 -18 49 -55 q31 -41 31 -63q-16 -23 -60 -23q-33 0 -49 14q4 16 4 58q0 35 -24 71q-18 15 -49 31q-29 14 -52 14q-37 0 -65 -43q-29 -45 -29 -88q0 -100 123 -155.5t240 -55.5q115 0 182 48q74 51 107 104q12 20 88 176q94 193 186 406q106 246 147 401q188 616 218 692q61 162 126 191 q18 8 48 8q59 0 59 -129v-49q-4 -35 -20 -94q-25 -88 -48 -144q-41 -98 -92 -188q-72 -127 -149 -238q47 168 53 193q70 111 129 280q53 152 53 301q0 18 -8 25q-23 -29 -49 -84q-27 -57 -55 -145l-52 -164l-65 -234l-72 -258q-31 -111 -166 -436q-133 -322 -276 -580 q-20 -35 -98 -65q-76 -29 -238 -39q-138 3 -264 55q-96 47 -146 105q-47 52 -47 120zM1083 362q0 27 11 72q10 43 22 78q10 27 41 96l47 101l64 127l67 135q27 59 33 86q6 31 35 76q27 43 76 55q16 0 28 -6q12 -2 35 -29t23 -37v-2q0 -6 -11 -16q-12 -12 -18 -15l-8 -4 q-4 23 -12.5 23t-88.5 -160l-106 -205q-76 -141 -92 -176q-29 -61 -47 -127q-25 -88 -25 -145q0 -72 27 -131q27 -57 61.5 -82t71.5 -37q29 -10 63 -10q135 0 373 215l-47 -138q-84 -59 -141 -81q-61 -25 -156 -25q-86 0 -149 31q-66 31 -96.5 73.5t-51.5 98.5 q-22 58 -25 92q-4 44 -4 67zM1630 1366q0 12 26.5 24.5t26.5 30.5q0 6 -8 15l-4 4q47 20 78 20q29 0 29 -20q0 -33 -35 -63.5t-76 -30.5q-37 0 -37 20zM2030 1366q0 12 26 25q29 12 29 30q0 9 -12 19q55 20 77 20q27 0 27 -20q0 -33 -35 -64q-34 -31 -74 -30q-38 0 -38 20z " />
<glyph unicode="&#x2c6;" horiz-adv-x="563" d="M10 770q12 29 43 53q37 29 66 45q31 16 74 60q45 45 69 88h100q41 -72 78 -109l25.5 -25.5l27 -26.5l19.5 -19q29 -25 45 -66q-111 57 -166 96q-43 29 -84 80q-23 -27 -47 -45q-10 -8 -55 -33q-27 -14 -86.5 -42.5t-108.5 -55.5z" />
<glyph unicode="&#x2dc;" horiz-adv-x="688" d="M47 897q55 70 94 70q29 0 146 -25q106 -23 133 -22q6 0 15 1t14 1q8 0 24 4q4 0 11.5 3t9.5 3q8 0 18 8q8 6 12 10l6 4q6 4 10.5 8.5t10.5 9.5l6 5q8 -8 18 -16q12 -10 17 -23l-3 -2q-3 -2 -9.5 -5t-10.5 -7l-26 -17q-2 0 -10.5 -3t-14.5 -7q-14 -6 -31 -10 q-10 -2 -34 -2q-63 0 -153.5 22.5t-115.5 22.5q-35 0 -59.5 -24.5t-34.5 -24.5q-20 0 -43 16z" />
<glyph unicode="&#x2000;" horiz-adv-x="819" />
<glyph unicode="&#x2001;" horiz-adv-x="1640" />
<glyph unicode="&#x2002;" horiz-adv-x="819" />
<glyph unicode="&#x2003;" horiz-adv-x="1640" />
<glyph unicode="&#x2004;" horiz-adv-x="544" />
<glyph unicode="&#x2005;" horiz-adv-x="409" />
<glyph unicode="&#x2006;" horiz-adv-x="270" />
<glyph unicode="&#x2007;" horiz-adv-x="270" />
<glyph unicode="&#x2008;" horiz-adv-x="202" />
<glyph unicode="&#x2009;" horiz-adv-x="327" />
<glyph unicode="&#x200a;" horiz-adv-x="88" />
<glyph unicode="&#x2010;" horiz-adv-x="958" d="M184 438q0 20 15 56q76 -2 432 -2q178 0 272 14q-6 -29 -10 -45.5t-4 -20.5q-115 -8 -190.5 -8t-192.5 2q-234 4 -322 4z" />
<glyph unicode="&#x2011;" horiz-adv-x="958" d="M184 438q0 20 15 56q76 -2 432 -2q178 0 272 14q-6 -29 -10 -45.5t-4 -20.5q-115 -8 -190.5 -8t-192.5 2q-234 4 -322 4z" />
<glyph unicode="&#x2012;" horiz-adv-x="958" d="M184 438q0 20 15 56q76 -2 432 -2q178 0 272 14q-6 -29 -10 -45.5t-4 -20.5q-115 -8 -190.5 -8t-192.5 2q-234 4 -322 4z" />
<glyph unicode="&#x2013;" horiz-adv-x="1024" d="M184 432v74h785v-74h-785z" />
<glyph unicode="&#x2014;" horiz-adv-x="2048" d="M184 432v74h1809v-74h-1809z" />
<glyph unicode="&#x2018;" horiz-adv-x="421" d="M330 979q6 8 22.5 26.5t24.5 28.5q6 6 13 14.5t11.5 13.5t8.5 10t6 9q14 23 14 41q0 39 -59 47l12 11.5t16 13.5l27 20l25 19q10 8 18 10q12 4 14 4q20 0 34.5 -14t21.5 -37v-12q0 -51 -117 -144q-9 -9 -25 -18q-14 -10 -34.5 -22.5t-32.5 -20.5z" />
<glyph unicode="&#x2019;" horiz-adv-x="462" d="M356 979q23 31 47 57q35 39 39 45q16 33 17 41q0 37 -62 47l29 25l29 23q12 8 20 14q12 10 21 12q12 4 14 4q35 0 53 -51v-12q0 -12 -6 -29q-4 -10 -16.5 -26.5t-24.5 -28.5q-6 -6 -13 -14.5t-9 -10.5q-4 -4 -25 -20q-4 -4 -8 -7.5t-7 -5.5l-3 -2q-4 -4 -20.5 -14 l-27 -16t-27 -16.5t-20.5 -14.5z" />
<glyph unicode="&#x201c;" horiz-adv-x="681" d="M303 979l49 57q35 39 39 45q16 33 17 41q0 39 -60 47l29 25q25 23 27 23t10 5t12 9q12 10 20 12q12 4 15 4q35 0 55 -51v-12q0 -14 -8 -29q-14 -25 -16 -27q-12 -16 -25 -28l-25 -25q-4 -4 -24 -20q-4 -4 -8 -7.5t-8 -5.5l-3 -2l-20 -14t-27 -16zM524 979l49 57 q35 39 39 45q16 27 17 41q0 37 -62 47l29 25l29 23q12 8 20 14q12 10 21 12q12 4 14 4q35 0 55 -51v-12q0 -14 -8 -29q-14 -25 -16 -27q-12 -16 -25 -28q-6 -6 -13 -14.5t-9 -10.5q-4 -4 -25 -20q-4 -4 -8 -7.5t-7 -5.5l-3 -2l-20.5 -14t-27.5 -16z" />
<glyph unicode="&#x201d;" horiz-adv-x="681" d="M303 979l49 57q35 39 39 45q16 33 17 41q0 39 -60 47l29 25q25 23 27 23t10 5t12 9q12 10 20 12q12 4 15 4q35 0 55 -51v-12q0 -14 -8 -29q-14 -25 -16 -27q-12 -16 -25 -28l-25 -25q-4 -4 -24 -20q-4 -4 -8 -7.5t-8 -5.5l-3 -2l-20 -14t-27 -16zM524 979l49 57 q35 39 39 45q16 27 17 41q0 37 -62 47l29 25l29 23q12 8 20 14q12 10 21 12q12 4 14 4q35 0 55 -51v-12q0 -14 -8 -29q-14 -25 -16 -27q-12 -16 -25 -28q-6 -6 -13 -14.5t-9 -10.5q-4 -4 -25 -20q-4 -4 -8 -7.5t-7 -5.5l-3 -2l-20.5 -14t-27.5 -16z" />
<glyph unicode="&#x2026;" horiz-adv-x="1294" d="M989 8q0 31 6 43q8 14 23 23q8 4 20 8q6 2 24.5 2t32.5 -12q16 -12 17 -29q0 -55 -68 -55q-47 0 -55 20zM557 8q0 31 6 43q8 14 23 23q8 4 20 8q6 2 24.5 2t32.5 -12q16 -12 17 -29q0 -55 -68 -55q-47 0 -55 20zM125 8q0 31 6 43q8 14 23 23q8 4 20 8q6 2 24.5 2 t32.5 -12q16 -12 17 -29q0 -55 -68 -55q-47 0 -55 20z" />
<glyph unicode="&#x202f;" horiz-adv-x="327" />
<glyph unicode="&#x2039;" horiz-adv-x="661" d="M53 584l502 247l55 -75q-262 -102 -520 -217zM125 489zM127 489l53 27l369 -475l-92 -47q-178 284 -330 495z" />
<glyph unicode="&#x203a;" horiz-adv-x="718" d="M55 59l588 478l41 -33q-233 -197 -553 -504zM190 772l50 62l358 -263l-49 -41z" />
<glyph unicode="&#x205f;" horiz-adv-x="409" />
<glyph unicode="&#x20ac;" horiz-adv-x="991" d="M27 293l75 24l2 -57l-75 -29v15q0 4 1 8t1 6q0 4 -4 33zM68 406q4 8 4 14v14q0 4 -4 33l143.5 51.5t94.5 33.5l28 9q254 84 344 119q2 -8 2 -27q0 -12 -2 -22t-2 -19v-4l2 -2q-104 -27 -270 -82zM145 332q0 20 5 61l92 33q-2 -4 -3 -16.5t-1 -18.5t-1 -12t-3 -10l-1 -4 l-6 -66v-47q0 -63 33 -109q37 -49 84 -71q45 -20 102 -35q52 -12 99 -12q53 0 92 20q29 16 94 74q74 -4 74 -20.5t-43 -41.5q-41 -25 -94 -43q-41 -14 -107 -14q-68 0 -127 14q-55 14 -127 47q-63 31 -106 86q-45 57 -54 125zM182 549q61 182 195 291q135 111 299 110 q129 0 207 -53q76 -51 75 -111q0 -12 -8 -57q-6 -31 -22 -41q-16 16 -22.5 24.5t-14.5 24.5l-5 10.5t-3 8.5q-4 6 -6 20l-5 19q0 125 -170 125q-137 0 -243 -93q-104 -90 -168 -245q-29 -8 -48.5 -14.5t-26.5 -8.5t-16.5 -5t-17.5 -5zM283 317l4 66l26 8l146 49 q147 49 182 66q2 -8 2 -27q0 -12 -2 -22.5t-2 -18.5q0 -2 2 -4v-2q-133 -37 -254 -78z" />
<glyph unicode="&#x2122;" horiz-adv-x="4855" d="M1896 1206q0 72 57 140q55 63 156 63q55 0 129 -25q68 -23 109 -49l147 -98q139 -96 176 -119q190 -119 287 -119q31 0 106 33l172 74q92 39 187 59q111 25 213 25q51 0 92 -6t90 -25q47 -18 90 -63q37 -39 64 -113q-28 -12 -80 -55q4 29 4 41q0 86 -55.5 141t-184.5 55 q-109 0 -250 -51q-111 -41 -163 -63l-113 -45q-57 -20 -74 -25q-35 -8 -80 -8q-39 0 -59 4q-8 2 -26.5 5t-29 5t-55.5 21q-31 12 -49 20q-16 8 -47 27l-41 24q-2 2 -15 10.5t-24 14.5l-14 9t-12 8l-4 3l-62 43l-127 88q-72 45 -151.5 84t-139.5 39q-37 0 -69 -22 q-31 -20 -43 -58q-18 -49 -21 -61q-6 -29 -6 -47q0 -76 41 -135.5t98 -59.5q28 0 37 19l72 -17l-8 -16q-6 -12 -13 -23q-4 -10 -14 -22q-2 -4 -7 -11l-7 -10q-8 -8 -17 -8q-117 0 -190 97q-76 98 -76 202zM1927 307q0 33 39 72q35 35 121 35q61 0 118 -27q51 -25 76 -61 q16 -27 35 -66q10 -23 10 -45q-18 -16 -55 -16q-31 0 -41 12q-6 25 -6 45q0 33 -6 57q-6 27 -33 47q-31 25 -84 27q-45 0 -71.5 -45t-26.5 -94q0 -84 122.5 -151.5t245.5 -67.5q117 0 205 45q94 49 227 170q117 111 215 233q88 111 150 215q43 74 90 182.5t51 122.5 q2 10 8.5 27.5t8.5 26.5q121 41 133 41q2 -6 2 -25q0 -8 -21 -61q-37 -92 -69 -160q-57 -113 -121 -221q-68 -114 -185 -246q-113 -129 -247 -232q-147 -96 -228 -122q-74 -25 -215 -25q-129 0 -231 51q-106 53 -174 133q-43 49 -43 123zM3346 37q0 59 53 170 q49 100 127 211q100 137 150 200l127 154l53 59q41 53 125 121q6 4 22.5 13.5t28.5 17.5q119 74 160 96q72 37 133 62q84 33 166 41q76 8 213 8q49 0 123 -12q86 -14 151 -15q68 0 72 -30q-20 0 -88 -13q-96 -16 -113 -20q-53 -12 -116 -37q-80 -31 -146 -78l-12 -10 q-4 -4 -14.5 -13.5t-18.5 -17.5l-45 -47q-2 -4 -23.5 -26.5t-31.5 -34.5l-58 -76q-41 -59 -55 -86q-29 -51 -47 -96q-16 -37 -31 -103q-12 -55 -12 -104q0 -104 18 -172q18 -70 60 -107q39 -35 94 -51q51 -14 137 -14q43 0 70 12q33 14 41 24q12 16 29 27q18 12 34 12h35 q27 0 37 2q12 2 16 7l4 3q4 3 7 5q6 6 6 8l4 -2q-37 -70 -94.5 -98.5t-135.5 -28.5q-2 0 -9 1t-11 1h-20q-219 0 -319.5 88t-100.5 301q0 90 37 189q39 102 86 170q61 88 102 135q59 70 86 92l37 31q82 61 176 92q98 33 221 53q-41 6 -178 6q-163 0 -313 -55 q-147 -55 -254 -129q-111 -78 -193 -166q-27 -27 -127 -141q-43 -49 -98 -123l-78 -105l-45 -61q-20 -31 -70 -129q-47 -92 -55 -131q111 139 152 196q6 14 28 43q43 57 52 72q29 49 36 66q88 123 187 213q-45 -109 -115 -244q-76 -143 -164 -268q-98 -139 -182 -195 q-72 0 -96 6q-27 6 -27 31zM217 1260q0 61 65.5 104t149.5 43q121 0 268 -41q139 -39 252 -90q100 -45 250 -88q145 -41 266 -41q123 0 361 51q248 53 412 53q76 0 139 -8q78 -10 137 -33q66 -25 66 -61q0 -27 -15 -41q-16 -16 -33 -16q-31 0 -59 16q-25 14 -53 33 q-31 20 -109 34.5t-207 14.5q-53 -4 -190 -39q-135 -35 -180 -39q-4 0 -15.5 -1t-33 -2t-39.5 -1q-94 -4 -109 -4q-162 0 -328 43q-176 45 -276 90q-106 47 -238 92q-126 43 -215 43q-35 0 -45 -2q-41 -6 -96 -35q-49 -27 -49 -80q0 -174 268 -299q63 -27 144 -43 q82 -16 124 -16q41 0 76 10q31 10 70 29q41 20 67 29h15h6q100 0 174 -50q-18 -16 -139 -38q-86 -10 -174 -11q-92 0 -181 17q-150 25 -268 88q-94 43 -155.5 106.5t-81.5 108.5q-21 43 -21 74zM420 258q0 74 45 96.5t131 22.5q51 0 88 -19q41 -20 59.5 -38.5t32.5 -51.5 q16 -39 19 -47q4 -25 4 -31v-2q-20 -20 -56 -20q-27 0 -41 12q0 4 -2 11q-2 8 -2 10v35q0 47 -38.5 81.5t-81.5 34.5q-94 0 -95 -141q0 -53 119 -119q115 -63 236 -63q150 0 235 34q82 33 209 148q70 78 150 235q90 180 184 398q100 231 102 233q39 0 82 8q16 -16 25 -36 q-49 -90 -139 -291q-92 -205 -179 -367q-90 -168 -186 -264q-98 -84 -193 -104q-100 -23 -237 -23h-49q-260 0 -389 154q-33 38 -33 104z" />
<glyph unicode="&#xe000;" horiz-adv-x="585" d="M0 585h585v-585h-585v585z" />
<glyph unicode="&#xfb01;" horiz-adv-x="929" d="M490 166q2 4 5 11t5 11q2 6 5 11.5t3 7.5q4 8 8 14l17 17l-9 -31q-6 -6 -12 -19q-6 -14 -20 -24zM537 154q0 39 12 84q16 68 45 135q31 74 78 139.5t92 65.5q23 0 39 -14.5t16 -31.5q0 -41 -33 -106q-35 -70 -90 -119l19 55q53 63 63 156q-23 -16 -55 -76 q-37 -68 -53 -118q-18 -55 -33 -111q-8 -31 -8 -86q0 -98 69 -98q29 0 41 6q10 4 47 39q6 6 9 10q18 18 41 18h22q27 0 41 19l6 6l2 -2q-2 -2 -6 -10.5t-8 -12.5l-20 -30q-10 -16 -37 -39q-55 -33 -109 -33q-94 0 -141 45q-49 46 -49 109zM887 922q0 12 29 24q27 12 26 33 q0 4 -8 12l-4 4q47 20 78 21q27 0 26 -21q0 -33 -35 -63q-34 -31 -73 -31q-39 1 -39 21zM-412 -848q14 53 43 53q23 0 55.5 -4t34.5 -4q41 0 74 29q33 31 70 115q74 170 244 729q25 -14 75 -27l-243 -709q-31 -90 -111 -139t-186 -49q-25 0 -56 6zM41 246q0 33 33 57 q41 29 73 37l-16 -70q-6 -2 -20 -8q-6 -3 -13 -12q-4 -6 -4 -27q0 -55 62 -98q63 -45 145 -45q33 0 57 8l23.5 9t15.5 5q9 3 43 25l2 -2q-31 -31 -69 -47q-47 -20 -76 -21q-256 13 -256 189zM141 180q2 8 17 56q98 315 121 374q43 115 106 254q4 10 12.5 27.5t12.5 26.5 q8 20 45 34q39 16 63.5 16.5t40.5 -22t16 -90.5q0 -108 -86 -283q-84 -172 -172 -256l33 82q68 94 119 219q53 131 53 224q0 23 -2 32q0 6 -2 12.5t-2 10.5v10q-35 -53 -86 -170q-55 -129 -78 -192l-92 -264l-47 -150q-27 6 -72 49z" />
<glyph unicode="&#xfb02;" horiz-adv-x="1107" d="M490 166q31 43 73 76l-10 -35q-20 -10 -61 -43zM580 150q0 45 16 86q119 344 287 657q8 18 45 33q34 12 61 12q47 0 47 -53q0 -127 -106 -310l-35 -59l-23.5 -40.5t-15.5 -24.5q-6 -10 -15 -23.5l-20 -30.5q-31 -47 -37 -55q-12 -14 -32 -35l24 76q18 25 37 55 q16 27 39 76l35 70q92 164 100 299q-74 -104 -108 -191l-160 -370l-14 -41q-29 -94 -29 -154q0 -55 29 -78q27 -20 94 -20h41q8 0 33 8q20 8 34 20l19 19q14 14 22 18q16 8 29 8l4 -1q4 -1 8 -1h23q41 0 47 2q10 4 18 15q2 4 8 10l3 -2q-72 -125 -246 -125h-19h-16 q-227 0 -227 150zM-412 -848q14 53 43 53q23 0 55.5 -4t34.5 -4q41 0 74 29q33 31 70 115q74 170 244 729q25 -14 75 -27l-243 -709q-31 -90 -111 -139t-186 -49q-25 0 -56 6zM41 246q0 33 33 57q41 29 73 37l-16 -70q-6 -2 -20 -8q-6 -3 -13 -12q-4 -6 -4 -27q0 -55 62 -98 q63 -45 145 -45q33 0 57 8l23.5 9t15.5 5q9 3 43 25l2 -2q-31 -31 -69 -47q-47 -20 -76 -21q-256 13 -256 189zM141 180q2 8 17 56q98 315 121 374q43 115 106 254q4 10 12.5 27.5t12.5 26.5q8 20 45 34q39 16 63.5 16.5t40.5 -22t16 -90.5q0 -108 -86 -283 q-84 -172 -172 -256l33 82q68 94 119 219q53 131 53 224q0 23 -2 32q0 6 -2 12.5t-2 10.5v10q-35 -53 -86 -170q-55 -129 -78 -192l-92 -264l-47 -150q-27 6 -72 49z" />
<glyph unicode="&#xfb03;" horiz-adv-x="1394" d="M955 166q2 4 5 11t5 11q2 6 5 11.5t3 7.5q4 8 8 14l17 17l-9 -31q-6 -6 -12 -19q-6 -14 -20 -24zM1002 154q0 39 12 84q16 68 45 135q31 74 78 139.5t92 65.5q23 0 39 -14.5t16 -31.5q0 -41 -33 -106q-35 -70 -90 -119l19 55q53 63 63 156q-23 -16 -55 -76 q-37 -68 -53 -118q-18 -55 -33 -111q-8 -31 -8 -86q0 -98 69 -98q29 0 41 6q10 4 47 39q6 6 9 10q18 18 41 18h22q27 0 41 19l6 6l2 -2q-2 -2 -6 -10.5t-8 -12.5l-20 -30q-10 -16 -37 -39q-55 -33 -109 -33q-94 0 -141 45q-49 46 -49 109zM1352 922q0 12 29 24q27 12 26 33 q0 4 -8 12l-4 4q47 20 78 21q27 0 26 -21q0 -33 -35 -63q-34 -31 -73 -31q-39 1 -39 21zM55 -848q14 53 43 53q23 0 55.5 -4t34.5 -4q41 0 74 29q33 31 70 115q74 170 244 729q25 -14 75 -27l-243 -709q-31 -90 -111 -139t-186 -49q-25 0 -56 6zM508 246q0 33 33 57 q41 29 73 37l-16 -70q-6 -2 -20 -8q-6 -3 -13 -12q-4 -6 -4 -27q0 -55 62 -98q63 -45 145 -45q33 0 57 8l23.5 9t15.5 5q9 3 43 25l2 -2q-31 -31 -69 -47q-47 -20 -76 -21q-256 13 -256 189zM608 180q2 8 17 56q98 315 121 374q43 115 106 254q4 10 12.5 27.5t12.5 26.5 q8 20 45 34q39 16 63.5 16.5t40.5 -22t16 -90.5q0 -108 -86 -283q-84 -172 -172 -256l33 82q68 94 119 219q53 131 53 224q0 23 -2 32q0 6 -2 12.5t-2 10.5v10q-35 -53 -86 -170q-55 -129 -78 -192l-92 -264l-47 -150q-27 6 -72 49zM-412 -848q14 53 43 53q23 0 55.5 -4 t34.5 -4q41 0 74 29q33 31 70 115q74 170 244 729q25 -14 75 -27l-243 -709q-31 -90 -111 -139t-186 -49q-25 0 -56 6zM41 246q0 33 33 57q41 29 73 37l-16 -70q-6 -2 -20 -8q-6 -3 -13 -12q-4 -6 -4 -27q0 -55 62 -98q63 -45 145 -45q33 0 57 8l23.5 9t15.5 5q9 3 43 25 l2 -2q-31 -31 -69 -47q-47 -20 -76 -21q-256 13 -256 189zM141 180q2 8 17 56q98 315 121 374q43 115 106 254q4 10 12.5 27.5t12.5 26.5q8 20 45 34q39 16 63.5 16.5t40.5 -22t16 -90.5q0 -108 -86 -283q-84 -172 -172 -256l33 82q68 94 119 219q53 131 53 224q0 23 -2 32 q0 6 -2 12.5t-2 10.5v10q-35 -53 -86 -170q-55 -129 -78 -192l-92 -264l-47 -150q-27 6 -72 49z" />
<glyph unicode="&#xfb04;" horiz-adv-x="1574" d="M955 166q31 43 73 76l-10 -35q-20 -10 -61 -43zM1045 150q0 45 16 86q119 344 287 657q8 18 45 33q34 12 61 12q47 0 47 -53q0 -127 -106 -310l-35 -59l-23.5 -40.5t-15.5 -24.5q-6 -10 -15 -23.5l-20 -30.5q-31 -47 -37 -55q-12 -14 -32 -35l24 76q18 25 37 55 q16 27 39 76l35 70q92 164 100 299q-74 -104 -108 -191l-160 -370l-14 -41q-29 -94 -29 -154q0 -55 29 -78q27 -20 94 -20h41q8 0 33 8q20 8 34 20l19 19q14 14 22 18q16 8 29 8l4 -1q4 -1 8 -1h23q41 0 47 2q10 4 18 15q2 4 8 10l3 -2q-72 -125 -246 -125h-19h-16 q-227 0 -227 150zM55 -848q14 53 43 53q23 0 55.5 -4t34.5 -4q41 0 74 29q33 31 70 115q74 170 244 729q25 -14 75 -27l-243 -709q-31 -90 -111 -139t-186 -49q-25 0 -56 6zM508 246q0 33 33 57q41 29 73 37l-16 -70q-6 -2 -20 -8q-6 -3 -13 -12q-4 -6 -4 -27q0 -55 62 -98 q63 -45 145 -45q33 0 57 8l23.5 9t15.5 5q9 3 43 25l2 -2q-31 -31 -69 -47q-47 -20 -76 -21q-256 13 -256 189zM608 180q2 8 17 56q98 315 121 374q43 115 106 254q4 10 12.5 27.5t12.5 26.5q8 20 45 34q39 16 63.5 16.5t40.5 -22t16 -90.5q0 -108 -86 -283 q-84 -172 -172 -256l33 82q68 94 119 219q53 131 53 224q0 23 -2 32q0 6 -2 12.5t-2 10.5v10q-35 -53 -86 -170q-55 -129 -78 -192l-92 -264l-47 -150q-27 6 -72 49zM-412 -848q14 53 43 53q23 0 55.5 -4t34.5 -4q41 0 74 29q33 31 70 115q74 170 244 729q25 -14 75 -27 l-243 -709q-31 -90 -111 -139t-186 -49q-25 0 -56 6zM41 246q0 33 33 57q41 29 73 37l-16 -70q-6 -2 -20 -8q-6 -3 -13 -12q-4 -6 -4 -27q0 -55 62 -98q63 -45 145 -45q33 0 57 8l23.5 9t15.5 5q9 3 43 25l2 -2q-31 -31 -69 -47q-47 -20 -76 -21q-256 13 -256 189zM141 180 q2 8 17 56q98 315 121 374q43 115 106 254q4 10 12.5 27.5t12.5 26.5q8 20 45 34q39 16 63.5 16.5t40.5 -22t16 -90.5q0 -108 -86 -283q-84 -172 -172 -256l33 82q68 94 119 219q53 131 53 224q0 23 -2 32q0 6 -2 12.5t-2 10.5v10q-35 -53 -86 -170q-55 -129 -78 -192 l-92 -264l-47 -150q-27 6 -72 49z" />
</font>
</defs>
</svg>
